<svg xmlns="http://www.w3.org/2000/svg" width="112" height="112" fill="none" viewBox="0 0 112 112"><rect width="112" height="112" fill="#F05323" rx="16"/><g clip-path="url(#a)"><path fill="#fff" d="M39.797 61.161c1.925-2.27 3.646-5.161 3.646-8.361 0-2.271-1.215-4.439-2.228-6.4-2.329-3.82-6.38-6.4-11.14-6.4-6.986 0-12.657 6.09-12.657 13.213v.206h9.316v-.103c0-1.858 1.52-3.922 3.342-3.922 1.823 0 3.342 1.548 3.342 3.406 0 .929-.405 1.755-1.013 2.374l-8.608 8.774L16 72h13.063s10.228-10.323 10.735-10.839Zm30.886-7.742H61.57v-9.806L43.342 62.71 34.329 72h9.013v-9.29h9.114V72h9.114v-9.29h9.113v-9.29Zm22.279 7.742C94.886 58.891 96 56 96 52.8c0-2.271-.608-4.439-1.62-6.4C92.152 42.58 88.1 40 83.342 40c-6.988 0-12.659 6.09-12.659 13.213v.206H80v-.103c0-1.858 1.519-3.922 3.342-3.922 1.823 0 3.341 1.548 3.341 3.406 0 .929-.405 1.755-1.012 2.374l-8.608 8.774L69.266 72h13.063s10.228-10.323 10.633-10.839ZM96 72v-9.497L86.683 72H96Z"/></g><defs><clipPath id="a"><path fill="#fff" d="M16 40h80v32H16z"/></clipPath></defs></svg>