<svg xmlns="http://www.w3.org/2000/svg" width="240" height="240" fill="none" viewBox="0 0 240 240"><g clip-path="url(#a)"><path fill="#CADDFF" d="M235.436 45.907c-8.005-16.153-23.986-24.878-33.92-30.291C158.671-7.765 100.276-1.546 61.461 20.28 23.136 41.79-10.236 92.784 3.758 148.156c14.051 55.572 68.732 84.165 110.08 90.241 65.68 9.617 120.849-34.15 123.873-49.354.921-4.693.691-8.839.691-8.839-1.152-10.971-10.193-17.479-12.295-42.472-3.859-46.013 23.381-63.491 9.329-91.825Z"/><path fill="#5479F7" d="M233.536 168.139 92.588 148.53a7.085 7.085 0 0 1-6.19-7.026l-1.93-98.303s3.225-2.304 5.04-3.197a5.377 5.377 0 0 1 3.109-.518l140.516 17.91a7.085 7.085 0 0 1 6.191 7.026v96.576a5.458 5.458 0 0 1-2.016 4.261c-1.123.922-3.772 2.88-3.772 2.88Z"/><path fill="#99B9FF" d="M229.217 169.463 88.413 151.496a7.093 7.093 0 0 1-6.19-7.055V47.692c0-3.31 2.907-5.902 6.219-5.47l140.804 17.967a7.092 7.092 0 0 1 6.19 7.055v96.748c0 3.312-2.937 5.874-6.219 5.471Zm-81.978 54.853L2.721 205.658c-1.123-.144-1.757-1.095-1.757-2.045 0-.662.058-5.24.058-5.24l76.42-43.681c3.83-2.189 8.782-3.024 13.159-2.476l142.704 18.399a2.428 2.428 0 0 1 1.929 1.469l.231.547s-.116 3.829-.087 4.722a2.025 2.025 0 0 1-1.008 1.843l-74.49 42.615a20.363 20.363 0 0 1-12.641 2.505Z"/><path fill="#fff" d="m147.239 219.191-144-18.601c-1.9-.259-2.418-2.793-.748-3.743l74.087-42.328a20.174 20.174 0 0 1 12.64-2.505l144.001 18.601c1.9.259 2.419 2.793.748 3.743l-74.087 42.328a20.37 20.37 0 0 1-12.641 2.505Z"/><path fill="#0F182A" d="M149.773 219.767c-.864 0-1.728-.058-2.592-.173l-144-18.572c-1.065-.144-1.871-.893-2.073-1.958a2.418 2.418 0 0 1 1.18-2.592l74.088-42.327c3.888-2.217 8.466-3.139 12.9-2.563l144 18.601c1.066.144 1.872.893 2.073 1.958a2.418 2.418 0 0 1-1.18 2.592l-74.088 42.327c-3.11 1.785-6.709 2.707-10.308 2.707Zm-2.476-1.008a19.977 19.977 0 0 0 12.381-2.448l74.088-42.327c.72-.403.864-1.152.777-1.67-.115-.547-.518-1.152-1.353-1.267l-144-18.601a19.984 19.984 0 0 0-12.382 2.447L2.721 197.221c-.72.403-.864 1.152-.778 1.67.115.547.519 1.152 1.354 1.267l144 18.601Z"/><path fill="#99B9FF" d="m175.429 195.695-124.88-16.24c-1.728-.23-2.19-2.505-.663-3.369l29.37-16.614c3.455-1.987 7.458-2.765 11.403-2.275l124.88 16.24c1.728.23 2.188 2.505.662 3.369l-29.37 16.614a18.094 18.094 0 0 1-11.402 2.275Zm-71.698 10.078-30.147-3.887c-.778-.087-.98-1.123-.288-1.527l13.188-7.457a8.187 8.187 0 0 1 5.125-1.008l30.148 3.858c.777.087.979 1.123.288 1.526l-13.188 7.458c-1.555.893-3.34 1.238-5.126 1.037Z"/><path fill="#fff" d="m74.189 97.938-61.246-7.803a2.335 2.335 0 0 1-2.044-2.332V1.852c0-1.008.893-1.785 1.9-1.67l51.772 6.594L76.09 20.712v75.556a1.666 1.666 0 0 1-1.9 1.67Z"/><path fill="#5479F7" d="M18.414 91.258h-.058l-5.47-.691a2.771 2.771 0 0 1-2.42-2.764V1.852c0-.605.26-1.18.72-1.584a2.202 2.202 0 0 1 1.67-.518l51.946 6.623L76.52 20.597v18.774c0 .23-.202.432-.432.432a.443.443 0 0 1-.432-.432V20.914L64.341 7.208 12.713.614a1.211 1.211 0 0 0-.98.288 1.27 1.27 0 0 0-.431.921v85.951c0 .95.72 1.785 1.67 1.9l5.47.691c.231.03.404.26.375.49 0 .26-.173.403-.403.403Z"/><path fill="#5479F7" d="M76.002 21.26h-.057l-11.288-1.44a.71.71 0 0 1-.604-.692V6.978c0-.231.201-.433.432-.433.23 0 .432.202.432.432v12.008l11.143 1.41c.23.03.403.26.374.49a.46.46 0 0 1-.432.374Z"/><path fill="#99B9FF" d="m20.602 38.133.691 1.641a.408.408 0 0 0 .26.23l1.67.49c.316.086.374.49.144.69l-1.21 1.009c-.115.086-.144.23-.144.345l.202 1.642c.057.345-.346.575-.634.374l-1.353-.95a.44.44 0 0 0-.374-.058l-1.469.576c-.288.115-.605-.144-.547-.46l.346-1.7c.028-.115 0-.23-.087-.345l-1.152-1.353c-.23-.26-.028-.663.288-.663l1.526-.029a.4.4 0 0 0 .346-.201l.72-1.325c.201-.23.633-.23.777.087Zm7.688.95.691 1.641a.409.409 0 0 0 .26.23l1.67.49c.316.086.374.49.143.691l-1.209 1.008c-.115.086-.144.23-.144.346l.202 1.64c.057.346-.346.577-.634.375l-1.353-.95a.441.441 0 0 0-.374-.058l-1.469.576c-.288.115-.605-.144-.547-.46l.346-1.7c.028-.115 0-.23-.087-.345l-1.152-1.353c-.23-.26-.028-.663.288-.663l1.527-.028a.4.4 0 0 0 .345-.202l.72-1.324c.23-.23.662-.202.777.086Zm7.688.95.691 1.641a.409.409 0 0 0 .26.23l1.67.49c.316.087.374.49.144.691l-1.21 1.008c-.115.086-.144.23-.144.346l.202 1.64c.057.346-.346.577-.634.375l-1.324-.921a.441.441 0 0 0-.375-.058l-1.468.576c-.288.115-.605-.144-.547-.46l.345-1.7c.03-.115 0-.23-.086-.345l-1.152-1.353c-.23-.26-.029-.663.288-.663l1.526-.028a.4.4 0 0 0 .346-.202l.72-1.324c.201-.26.633-.23.748.057Zm7.718.95.69 1.642a.409.409 0 0 0 .26.23l1.67.49c.317.086.374.489.144.69l-1.21 1.008c-.115.087-.144.23-.144.346l.202 1.641c.058.346-.346.576-.633.374l-1.354-.95a.44.44 0 0 0-.374-.057l-1.469.576c-.288.115-.604-.144-.547-.461l.346-1.699c.029-.115 0-.23-.087-.346l-1.151-1.353c-.23-.259-.03-.662.288-.662l1.526-.029a.4.4 0 0 0 .345-.202l.72-1.324c.202-.23.634-.202.778.086Z"/><path fill="#CADDFF" d="m51.383 41.962.691 1.642a.409.409 0 0 0 .26.23l1.67.49c.316.086.374.489.143.69l-1.209 1.008c-.115.087-.144.23-.144.346l.202 1.641c.057.346-.346.576-.634.374l-1.353-.95a.44.44 0 0 0-.375-.057l-1.468.576c-.288.115-.605-.144-.547-.461l.345-1.699c.03-.115 0-.23-.086-.346l-1.152-1.353c-.23-.259-.029-.662.288-.662l1.526-.029a.4.4 0 0 0 .346-.202l.72-1.324c.23-.26.662-.23.777.086Z"/><path fill="#fff" d="M29.402 33.943c6.449-.319 11.398-6.216 11.055-13.173-.343-6.957-5.85-12.34-12.298-12.02-6.449.317-11.398 6.215-11.055 13.172.343 6.957 5.85 12.339 12.298 12.02Z"/><path fill="#99B9FF" d="M20.948 22.123c5.931-3.138 12.698.144 16.153 3.34.691.634 1.296 1.411 1.815 2.189-1.9 3.57-5.414 6.046-9.531 6.277-4.838.23-9.157-2.736-11.144-7.199.375-1.958 1.152-3.772 2.707-4.607Z"/><path fill="#5479F7" d="M32.005 20.136c1.9-.316 3.024-2.217 2.275-3.858-1.238-2.678-2.275-5.816-5.903-5.73-3.8.086-5.096 3.455-5.528 6.824-.23 1.814 1.468 3.311 3.426 2.966l5.73-.202Z"/><path fill="#fff" d="m26.909 15.961-.288 5.068c-.03.576-.432 1.065-.98 1.18-.172.03-.316.087-.489.116a1.166 1.166 0 0 0-.317 2.102c1.527.979 3.945 2.015 6.796 1.295 1.036-.259 1.18-1.67.26-2.16l-.49-.258c-.72-.375-1.181-1.18-1.123-1.987l-.03-4.953-3.34-.403Z"/><path fill="#5479F7" d="M29.73 26.442c-2.101 0-3.887-.835-5.125-1.612-.547-.346-.806-.95-.72-1.584.087-.633.519-1.123 1.152-1.296.173-.057.346-.086.518-.144a.857.857 0 0 0 .663-.777l.317-5.557 4.146.576.029 5.327a1.727 1.727 0 0 0 .892 1.612l.49.26c.605.316.921.95.835 1.612a1.602 1.602 0 0 1-1.18 1.353c-.72.173-1.383.23-2.016.23Zm-2.418-9.991-.26 4.607c-.057.777-.575 1.41-1.324 1.583-.144.03-.317.087-.46.116-.288.086-.49.288-.519.604-.057.288.087.576.346.749 1.468.95 3.772 1.93 6.45 1.267.432-.115.518-.49.547-.605.029-.259-.058-.576-.374-.748l-.49-.26a2.526 2.526 0 0 1-1.353-2.39l-.03-4.549-2.533-.374Z"/><path fill="#fff" d="m28.291 13.571 1.93 1.037c.518.288.834.864.748 1.468-.173 1.181-.633 3.024-1.843 3.254-1.814.317-2.505-2.332-2.505-2.332s-.605-.087-.892-.547c-.432-.663-.432-2.016.806-1.786l.201-.403c.23-.604.922-.892 1.555-.69Z"/><path fill="#5479F7" d="M28.78 19.79c-1.554 0-2.303-1.756-2.533-2.418-.26-.086-.663-.288-.922-.662-.345-.547-.49-1.411-.115-1.987a1.097 1.097 0 0 1 1.008-.49l.058-.143c.374-.807 1.295-1.181 2.13-.922l.058.029 1.93 1.037a1.86 1.86 0 0 1 .95 1.9c-.231 1.497-.778 3.34-2.218 3.6-.086.057-.23.057-.345.057Zm-2.562-4.721c-.202 0-.26.086-.288.115-.144.201-.086.72.115 1.036.173.288.605.346.605.346l.288.029.086.288c0 .028.605 2.274 2.016 2.015 1.008-.173 1.382-2.073 1.497-2.88a1.007 1.007 0 0 0-.518-1.036l-1.9-1.008c-.404-.115-.864.087-1.037.461l-.346.72-.317-.058c-.086-.028-.143-.028-.201-.028Z"/><path fill="#5479F7" d="M28.867 34.39c-6.422 0-11.835-5.471-12.18-12.44-.173-3.484.892-6.795 3.052-9.387 2.16-2.591 5.154-4.088 8.379-4.261 6.68-.317 12.381 5.24 12.756 12.439.345 7.199-4.78 13.303-11.46 13.62-.173.029-.375.029-.547.029Zm-.173-25.224h-.518c-2.995.144-5.76 1.555-7.775 3.944-2.016 2.42-3.052 5.529-2.88 8.783.346 6.709 5.644 11.92 11.835 11.604 6.19-.317 10.97-6.018 10.654-12.727-.317-6.508-5.327-11.604-11.316-11.604Z"/><path fill="#CADDFF" d="M45.25 26.471c0 .547.403 1.008.95 1.066l11.086 1.382c.633.086 1.21-.432 1.21-1.066 0-.547-.404-1.008-.95-1.065l-11.087-1.411c-.662-.058-1.209.432-1.209 1.094Zm18.716 2.361c0 .547.403 1.008.95 1.066l4.464.547c.633.086 1.209-.432 1.209-1.066 0-.547-.403-1.008-.95-1.065l-4.463-.547a1.069 1.069 0 0 0-1.21 1.065Zm-1.151-5.182c0-.548-.404-1.009-.95-1.066l-15.406-1.93c-.633-.086-1.209.433-1.209 1.066 0 .547.403 1.008.95 1.065l15.405 1.93c.634.086 1.21-.432 1.21-1.066Zm7.774 10.48c0-.547-.403-1.008-.95-1.065l-23.18-2.937c-.633-.087-1.209.432-1.209 1.065 0 .547.403 1.008.95 1.066l23.18 2.937c.633.086 1.209-.432 1.209-1.066Z"/><path fill="#fff" d="m127.372 148.587-64.298-8.206c-1.238-.144-2.16-1.209-2.16-2.447V47.721c0-1.065.922-1.871 1.987-1.756l66.429 8.523.028 92.314c0 1.094-.95 1.901-1.986 1.785Z"/><path fill="#5479F7" d="M60.914 78.646a.443.443 0 0 1-.432-.432V47.721c0-.633.26-1.238.75-1.641a2.188 2.188 0 0 1 1.727-.518l21.883 2.793c.23.029.404.259.375.49a.447.447 0 0 1-.49.373l-21.884-2.793a1.255 1.255 0 0 0-1.036.317c-.288.26-.46.605-.46 1.008v30.493a.419.419 0 0 1-.433.403Z"/><path fill="#99B9FF" d="m71.107 85.5.72 1.727a.409.409 0 0 0 .26.23l1.756.519c.316.086.403.518.144.72L72.72 89.76a.375.375 0 0 0-.144.374l.23 1.699c.058.346-.345.605-.662.403l-1.44-1.008c-.115-.086-.259-.086-.403-.057l-1.555.604c-.317.116-.633-.144-.576-.46l.375-1.785a.379.379 0 0 0-.087-.346l-1.21-1.44c-.23-.259-.028-.69.318-.69l1.612-.03a.45.45 0 0 0 .374-.23l.778-1.41c.201-.231.662-.203.777.114Zm8.092 1.007.72 1.728a.409.409 0 0 0 .259.23l1.756.518c.317.087.403.519.144.72l-1.267 1.066a.375.375 0 0 0-.144.374l.23 1.699c.058.345-.345.605-.662.403l-1.44-1.008c-.115-.086-.259-.086-.403-.057l-1.554.604c-.317.115-.634-.144-.576-.46l.374-1.786a.379.379 0 0 0-.086-.345l-1.21-1.44c-.23-.26-.029-.691.317-.691l1.612-.029a.45.45 0 0 0 .375-.23l.777-1.411c.202-.23.634-.23.778.115Z"/><path fill="#CADDFF" d="m87.261 87.486.72 1.728a.409.409 0 0 0 .26.23l1.756.518c.316.087.403.519.144.72l-1.267 1.066a.375.375 0 0 0-.144.374l.23 1.699c.058.345-.345.605-.662.403l-1.44-1.008c-.115-.086-.26-.086-.403-.057l-1.555.604c-.317.115-.634-.144-.576-.46l.374-1.786a.378.378 0 0 0-.086-.345l-1.21-1.44c-.23-.26-.028-.691.317-.691l1.613-.029a.45.45 0 0 0 .374-.23l.778-1.411c.201-.23.662-.202.777.115Zm8.091 1.008.72 1.728a.409.409 0 0 0 .26.23l1.756.518c.317.087.403.519.144.72l-1.267 1.066a.375.375 0 0 0-.144.374l.23 1.699c.058.345-.345.604-.662.403l-1.44-1.008c-.115-.086-.259-.086-.403-.058l-1.555.605c-.316.115-.633-.144-.576-.46l.375-1.786a.379.379 0 0 0-.087-.345l-1.209-1.44c-.23-.26-.029-.691.317-.691l1.612-.029a.45.45 0 0 0 .374-.23l.778-1.411c.201-.23.633-.202.777.115Zm8.091 1.008.72 1.727c.058.115.144.202.259.23l1.757.519c.316.086.403.518.144.72l-1.267 1.065a.375.375 0 0 0-.144.375l.23 1.698c.058.346-.345.605-.662.404l-1.44-1.008c-.115-.087-.259-.087-.403-.058l-1.555.605c-.317.115-.633-.144-.576-.46l.375-1.786a.38.38 0 0 0-.087-.346l-1.21-1.44c-.23-.258-.028-.69.318-.69l1.612-.03a.448.448 0 0 0 .374-.23l.778-1.41c.173-.23.633-.202.777.115Z"/><path fill="#fff" d="M80.371 81.107c6.767-.334 11.96-6.528 11.599-13.834-.36-7.307-6.138-12.959-12.905-12.625-6.766.334-11.96 6.528-11.599 13.834.361 7.307 6.139 12.96 12.905 12.625Z"/><path fill="#99B9FF" d="M72.432 68.827c5.845-2.965 12.381.03 16.038 3.398.72.662 1.353 1.469 1.9 2.304-1.986 3.743-5.672 6.363-9.991 6.565-5.097.259-9.617-2.88-11.72-7.573.577-2.16 2.131-3.859 3.773-4.694Z"/><path fill="#5479F7" d="M83 57.77a2.655 2.655 0 0 0-1.47-.431h-3.08a2.69 2.69 0 0 0-1.843.72l-.173.143a2.756 2.756 0 0 0-.72 2.909l1.008 2.821 6.479-.028.921-3.081c.346-1.152-.115-2.42-1.123-3.053Z"/><path fill="#fff" d="m81.444 59.009-4.75 3.052v1.756c0 1.037.489 1.958 1.237 2.563v2.793a1.99 1.99 0 0 0 1.987 1.987 1.99 1.99 0 0 0 1.987-1.987v-2.707c.806-.604 1.353-1.555 1.353-2.649v-1.929a3.212 3.212 0 0 0-1.814-2.88Z"/><path fill="#5479F7" d="M79.918 71.592a2.433 2.433 0 0 1-2.419-2.419v-2.736c0-.23.202-.431.432-.431.23 0 .432.201.432.431v2.736c0 .864.691 1.555 1.555 1.555s1.555-.691 1.555-1.555v-2.65c0-.23.202-.431.432-.431.23 0 .432.201.432.432v2.649a2.415 2.415 0 0 1-2.419 2.419Z"/><path fill="#5479F7" d="M79.976 67.532a.443.443 0 0 1-.432-.432c0-.23.201-.432.432-.432a2.839 2.839 0 0 0 2.85-2.85v-1.93a2.734 2.734 0 0 0-2.735-2.735h-2.966v4.664c0 1.123.662 2.131 1.67 2.592.23.086.317.345.202.575-.087.23-.346.317-.576.202a3.74 3.74 0 0 1-2.189-3.398V58.26h3.83a3.6 3.6 0 0 1 3.6 3.6v1.928a3.687 3.687 0 0 1-3.686 3.744Z"/><path fill="#5479F7" d="M79.803 81.555c-6.738 0-12.41-5.73-12.756-13.044-.172-3.628.98-7.141 3.225-9.82 2.275-2.706 5.385-4.29 8.782-4.462 6.997-.346 12.987 5.5 13.361 13.015.173 3.628-.979 7.14-3.225 9.819-2.275 2.706-5.385 4.29-8.782 4.463-.23.029-.432.029-.605.029Zm-.173-26.491h-.547c-3.138.144-6.047 1.641-8.177 4.146-2.131 2.534-3.197 5.817-3.024 9.214.346 6.853 5.615 12.21 11.921 12.21h.547c3.139-.145 6.047-1.642 8.178-4.147 2.13-2.534 3.196-5.817 3.023-9.215-.374-6.824-5.644-12.208-11.92-12.208Z"/><path fill="#CADDFF" d="M97.08 73.233c0 .576.432 1.065.98 1.123l11.574 1.468a1.127 1.127 0 0 0 1.267-1.123c0-.575-.432-1.036-.979-1.122L98.347 72.11a1.129 1.129 0 0 0-1.267 1.123Zm19.58 2.505c0 .576.403 1.037.979 1.123l4.089.547a1.137 1.137 0 0 0 1.296-1.123 1.12 1.12 0 0 0-.979-1.123l-4.089-.547c-.691-.086-1.296.46-1.296 1.123Zm-1.152-5.442c0-.576-.432-1.066-.979-1.123l-16.182-2.016a1.127 1.127 0 0 0-1.267 1.123c0 .576.432 1.037.98 1.123l16.181 2.016c.663.086 1.267-.46 1.267-1.123Zm7.487 10.999c0-.576-.432-1.036-.979-1.123l-23.669-3.08a1.127 1.127 0 0 0-1.267 1.122c0 .576.432 1.037.98 1.123l23.668 3.052c.662.116 1.267-.431 1.267-1.094Z"/><path fill="#fff" d="m222.277 150.632-93.927-11.979a3.579 3.579 0 0 1-3.138-3.57V3.292A2.575 2.575 0 0 1 128.12.729l79.386 10.136 17.68 21.394v115.839c0 1.526-1.383 2.707-2.909 2.534Z"/><path fill="#0F182A" d="M222.594 151.064c-.115 0-.259 0-.375-.029l-93.926-11.978c-2.016-.26-3.542-1.987-3.542-4.003V3.292c0-.864.374-1.7 1.008-2.246a2.925 2.925 0 0 1 2.361-.72l79.386 10.135c.115 0 .201.058.288.144L225.473 32a.484.484 0 0 1 .087.288v115.839c0 .864-.375 1.699-1.008 2.246a3.058 3.058 0 0 1-1.958.691ZM127.774 1.132c-.518 0-1.036.202-1.411.547a2.12 2.12 0 0 0-.719 1.613v131.791a3.168 3.168 0 0 0 2.764 3.139l93.927 11.978a2.16 2.16 0 0 0 1.699-.518c.46-.403.719-.979.719-1.613V32.403l-17.478-21.135L128.062 1.16c-.086 0-.172-.029-.288-.029Z"/><path fill="#0F182A" d="M224.725 32.604h-.058l-16.931-2.16a.833.833 0 0 1-.72-.806V11.412c0-.23.202-.432.432-.432.23 0 .432.201.432.432V29.58l16.902 2.16a.445.445 0 0 1 .374.489.459.459 0 0 1-.431.374Z"/><path fill="#99B9FF" d="M220.031 36.808c0-.806-.576-1.468-1.382-1.555l-33.43-4.261a1.553 1.553 0 0 0-1.757 1.555c0 .777.576 1.468 1.383 1.555l33.43 4.261a1.566 1.566 0 0 0 1.756-1.555Zm0 6.911c0-.806-.576-1.469-1.382-1.555l-33.43-4.262a1.553 1.553 0 0 0-1.757 1.555c0 .778.576 1.469 1.383 1.555l33.43 4.262a1.566 1.566 0 0 0 1.756-1.555Zm0 6.911c0-.807-.576-1.47-1.382-1.556l-33.43-4.261a1.553 1.553 0 0 0-1.757 1.555c0 .777.576 1.468 1.383 1.555l33.43 4.261a1.566 1.566 0 0 0 1.756-1.555ZM179.144 82.591c0-.777-.576-1.44-1.354-1.555l-43.796-5.96c-.95-.115-1.785.605-1.785 1.555 0 .777.576 1.44 1.353 1.555l43.796 5.96c.951.115 1.786-.605 1.786-1.555Zm0 6.911c0-.778-.576-1.44-1.354-1.555l-43.796-5.96c-.95-.116-1.785.604-1.785 1.554 0 .778.576 1.44 1.353 1.555l43.796 5.96c.951.116 1.786-.604 1.786-1.554Zm0 6.91c0-.777-.576-1.44-1.354-1.555l-43.796-5.96c-.95-.115-1.785.605-1.785 1.555 0 .777.576 1.44 1.353 1.555l43.796 5.96c.951.115 1.786-.605 1.786-1.555ZM138.054 55.956l1.123 2.707c.086.173.23.317.432.374l2.764.807c.489.143.633.806.23 1.123l-1.987 1.67a.655.655 0 0 0-.23.575l.346 2.678c.086.576-.547.95-1.037.634l-2.246-1.555a.643.643 0 0 0-.605-.058l-2.418.98c-.49.2-.979-.231-.893-.75l.576-2.792c.029-.202 0-.403-.144-.547l-1.9-2.246c-.346-.432-.058-1.066.489-1.066l2.505-.029a.69.69 0 0 0 .576-.345l1.209-2.217c.288-.46 1.008-.432 1.21.057Zm12.698 1.584 1.123 2.707c.086.172.23.316.432.374l2.764.806c.49.144.634.806.231 1.123l-1.987 1.67a.656.656 0 0 0-.231.576l.346 2.678c.086.576-.547.95-1.037.633l-2.246-1.554a.642.642 0 0 0-.604-.058l-2.419.98c-.49.2-.979-.231-.893-.75l.576-2.793c.029-.201 0-.403-.144-.547l-1.9-2.246c-.346-.432-.058-1.065.489-1.065l2.505-.029a.69.69 0 0 0 .576-.345l1.21-2.218a.673.673 0 0 1 1.209.058Zm12.669 1.584 1.123 2.706a.704.704 0 0 0 .432.375l2.765.806c.489.144.633.806.23 1.123l-1.987 1.67a.652.652 0 0 0-.23.576l.345 2.678c.087.576-.547.95-1.036.633l-2.246-1.555a.643.643 0 0 0-.605-.057l-2.419.979c-.489.201-.979-.23-.892-.749l.576-2.793c.028-.202 0-.403-.144-.547l-1.901-2.246c-.345-.432-.057-1.065.49-1.065l2.505-.03a.69.69 0 0 0 .576-.345l1.209-2.217c.288-.49 1.008-.46 1.209.058Zm12.699 1.555 1.123 2.706a.704.704 0 0 0 .432.375l2.764.806c.49.144.634.806.231 1.123l-1.987 1.67a.652.652 0 0 0-.23.576l.345 2.678c.086.576-.547.95-1.037.633l-2.245-1.555a.644.644 0 0 0-.605-.057l-2.419.979c-.489.201-.979-.23-.892-.749l.575-2.793c.029-.201 0-.403-.144-.547l-1.9-2.246c-.346-.432-.058-1.065.49-1.065l2.505-.03a.69.69 0 0 0 .575-.345l1.21-2.217a.673.673 0 0 1 1.209.058Zm12.67 1.583 1.123 2.707c.086.173.23.317.432.374l2.764.807c.489.144.633.806.23 1.123l-1.987 1.67a.655.655 0 0 0-.23.576l.346 2.677c.086.576-.548.95-1.037.634l-2.246-1.555a.643.643 0 0 0-.605-.058l-2.418.98c-.49.2-.979-.231-.893-.75l.576-2.792c.029-.202 0-.403-.144-.547l-1.901-2.246c-.345-.432-.057-1.066.49-1.066l2.505-.029a.69.69 0 0 0 .576-.345l1.209-2.217c.317-.49 1.008-.46 1.21.057Z"/><path fill="#fff" d="m16.83 220.17.691 6.508 4.406.518v-7.717l-5.097.691Z"/><path fill="#0F182A" d="M21.927 227.628h-.058l-4.405-.519a.427.427 0 0 1-.375-.374l-.69-6.536a.42.42 0 0 1 .373-.461l5.097-.691c.115-.029.26.029.346.115a.464.464 0 0 1 .144.317v7.746a.46.46 0 0 1-.144.316.484.484 0 0 1-.288.087Zm-4.003-1.325 3.6.432v-6.767l-4.204.576.604 5.759Z"/><path fill="#5479F7" d="M22.906 238.57c-1.843.259-5.154.489-8.696 0-1.152-.173-1.929-1.296-1.641-2.419.777-3.168 1.843-9.474 4.146-12.267l.864 1.786.49-1.411c.259-.576.864-.547 1.094-.576h1.152c.374-.058.69.201.777.547l.346 1.468 1.382-1.871.777 7.861.95 4.693c.173 1.555-.576 2.045-1.64 2.189Z"/><path fill="#0F182A" d="M18.558 239.289c-1.324 0-2.822-.086-4.405-.288a2.372 2.372 0 0 1-1.67-1.036c-.375-.576-.519-1.267-.346-1.929a37.89 37.89 0 0 0 .432-1.872c.777-3.455 1.814-8.178 3.8-10.567a.373.373 0 0 1 .375-.144.57.57 0 0 1 .346.23l.403.864.144-.432s0-.029.029-.029c.345-.72 1.065-.777 1.353-.806h1.267a1.108 1.108 0 0 1 1.21.892l.143.547.835-1.122a.477.477 0 0 1 .46-.173.468.468 0 0 1 .318.374l.777 7.832.95 4.665v.057c.144 1.584-.547 2.448-2.044 2.678-.749.087-2.332.259-4.377.259Zm-1.93-14.57c-1.583 2.362-2.504 6.537-3.195 9.647a49.369 49.369 0 0 1-.432 1.9c-.115.432-.029.864.23 1.238.26.374.634.605 1.066.662 3.916.547 7.284.173 8.551 0 .893-.115 1.411-.46 1.296-1.727l-.95-4.665v-.029l-.662-6.738-.72.979c-.087.144-.26.202-.432.173-.173-.029-.288-.173-.346-.317l-.345-1.468c-.029-.144-.173-.23-.288-.23h-1.267c-.288.028-.518.057-.634.316l-.489 1.411a.397.397 0 0 1-.374.288c-.173 0-.346-.086-.403-.259l-.605-1.181Z"/><path fill="#0F182A" d="M18.212 237.187c-1.094 0-2.303-.115-3.599-.403a.429.429 0 1 1 .202-.835c4.261.979 7.89-.259 7.918-.288.23-.086.46.029.547.259.087.231-.029.461-.259.548-.115.057-2.073.719-4.809.719Zm-1.756-4.866a.424.424 0 0 1-.432-.432c0-.23.173-.432.403-.432l4.147-.144c.23-.028.432.173.432.403 0 .231-.173.432-.403.432l-4.147.173Z"/><path fill="#fff" d="m37.504 216.686.663 9.531h5.327l.23-9.531h-6.22Z"/><path fill="#0F182A" d="M43.493 226.649h-5.298c-.23 0-.403-.173-.432-.403l-.662-9.531c0-.116.029-.231.115-.317a.464.464 0 0 1 .317-.144h6.22c.115 0 .23.058.316.144a.432.432 0 0 1 .115.317l-.259 9.531c-.028.201-.201.403-.432.403Zm-4.923-.864h4.492l.23-8.667h-5.327l.605 8.667Z"/><path fill="#5479F7" d="M36.785 231.601c0 .893.604 1.699 1.468 1.901 3.052.72 9.934 2.303 11.892 2.591 2.534.375 5.96.173 7.314-1.324 1.353-1.498-1.238-4.406-5.356-6.911-3.08-1.9-6.018-5.73-7.256-5.903-1.238-.173-3.542 3.427-3.542 3.427l-3.772-1.584c-.029-.029-.69 3.225-.748 7.803Z"/><path fill="#0F182A" d="M52.42 236.669c-.777 0-1.584-.058-2.332-.173-1.987-.288-9.013-1.9-11.921-2.591-1.066-.259-1.843-1.238-1.814-2.333.057-4.549.72-7.86.748-7.889a.46.46 0 0 1 .23-.288.558.558 0 0 1 .375-.029l3.455 1.44c.75-1.123 2.506-3.484 3.773-3.312.72.087 1.612.922 3.11 2.362 1.295 1.238 2.764 2.649 4.318 3.57 3.456 2.102 5.673 4.377 5.903 6.018.087.605-.057 1.123-.432 1.555-1.094 1.209-3.253 1.67-5.413 1.67Zm-14.57-12.266a51.453 51.453 0 0 0-.633 7.198c0 .691.46 1.325 1.151 1.469 2.909.691 9.906 2.275 11.864 2.591 2.476.375 5.73.173 6.94-1.18a.944.944 0 0 0 .23-.835c-.202-1.382-2.362-3.484-5.5-5.414-1.613-.979-3.196-2.476-4.463-3.685-1.066-1.008-2.16-2.073-2.65-2.131-.575-.086-2.073 1.612-3.138 3.225-.115.173-.346.259-.518.173l-3.283-1.411Z"/><path fill="#0F182A" d="M51.355 234.337c-4.665 0-10.568-1.613-12.727-2.419-.23-.086-.346-.345-.26-.547.087-.23.346-.346.548-.259 2.447.921 12.381 3.628 16.384 1.699.201-.116.46 0 .575.201.116.202 0 .461-.201.576-1.094.547-2.62.749-4.32.749Zm-5.817-5.27a.46.46 0 0 1-.316-.144.417.417 0 0 1 .028-.604l2.707-2.448a.417.417 0 0 1 .605.029.418.418 0 0 1-.03.605l-2.706 2.447c-.057.087-.172.115-.288.115Zm-30.205-74.49s-1.641 29.773-2.505 40.053c-.864 10.279 2.016 26.807 2.016 26.807l8.206-.432s.576-20.098 1.18-25.684c0 0 3.456-7.573 4.493-14.311 1.036-6.738 4.52-17.392 4.52-17.392s2.85 53.183 3.11 57.358c0 0 6.421.288 8.725-1.152 0 0 4.088-19.407 3.484-29.946-.576-10.538.057-36.77.057-36.77l-33.286 1.469Z"/><path fill="#fff" d="M55.098 107.239c.374-.029 3.57 3.455 5.816 5.96a4.446 4.446 0 0 0 5.299 1.008c5.557-2.793 9.646-5.672 14.944-9.934 0 0 3.196-5.355 5.586-7.285a49.947 49.947 0 0 1 2.016-1.583c.46-.346 1.123-.03 1.123.547 0 .316-.087.662-.346 1.036-.749 1.18-1.958 2.822-1.958 2.822s2.649 1.555.403 5.039c-.95 1.44-1.871 1.699-2.908 1.987-1.037.288-2.188 2.131-2.188 2.131s-9.186 14.454-17.507 16.585c-5.99 1.526-10.222-3.225-17.306-6.853l7.026-11.46Z"/><path fill="#0F182A" d="M63.103 126.272c-3.427 0-6.421-1.872-9.79-4.002-1.7-1.066-3.427-2.16-5.442-3.197-.116-.057-.173-.144-.23-.259-.03-.115-.03-.23.057-.345l7.054-11.46c.087-.116.202-.202.346-.202.317-.029.662-.058 6.162 6.104a3.992 3.992 0 0 0 4.809.893c5.758-2.908 9.79-5.816 14.8-9.819.403-.662 3.34-5.47 5.644-7.342a49.975 49.975 0 0 1 2.015-1.584c.346-.26.806-.317 1.21-.115.403.201.633.576.604 1.008 0 .431-.144.864-.403 1.267a50.045 50.045 0 0 1-1.728 2.505c.346.316.835.892 1.037 1.727.26 1.095-.029 2.304-.893 3.628-1.036 1.584-2.102 1.901-3.138 2.189-.634.173-1.526 1.296-1.93 1.929-.374.605-9.358 14.627-17.766 16.787-.863.202-1.64.288-2.418.288Zm-14.426-7.746c1.871.979 3.513 2.016 5.096 2.995 4.118 2.591 7.372 4.636 11.49 3.599 8.062-2.073 17.16-16.269 17.247-16.413.115-.201 1.267-1.986 2.448-2.303 1.007-.288 1.814-.49 2.649-1.814.72-1.094.979-2.073.777-2.937-.23-1.008-1.037-1.497-1.037-1.497-.115-.058-.172-.173-.201-.288-.029-.115 0-.23.086-.346 0-.029 1.21-1.641 1.958-2.793.173-.26.26-.547.26-.806a.238.238 0 0 0-.145-.23.27.27 0 0 0-.287.028c-.432.317-1.037.835-1.987 1.584-2.304 1.872-5.442 7.112-5.5 7.17a.408.408 0 0 1-.086.115c-4.953 3.974-9.186 7.054-15.002 9.992-1.958.979-4.377.547-5.816-1.095-3.542-3.973-4.867-5.24-5.356-5.643l-6.594 10.682Z"/><path fill="#5479F7" d="M5.773 120.715s-4.002-18.889 12.468-24.418c10.107-3.398 22.575-2.591 27.73.26 7.37 4.088 12.122 11.92 12.122 11.92l-8.639 12.238s1.9 31.385.403 39.678c0 0-9.3 1.094-13.245-.461-3.945-1.554-16.902-3.714-23.093-.892l1.123-39.736-8.869 1.411Z"/><path fill="#0F182A" d="M43.321 161.171c-2.476 0-5.125-.202-6.853-.864-4.06-1.613-16.873-3.6-22.747-.893a.459.459 0 0 1-.432-.029.49.49 0 0 1-.202-.374l1.123-39.218-8.379 1.325a.442.442 0 0 1-.49-.346c-.028-.201-1.007-4.866.058-10.308.98-5.068 4.002-11.69 12.698-14.627 10.28-3.456 22.834-2.62 28.103.287 7.372 4.089 12.238 12.008 12.267 12.094.086.144.086.346-.029.461l-8.552 12.122c.173 2.649 1.843 31.587.374 39.621a.428.428 0 0 1-.374.345c-.201.058-3.254.404-6.565.404Zm-21.365-3.945c5.903 0 12.266 1.296 14.829 2.303 3.398 1.325 11.028.634 12.698.49 1.382-8.61-.432-38.93-.46-39.247 0-.086.028-.201.086-.288l8.465-12.007c-.864-1.324-5.355-7.947-11.805-11.546-5.01-2.793-17.478-3.57-27.384-.23-6.68 2.245-10.769 6.939-12.122 13.964-.864 4.377-.346 8.322-.115 9.56l8.465-1.353c.115-.029.26.029.346.115a.477.477 0 0 1 .144.346l-1.095 39.073c2.16-.863 5.01-1.18 7.948-1.18Z"/><path fill="#0F182A" d="M18.385 154.548a.458.458 0 0 1-.432-.346c-.028-.23.116-.46.346-.489 14.685-2.592 18.947-12.727 18.975-12.842.087-.231.346-.317.576-.231.23.087.317.346.23.576-.028.115-4.491 10.683-19.637 13.361 0-.029-.029-.029-.058-.029Z"/><path fill="#99B9FF" d="M53.86 139.114H34.942l6.767-23.755h18.917l-6.766 23.755Z"/><path fill="#0F182A" d="M53.86 139.546H34.942a.409.409 0 0 1-.346-.173c-.086-.115-.115-.259-.057-.374l6.766-23.726c.058-.173.23-.317.404-.317h18.917c.144 0 .26.057.346.173.086.115.115.259.057.374l-6.766 23.726c-.029.173-.202.317-.403.317Zm-18.342-.864h18.025l6.507-22.862H42.025l-6.507 22.862Z"/><path fill="#fff" d="M53.6 116.856h-6.939l1.066-3.657h6.795c.144 0 .26.144.23.288l-.892 3.168c-.058.115-.144.201-.26.201Z"/><path fill="#0F182A" d="M53.6 117.288h-6.939a.409.409 0 0 1-.345-.173c-.087-.115-.116-.259-.058-.374l1.037-3.628c.057-.173.23-.317.403-.317h6.795c.202 0 .403.087.518.259.116.173.173.375.116.576l-.893 3.168c-.058.288-.317.489-.634.489Zm-6.334-.864h6.22l.777-2.764h-6.22l-.777 2.764Z"/><path fill="#fff" d="m7.443 120.484 9.272-1.641.98 4.348c.345 1.526 1.583 2.707 3.138 2.937 2.994.49 8.408.374 13.044-1.181 1.18-.403 4.06-1.468 3.973-5.096-.058-2.448 2.592-.173 2.102 1.756-.576 2.275-.288 2.275 2.85 2.534 1.412.115 4.377-.835 4.953 0 .576.835-.979 3.139-3.282 3.974-3.196 1.18-6.076-.115-7.055.317-3.254 1.41-5.672 2.764-8.293 3.772-5.01 1.871-9.387 2.85-12.122 3.541-2.707.72-5.47-.892-6.248-3.57l-3.312-11.691Z"/><path fill="#0F182A" d="M15.707 136.379c-2.447 0-4.693-1.613-5.384-4.06l-3.312-11.72c-.028-.115-.028-.23.058-.345.058-.115.173-.173.288-.202l9.272-1.641c.23-.029.46.115.49.317l.978 4.348a3.412 3.412 0 0 0 2.764 2.62c3.053.49 8.35.317 12.814-1.152 1.612-.547 3.743-1.612 3.686-4.693-.03-.72.172-1.21.604-1.411.374-.173.835-.086 1.296.288.749.605 1.353 1.843 1.094 2.994-.144.634-.317 1.325-.173 1.527.202.259 1.152.345 2.592.46h.057c.49.029 1.21-.057 1.9-.172 1.47-.202 2.851-.404 3.34.345.145.23.289.634.087 1.267-.345 1.123-1.727 2.678-3.57 3.369-2.102.777-4.031.547-5.471.374-.691-.086-1.325-.173-1.584-.057a96.558 96.558 0 0 0-3.772 1.756c-1.555.749-3.023 1.44-4.55 2.016-4.174 1.555-7.889 2.505-10.624 3.167-.547.144-1.066.259-1.526.403a4.283 4.283 0 0 1-1.354.202ZM7.99 120.83l3.168 11.258c.69 2.448 3.254 3.916 5.701 3.283.46-.115.979-.259 1.555-.403 2.706-.691 6.392-1.613 10.539-3.139 1.497-.547 2.937-1.238 4.463-1.987 1.18-.575 2.418-1.151 3.8-1.756.49-.202 1.123-.115 2.016 0 1.325.173 3.139.403 5.04-.317 1.525-.576 2.763-1.871 3.051-2.822.087-.288.058-.46.03-.518-.203-.288-1.7-.086-2.535.029-.777.115-1.526.201-2.102.173h-.057c-1.93-.144-2.793-.231-3.225-.835-.375-.519-.23-1.267.029-2.246.172-.72-.202-1.555-.692-2.016-.259-.23-.431-.288-.46-.259-.03.029-.115.173-.115.605.057 2.706-1.383 4.578-4.262 5.528-4.607 1.526-10.078 1.699-13.245 1.209-1.728-.287-3.11-1.554-3.485-3.282l-.892-3.945-8.322 1.44Z"/><path fill="#fff" d="m35.057 93.706-.317-3.139c.029-.374.288-.72.634-.806l2.735-.749a.83.83 0 0 0 .605-.777v-3.34l1.123-.864c.086-.058.115-.202.029-.288l-1.555-2.13c-.49-.807-.922-2.65-1.382-2.564 0 0-10.05-2.102-10.798 2.65-.115.69.057 1.382.432 1.986l.777 1.239c.778 1.238.95 6.766.605 8.033-.202.72-.634 1.353-1.267 1.757-.778.518-1.728 1.18-1.584 1.238 0 0 1.008.835 2.62 1.612 2.88 1.382 6.738.173 9.474-1.497 0 .029-2.189-1.555-2.131-2.361Z"/><path fill="#0F182A" d="M30.565 98.6c-1.065 0-2.102-.2-3.023-.633-1.641-.806-2.678-1.641-2.707-1.67a.598.598 0 0 1-.173-.288c-.028-.288-.057-.403 1.786-1.641a2.735 2.735 0 0 0 1.094-1.497c.345-1.239.115-6.623-.547-7.688l-.778-1.239a3.367 3.367 0 0 1-.49-2.274c.145-.95.663-1.728 1.47-2.304 2.879-1.987 9.012-.864 9.76-.72.576-.028.864.72 1.239 1.642.172.403.345.835.49 1.123l1.525 2.102a.628.628 0 0 1-.115.863l-.95.72v3.11c0 .547-.374 1.065-.893 1.21l-2.764.748c-.173.058-.317.202-.317.403l.317 3.081v.087c-.029.287.922 1.266 1.93 1.986.114.087.172.23.172.375a.4.4 0 0 1-.202.345c-1.9 1.18-4.434 2.16-6.824 2.16Zm-4.837-2.706c.432.288 1.18.806 2.16 1.296 2.533 1.238 5.96.259 8.494-1.152-.778-.605-1.786-1.555-1.786-2.332l-.316-3.081v-.058c.029-.576.403-1.065.95-1.21l2.764-.748a.398.398 0 0 0 .288-.374v-3.34a.41.41 0 0 1 .173-.346l.95-.72-1.41-1.929s0-.029-.03-.029a8.724 8.724 0 0 1-.576-1.267c-.144-.374-.374-.921-.489-1.094h-.029c-.057 0-6.45-1.324-9.185.547-.634.432-1.008 1.008-1.123 1.728a2.33 2.33 0 0 0 .374 1.67l.778 1.238c.863 1.382 1.007 7.055.662 8.38-.23.806-.72 1.525-1.44 1.986-.633.432-1.008.691-1.21.835Z"/><path fill="#0F182A" d="M37.706 71.85c-2.16-.23.432 2.132-7.429-.633-3.138-1.123-1.727 2.707-2.533 2.42-2.995-1.066-2.909-1.009-4.406-.72-1.008.2-1.756 1.986-1.641 3.368.144 1.814 2.015 4.809 3.628 7.919.835 1.612 2.505 1.871 4.665-.346.23-.23-.778-1.756-.173-2.361 1.583-1.555 2.102.979 3.34.288 1.21-.662 1.699-1.094 2.995-2.13 1.554-1.239 3.916.978 4.952-1.959.547-1.526-.46-5.5-3.398-5.845Z"/><path fill="#fff" d="M145.368 6.545c-8.178 4.752-12.238 14.714-9.243 24.101 1.353 4.262 4.002 7.775 7.313 10.251.087.058.173.144.288.202l1.757 1.151a20.585 20.585 0 0 0 16.585 1.757c10.856-3.484 17.018-16.298 13.361-25.944-2.851-7.515-6.047-10.337-11.95-12.9-9.041-3.944-18.111 1.382-18.111 1.382Z"/><path fill="#5479F7" d="M155.302 36.06c-5.27-.03-10.28.662-14.801 1.9.893.979 1.901 1.872 2.937 2.678.087.057.173.144.288.201l1.757 1.152c4.866 2.793 10.539 3.6 16.297 1.757 3.341-1.066 6.22-3.024 8.524-5.471-4.665-1.411-9.56-2.189-15.002-2.217Z"/><path fill="#0F182A" d="M155.532 45.158c-3.542 0-7.026-.95-10.28-2.821l-1.785-1.152c-.115-.058-.202-.144-.288-.202a20.919 20.919 0 0 1-3.023-2.735.358.358 0 0 1-.087-.403.37.37 0 0 1 .288-.288c4.723-1.296 9.733-1.93 14.916-1.93 5.269.03 10.193.75 15.117 2.218a.37.37 0 0 1 .288.288.428.428 0 0 1-.116.403c-2.447 2.62-5.442 4.55-8.695 5.586a20 20 0 0 1-6.335 1.036Zm-14.225-6.968a23.592 23.592 0 0 0 2.39 2.102l.26.173 1.756 1.152c4.981 2.85 10.481 3.455 15.923 1.727 2.88-.92 5.586-2.591 7.832-4.837-4.607-1.325-9.272-1.958-14.195-1.987-4.809-.057-9.531.518-13.966 1.67Zm27.614-15.405c-2.015-7.313-6.219-16.902-14.051-15.721-7.515 1.123-11.086 9.387-12.698 15.779-.979 3.887 1.986 7.688 5.989 7.688l14.742.086c4.089.03 7.113-3.887 6.018-7.832Z"/><path fill="#fff" d="M162.414 14.291v-.058l-13.389-.086v.029a9.997 9.997 0 0 0-.288 2.102l-.029 3.916c0 2.62 1.209 4.924 3.081 6.277l-.058 10.222a3.712 3.712 0 0 0 3.657 3.715 3.712 3.712 0 0 0 3.715-3.657l.057-10.078c2.016-1.296 3.34-3.686 3.369-6.393l.029-4.405a9.03 9.03 0 0 0-.144-1.584Z"/><path fill="#0F182A" d="M155.446 40.84c-.029 0-.029 0 0 0-2.304 0-4.118-1.872-4.118-4.147l.058-9.934c0-.23.201-.432.432-.432.23 0 .432.202.432.432l-.058 9.934c0 .864.317 1.699.95 2.304.605.604 1.44.95 2.304.95h.029c1.785 0 3.253-1.44 3.253-3.225l.058-9.963c0-.23.201-.432.432-.432.23 0 .432.202.432.432l-.058 9.963c0 1.094-.432 2.13-1.209 2.908-.835.777-1.872 1.21-2.937 1.21Zm.201-17.508a3.18 3.18 0 0 1-2.275-.979.418.418 0 0 1 .029-.604.418.418 0 0 1 .605.029c.432.46 1.008.72 1.641.72.634 0 1.21-.26 1.641-.692a.446.446 0 0 1 .605-.028.445.445 0 0 1 .029.604 3.204 3.204 0 0 1-2.275.95Z"/><path fill="#0F182A" d="M155.618 28.141h-.028a.442.442 0 0 1-.432-.432c0-.23.201-.432.432-.432h.028c1.699 0 3.312-.72 4.55-2.044 1.238-1.325 1.929-3.11 1.929-5.01l.029-4.406c0-1.814-.634-3.542-1.814-4.837-1.181-1.296-2.736-1.987-4.406-2.016h-.028c-1.786 0-3.456.749-4.723 2.102-1.295 1.382-1.986 3.225-2.015 5.183v3.945c-.029 2.764 1.468 5.298 3.772 6.45a.469.469 0 0 1 .201.576.469.469 0 0 1-.576.201c-2.591-1.296-4.261-4.146-4.261-7.227l.029-3.916c0-2.188.806-4.233 2.246-5.759 1.439-1.526 3.34-2.39 5.327-2.39h.028c1.901 0 3.686.835 5.039 2.304 1.325 1.468 2.045 3.397 2.045 5.442l-.029 4.405a8.216 8.216 0 0 1-2.16 5.586c-1.382 1.469-3.225 2.275-5.183 2.275Z"/><path fill="#99B9FF" d="M166.359 59.556a1.82 1.82 0 0 1-2.275-1.238L160.11 44.38l3.513-1.037 3.974 13.937a1.832 1.832 0 0 1-1.238 2.275Z"/><path fill="#0F182A" d="M165.84 60.074c-.374 0-.748-.086-1.094-.288a2.33 2.33 0 0 1-1.094-1.353l-3.974-13.937a.457.457 0 0 1 .288-.547l3.513-1.036c.115-.03.23-.03.317.028a.364.364 0 0 1 .201.26l3.974 13.936a2.279 2.279 0 0 1-1.555 2.822 1.564 1.564 0 0 1-.576.115Zm-5.183-15.434 3.859 13.533a1.388 1.388 0 0 0 1.727.95 1.408 1.408 0 0 0 .951-1.756l-3.859-13.533-2.678.806Z"/><path fill="#99B9FF" d="M163.825 1.938C151.53-2.553 137.91 3.868 133.39 16.25c-4.521 12.382 1.756 26.088 14.051 30.55 12.266 4.493 25.886-1.928 30.407-14.339 4.521-12.381-1.757-26.058-14.023-30.522Zm-15.146 41.464c-10.394-3.8-15.75-15.405-11.892-25.886 3.83-10.51 15.376-15.952 25.8-12.151 10.395 3.8 15.75 15.405 11.892 25.886-3.83 10.51-15.376 15.952-25.8 12.151Z"/><path fill="#0F182A" d="M155.504 48.672c-2.765 0-5.529-.49-8.207-1.47-12.497-4.548-18.889-18.514-14.311-31.097 2.218-6.104 6.681-10.97 12.526-13.735 5.845-2.764 12.41-3.052 18.457-.864 6.047 2.218 10.855 6.652 13.562 12.526 2.707 5.874 2.966 12.468.749 18.572-2.217 6.105-6.68 10.97-12.526 13.735-3.282 1.555-6.766 2.333-10.25 2.333ZM155.763.93c-3.369 0-6.738.748-9.877 2.217-5.643 2.649-9.934 7.371-12.093 13.245-4.435 12.151 1.756 25.598 13.792 30.004 5.817 2.13 12.151 1.843 17.795-.835 5.644-2.65 9.934-7.372 12.094-13.246a23.287 23.287 0 0 0-.72-17.91 22.968 22.968 0 0 0-13.073-12.093A23.637 23.637 0 0 0 155.763.93Zm-.259 44.112a20.1 20.1 0 0 1-6.969-1.238c-5.154-1.871-9.243-5.672-11.546-10.654-2.304-5.01-2.505-10.596-.634-15.808 1.901-5.183 5.673-9.329 10.654-11.69 4.982-2.332 10.539-2.592 15.693-.72s9.243 5.672 11.547 10.654c2.303 5.01 2.505 10.596.633 15.808-1.9 5.183-5.672 9.33-10.654 11.69a20.516 20.516 0 0 1-8.724 1.958Zm.23-40.484c-2.851 0-5.673.633-8.35 1.871-4.78 2.246-8.38 6.22-10.194 11.201-1.814 4.982-1.612 10.337.605 15.146 2.188 4.78 6.133 8.408 11.057 10.222 4.924 1.785 10.251 1.555 15.031-.691 4.779-2.246 8.379-6.22 10.193-11.201 1.814-4.981 1.612-10.337-.605-15.146-2.188-4.78-6.133-8.408-11.057-10.222a19.793 19.793 0 0 0-6.68-1.18Zm62.714 183.852s3.829 4.492 3.772 7.573l.144 1.18 6.968-7.169-1.065-.346c-1.699-1.008-3.485-1.584-4.521-3.254l-5.298 2.016Z"/><path fill="#fff" d="m220.838 194.514.202 1.44a17.866 17.866 0 0 1-.864 8.523l-.749 2.102a.743.743 0 0 0 .087.605l.057.086c.72.979 3.599 1.67 7.026-.979 2.131-1.641 6.364-6.104 9.013-13.591.172-.461 0-1.008-.404-1.296-1.468-1.094-5.096-3.541-7.803-3.685-.288-.029-.547.23-.547.518l.144 2.908c.058 1.296-.921 2.419-2.246 2.477l-3.311.172a.624.624 0 0 0-.605.72Z"/><path fill="#0F182A" d="M221.903 208.566c-.287 0-.518-.029-.719-.058-.893-.115-1.613-.489-1.958-1.008l-.058-.086a1.086 1.086 0 0 1-.144-.979l.749-2.102a17.766 17.766 0 0 0 .864-8.321l-.202-1.44a1.313 1.313 0 0 1 .23-.864c.202-.23.49-.374.807-.403l3.311-.173a1.933 1.933 0 0 0 1.324-.633c.346-.375.519-.864.49-1.382l-.144-2.909c0-.259.086-.518.259-.72.202-.201.461-.287.72-.287 2.822.143 6.565 2.677 8.034 3.772.547.403.777 1.123.547 1.785-3.081 8.782-8.149 13.015-9.157 13.792-2.073 1.67-3.801 2.016-4.953 2.016Zm5.471-20.444c-.028 0-.057.029-.057.029-.029.029-.029.029-.029.057l.144 2.909c.029.748-.202 1.468-.72 2.015-.489.547-1.18.864-1.929.922l-3.311.172c-.087 0-.144.058-.173.087-.029.028-.058.086-.058.172l.202 1.44c.403 2.937.115 5.932-.893 8.725l-.749 2.102c-.028.057 0 .144.029.201l.058.087c.173.23.633.547 1.382.633.893.115 2.707.058 5.039-1.727.95-.749 5.845-4.838 8.869-13.39a.683.683 0 0 0-.26-.806c-1.382-1.065-4.923-3.484-7.544-3.628Z"/><path fill="#0F182A" d="M219.744 206.262c-.144 0-.317-.086-.374-.23-.116-.202-.029-.461.201-.576l.432-.23a9.276 9.276 0 0 0 4.665-5.586l.259-.864a.994.994 0 0 1 .835-.691c.403-.058.749.144.95.489l.432.749c.058.086.115.086.144.086.029 0 .115 0 .173-.057 2.015-2.304 3.484-4.953 4.405-7.89l.519-1.699c.057-.23.316-.345.547-.288.23.058.345.317.288.547l-.519 1.699a22.874 22.874 0 0 1-4.578 8.207 1.1 1.1 0 0 1-.893.374 1.094 1.094 0 0 1-.835-.518l-.431-.749c-.029-.058-.087-.058-.116-.058-.028 0-.086.029-.086.087l-.259.864a10.052 10.052 0 0 1-5.097 6.104l-.432.23c-.086-.028-.172 0-.23 0Zm-29.975-6.046s.547 4.607-1.296 6.881l-.576.951 8.984-.749-.461-.979c-.835-1.728-1.497-4.521-1.411-6.364l-5.24.26Z"/><path fill="#fff" d="m188.675 204.074-.864.95a15.963 15.963 0 0 1-6.306 4.233l-1.843.662a.5.5 0 0 0-.345.403l-.029.087c-.259 1.036.892 3.397 4.664 4.261 2.275.519 7.487.893 13.822-1.324a1.785 1.785 0 0 0 1.18-1.814c-.144-1.843-.576-5.126-1.871-6.825a.464.464 0 0 0-.663-.057c-.432.403-1.209 1.094-1.9 1.756a2.096 2.096 0 0 1-2.966-.144l-1.987-2.188c-.259-.259-.662-.259-.892 0Z"/><path fill="#0F182A" d="M187.983 215.477c-2.217 0-3.714-.288-4.203-.404-2.822-.633-4.06-2.044-4.55-2.821-.432-.691-.576-1.411-.432-1.958l.029-.087c.086-.317.317-.576.633-.691l1.843-.662a15.304 15.304 0 0 0 6.133-4.118l.864-.95c.202-.202.461-.345.749-.345s.576.115.749.345l1.986 2.188c.288.317.72.519 1.152.548a1.63 1.63 0 0 0 1.181-.432l1.9-1.757a.82.82 0 0 1 .662-.23.876.876 0 0 1 .605.345c1.353 1.814 1.814 5.183 1.958 7.055a2.16 2.16 0 0 1-1.468 2.246c-3.859 1.382-7.285 1.728-9.791 1.728Zm1.008-11.115-.864.95a16.832 16.832 0 0 1-6.478 4.348l-1.843.662c-.029.029-.086.058-.086.087l-.029.086c-.058.259 0 .72.345 1.296.403.662 1.469 1.871 4.003 2.447 1.007.231 6.334 1.21 13.591-1.324.575-.202.921-.749.892-1.354-.144-1.756-.547-4.981-1.785-6.593l-1.9 1.756a2.492 2.492 0 0 1-1.815.662 2.565 2.565 0 0 1-1.756-.806l-1.987-2.188c-.029-.058-.086-.058-.115-.058-.086-.029-.144 0-.173.029Z"/><path fill="#0F182A" d="M189.625 212.165h-.519c-.316 0-.604-.173-.806-.432-.173-.259-.23-.604-.115-.892l.259-.72v-.058c-.029-.029-.057-.029-.057 0l-.72.317a9.103 9.103 0 0 1-7.112-.029l-.404-.173c-.23-.086-.316-.345-.23-.576.086-.23.346-.316.576-.23l.403.173a8.152 8.152 0 0 0 6.421.029l.72-.317c.346-.144.72-.086.979.173a.948.948 0 0 1 .23.979l-.259.72c-.029.057 0 .086.029.115.029.029.058.057.115.057a19.843 19.843 0 0 0 7.861-1.439l1.44-.605c.23-.086.46.029.576.23.086.231-.029.461-.231.576l-1.439.605c-2.506.979-5.068 1.497-7.717 1.497Z"/><path fill="#5479F7" d="M203.59 123.968s4.003 11.892-1.929 20.617c-7.976 11.748-2.39 38.124-6.018 56.091a.74.74 0 0 1-.72.605l-5.068.115c-.345 0-.633-.201-.719-.547-1.325-4.405-10.395-34.985-9.848-44.919.461-8.206 1.756-16.384 5.096-23.899l5.212-11.719 13.994 3.656Z"/><path fill="#5479F7" d="M207.65 125.005s5.097 8.206 3.6 17.248c-1.469 9.041 2.015 16.268 4.376 19.609 2.333 3.311 6.738 11.748 8.898 24.561a.958.958 0 0 1-.26.864 8.095 8.095 0 0 1-5.01 2.505 1.103 1.103 0 0 1-.835-.288c-2.246-2.246-15.203-15.52-20.185-26.404-5.47-11.921-7.601-32.192-7.601-32.192s11.834.547 17.017-5.903Z"/><path fill="#99B9FF" d="M197.515 163.071a.45.45 0 0 1-.403-.259c-4.377-10.856-6.076-24.994-4.867-30.925a.475.475 0 0 1 .519-.346c.23.058.374.288.345.519-1.18 5.787.634 20.04 4.838 30.435.086.23-.029.461-.231.576h-.201Z"/><path fill="#fff" d="M168.403 62.406c.403-.086.749-.374.95-.72.691-1.238 2.073-4.232 1.296-6.565-1.037-3.023-3.916-5.125-4.521-4.607-.604.519 2.649 6.45.144 8.293 0 0-1.641-.086-3.11-2.591a.539.539 0 0 0-.921 0c-.288.49-.518 1.295-.346 2.591.231 1.641 1.21 3.081 1.901 3.887.345.432.921.605 1.468.49l3.139-.778Z"/><path fill="#0F182A" d="M164.862 63.645c-.548 0-1.095-.23-1.44-.692-.778-.921-1.757-2.39-1.987-4.088-.173-1.152-.029-2.131.403-2.851a.994.994 0 0 1 .835-.49c.346 0 .662.173.835.49 1.066 1.843 2.217 2.246 2.621 2.361 1.238-1.123.431-3.887-.116-5.759-.403-1.382-.604-2.073-.172-2.418.144-.116.431-.26.921-.116 1.181.346 3.398 2.275 4.319 4.924.864 2.505-.633 5.673-1.324 6.91-.26.49-.72.836-1.239.951l-3.167.749c-.173 0-.345.029-.489.029Zm-2.189-7.257c-.029 0-.057 0-.086.058-.231.403-.461 1.094-.288 2.303.23 1.584 1.209 2.966 1.785 3.657.259.317.634.432 1.037.346l3.167-.749a1.05 1.05 0 0 0 .691-.518c.634-1.152 2.016-4.031 1.267-6.22-.893-2.591-3.081-4.261-3.772-4.376.029.316.23.95.374 1.497.634 2.13 1.584 5.384-.345 6.795l-.115.087h-.144c-.087 0-1.901-.115-3.456-2.793-.057-.087-.086-.087-.115-.087Z"/><path fill="#fff" d="M177.3 127.683c-1.295-.72-9.271-5.5-10.682-13.389-.029-.087-.116-.144-.202-.116-1.555.461-12.986 3.571-23.093-3.369-.115-.086-.259 0-.259.144.086 1.095 3.628 14.628 3.657 15.261 0 .058.029.116.086.144 1.123.547 12.9 6.134 22.546 5.039 5.068-.576 7.429-2.822 7.976-3.426.086-.115.058-.231-.029-.288Z"/><path fill="#0F182A" d="M166.704 131.944c-9.099 0-18.918-4.635-20.098-5.24-.202-.087-.317-.288-.346-.49-.028-.288-.748-3.138-1.439-5.902-1.267-5.097-2.189-8.725-2.218-9.359a.546.546 0 0 1 .288-.547.567.567 0 0 1 .634.029c10.02 6.882 21.452 3.715 22.719 3.311a.583.583 0 0 1 .489.058c.144.086.259.23.288.403 1.353 7.602 8.955 12.238 10.452 13.073.173.086.259.23.288.432a.59.59 0 0 1-.144.489c-.633.691-3.081 2.966-8.264 3.571-.835.144-1.756.172-2.649.172Zm-19.58-5.931c1.785.864 12.958 5.989 22.172 4.924 4.376-.49 6.651-2.246 7.486-3.053-2.044-1.209-9.041-5.816-10.538-13.216-2.189.605-12.987 3.138-22.661-3.167.316 1.554 1.324 5.557 2.101 8.609.893 3.599 1.325 5.327 1.44 5.903Z"/><path fill="#5479F7" d="M164.228 127.856a.462.462 0 0 1-.259-.087c-.288-.201-7.026-5.298-7.227-10.481 0-.23.172-.432.403-.461.23 0 .432.173.461.404.172 4.779 6.795 9.761 6.881 9.818.202.144.231.404.087.605-.087.115-.202.202-.346.202Zm-4.837.259c-.116 0-.231-.029-.288-.115-.202-.202-4.982-4.924-5.298-10.078-.029-.231.172-.432.403-.461.23-.029.432.173.46.403.317 4.837 4.982 9.473 5.039 9.502a.418.418 0 0 1 0 .605c-.115.086-.201.144-.316.144Zm-11-9.128a.448.448 0 0 1-.374-.23c-.029-.058-.979-1.786-1.066-2.966-.028-.231.173-.432.404-.461.23-.029.432.173.46.403.058.835.72 2.16.951 2.621.115.201.028.46-.173.575-.058.058-.144.058-.202.058Z"/><path fill="#fff" d="M175.314 124.832s-8.61 1.469-10.884.432c-2.275-1.036-2.16-2.563-1.267-3.254.691-.547 5.298-.604 7.313-.576.173 0 .202-.23.058-.259-1.181-.403-3.052-2.332-2.505-2.937.864-.921 2.275.72 3.858 1.152 1.958.518 3.341.317 3.341.317l.086 5.125Z"/><path fill="#0F182A" d="M167.28 126.07c-1.267 0-2.39-.115-3.052-.403-1.67-.777-2.044-1.756-2.102-2.275-.086-.662.202-1.295.749-1.727.547-.432 2.706-.662 6.45-.691-.836-.605-1.642-1.498-1.815-2.189-.115-.46.058-.748.173-.863.778-.835 1.814-.231 2.736.288.518.287 1.036.604 1.555.719 1.842.49 3.167.317 3.167.317l.489-.057.116 6.018-.375.057c-.259.058-4.722.806-8.091.806Zm2.592-4.232c-4.579 0-6.22.316-6.45.489-.317.259-.461.605-.432.95.057.576.633 1.152 1.612 1.584 1.67.777 7.66.029 10.28-.403l-.087-4.319c-.604.029-1.698 0-3.052-.375-.633-.172-1.238-.518-1.756-.806-.893-.518-1.382-.748-1.641-.461-.029.375 1.238 1.872 2.303 2.246a.552.552 0 0 1 .374.634.585.585 0 0 1-.575.489c-.202-.028-.375-.028-.576-.028Zm26.548-39.909c-6.392-.576-14.887-3.37-19.523-8.149-2.764-2.85-4.866-7.774-6.853-12.67l-6.824 1.584s1.21 32.451 30.004 34.093l3.196-14.858Z"/><path fill="#0F182A" d="M188.79 100.386c1.267 2.793 3.858 10.74-1.325 22.2 0 0 7.371 12.382 24.619 9.877 0 0-2.62-6.969-1.814-17.536s3.686-25.051-5.298-30.176c0 0-8.638-5.356-14.368-1.67a5.773 5.773 0 0 0-2.102 2.447 16.682 16.682 0 0 0-.979 11.201l.172.662c.288 1.008.634 2.016 1.095 2.995Z"/><path fill="#0F182A" d="m174.421 118.44.144 7.573s27.816 6.968 36.54-28.276l-13.303-.144c-.028 0-4.002 15.376-23.381 20.847Z"/><path fill="#fff" d="M195.009 123.536a.49.49 0 0 1-.374-.201.46.46 0 0 1 .144-.605c6.363-3.801 10.683-8.724 13.562-15.52.086-.23.345-.317.576-.23.23.086.317.345.23.576-2.966 6.968-7.371 12.036-13.907 15.923-.087.029-.144.057-.231.057Zm-7.486-24.532a.432.432 0 0 1-.403-.288c-1.555-4.751.115-7.746.201-7.89a.423.423 0 0 1 .605-.144c.201.115.288.375.144.576-.029.029-1.555 2.793-.115 7.17.086.23-.058.46-.288.547-.058.029-.115.029-.144.029Z"/><path fill="#0F182A" d="M197.6 64.854c.029-.605.346-1.152.835-1.526 1.44-1.066 4.665-2.909 8.235-1.21 5.01 2.39 5.874 5.471 5.097 9.906-.547 3.11-3.369 6.939-5.845 7.227-3.6.403-5.356-2.534-5.356-2.534l-2.995-10.884.029-.98Z"/><path fill="#0F182A" d="m210.759 68.741-.605-3.6s3.456-2.015 6.767-.95c3.369 1.095 6.594 5.299 4.809 11.46-.922 3.197 1.382 5.328 3.369 8.236.432.633.863 1.267 1.353 1.814 3.887 4.261 2.044 8.437 2.044 8.437-.316-.893-.633-1.498-1.123-2.16-.345 5.759-5.499 10.308-10.999 10.51-5.183.173-10.625-4.348-11.172-8.523-.519-4.06 1.497-9.387 4.146-13.246 2.649-3.858 7.4-8.868 1.411-11.978Z"/><path fill="#fff" d="M212.17 102.517c-.058 0-.115 0-.144-.029-3.916-1.497-7.083-4.924-7.515-8.178-.144-1.008-.116-2.13.057-3.311a.447.447 0 0 1 .49-.374c.23.028.403.259.374.49-.144 1.122-.173 2.159-.058 3.08.375 2.908 3.369 6.133 6.94 7.487.23.086.345.345.259.547a.433.433 0 0 1-.403.288Zm-14.08-37.692s-1.209 1.584-1.353 3.052c-.087 1.094-1.325 2.102-2.045 2.448a.33.33 0 0 0-.115.518l.518.547c.173.202.259.518.173.778-.288.95-.893 3.138-.691 3.8.346 1.123 3.513 1.239 4.175 1.296.058 0-1.353 4.78-1.353 4.78-.432 1.18-.461 2.102.029 2.966.892 1.67 4.204 2.793 6.018 2.073.316-.144.95-.864 1.094-1.296.259-.921.806-6.363.806-6.363s-1.296-.461-2.102-2.275c-.72-1.555-.806-3.34-.345-3.715 1.065-.892 1.9-1.813 1.324-2.994-.576-1.152-1.699-.835-2.275-.49-.806.461-3.109-.892-3.455-3.167-.374-2.303-.403-1.958-.403-1.958Z"/><path fill="#0F182A" d="M202.15 87.745c-1.958 0-4.319-1.065-5.097-2.505-.518-.979-.518-2.015-.057-3.34.403-1.325.979-3.34 1.238-4.233-1.785-.144-3.715-.46-4.06-1.555-.23-.777.345-2.879.691-4.06a.459.459 0 0 0-.086-.374l-.519-.547a.721.721 0 0 1-.172-.662.867.867 0 0 1 .403-.547c.576-.288 1.727-1.21 1.785-2.102.115-1.354 1.065-2.765 1.353-3.168v-.259l.403-.029c.403-.029.461.346.519.663.057.316.144.892.288 1.67.201 1.295 1.123 2.274 1.958 2.677.431.202.748.23.863.173.288-.172 1.066-.518 1.814-.288.461.144.835.461 1.066.98.835 1.67-.691 2.936-1.44 3.541-.201.202-.23 1.67.461 3.196.72 1.584 1.814 2.016 1.871 2.045l.317.115-.029.317c-.057.575-.547 5.528-.806 6.45-.173.546-.892 1.41-1.353 1.583-.375.173-.893.26-1.411.26Zm-7.112-17.132.432.46c.288.346.403.778.259 1.21-.519 1.67-.806 3.167-.691 3.57.057.23.547.778 3.628.98l.374.028.115.173c.144.23.173.23-1.295 5.154-.404 1.123-.404 1.9 0 2.649.777 1.468 3.858 2.534 5.47 1.872.173-.058.749-.663.835-1.037.202-.662.576-4.29.749-5.99-.489-.258-1.411-.92-2.044-2.332-.72-1.554-.979-3.627-.231-4.232 1.267-1.037 1.584-1.7 1.21-2.477-.144-.288-.317-.46-.547-.518-.461-.144-.979.115-1.123.202-.403.23-1.008.172-1.67-.144-.951-.46-2.189-1.641-2.448-3.34-.057-.346-.115-.663-.144-.893-.317.547-.633 1.267-.691 1.958-.144 1.21-1.353 2.275-2.188 2.707Z"/><path fill="#0F182A" d="M201.977 74.01a1.88 1.88 0 0 1-1.123-.374c-.201-.144-.259-.403-.115-.605.144-.201.403-.259.605-.115.777.547 1.584-.086 2.131-.69.172-.174.432-.202.604-.03.173.173.202.432.029.605-.691.806-1.44 1.21-2.131 1.21ZM96.85 30.877a.443.443 0 0 1-.432-.432v-1.18c0-.231.201-.433.432-.433.23 0 .432.202.432.432v1.18a.425.425 0 0 1-.432.433Zm-.029 5.673a.443.443 0 0 1-.432-.433v-1.18c0-.23.202-.432.432-.432.23 0 .432.201.432.432v1.18c0 .26-.202.432-.432.432Zm-3.398-3.399a.443.443 0 0 1-.432-.432c0-.23.202-.431.432-.431h1.18c.26 0 .433.201.433.431 0 .23-.202.432-.432.432h-1.18Zm5.673-.028a.443.443 0 0 1-.432-.432c0-.23.201-.432.431-.432h1.181c.23 0 .432.201.432.432 0 .23-.202.432-.432.432h-1.18ZM84.122 23.563a.433.433 0 0 1-.317-.115l-.835-.835a.417.417 0 0 1 0-.605.418.418 0 0 1 .605 0l.835.835a.417.417 0 0 1 0 .605c-.086.057-.173.115-.288.115Zm4.003 4.031a.433.433 0 0 1-.317-.115l-.835-.835a.418.418 0 0 1 0-.605.417.417 0 0 1 .605 0l.834.835a.417.417 0 0 1-.287.72Zm-4.838 0a.417.417 0 0 1-.317-.72l.835-.835a.417.417 0 0 1 .605 0 .417.417 0 0 1 0 .605l-.835.835c-.058.086-.173.115-.288.115Zm4.003-4.031a.418.418 0 0 1-.317-.72l.835-.835a.418.418 0 0 1 .604 0 .417.417 0 0 1 0 .605l-.835.835c-.086.057-.201.115-.287.115Z"/><path fill="#CADDFF" d="M224.206 15.097c1.24 0 2.246-1.018 2.246-2.274 0-1.257-1.006-2.275-2.246-2.275s-2.246 1.018-2.246 2.275c0 1.256 1.006 2.274 2.246 2.274Z"/></g><defs><clipPath id="a"><path fill="#fff" d="M0 0h240v240H0z"/></clipPath></defs></svg>