<svg xmlns="http://www.w3.org/2000/svg" width="112" height="112" fill="none" viewBox="0 0 112 112"><rect width="112" height="112" fill="#14161A" rx="16"/><g fill="#fff" clip-path="url(#a)"><path d="M27.385 47h-8.498a8.7 8.7 0 0 0-6.057 2.435 8.19 8.19 0 0 0-2.509 5.877 8.19 8.19 0 0 0 2.509 5.878 8.7 8.7 0 0 0 6.057 2.435h1.799V66h4.894v-2.375h1.8a8.698 8.698 0 0 0 4.49-1.39l3.72-8.223a8.25 8.25 0 0 0-2.8-4.941A8.712 8.712 0 0 0 27.386 47Zm-6.73 11.875h-1.523a3.728 3.728 0 0 1-2.596-1.043 3.51 3.51 0 0 1-1.076-2.52 3.51 3.51 0 0 1 1.076-2.519 3.728 3.728 0 0 1 2.596-1.043h1.548l-.025 7.125Zm6.449 0h-1.517V51.75h1.547c.483 0 .96.092 1.405.271.446.18.85.442 1.191.772.341.331.612.724.796 1.156a3.471 3.471 0 0 1 0 2.727 3.559 3.559 0 0 1-.796 1.156c-.34.33-.745.593-1.19.772a3.768 3.768 0 0 1-1.405.271h-.031ZM46.304 47h-5.476L32.34 66h5.25l1.052-2.375h7.648V66h4.895V47h-4.882Zm0 11.875h-5.507l3.157-7.125h2.343l.007 7.125ZM64.701 47l-1.615 3.616-1.566 3.503h-3.365V47h-4.913v19h4.913v-7.12h3.365l1.566 3.504L64.701 66h5.256l-4.246-9.5 2.117-4.738L69.914 47h-5.213ZM97.784 47l-.012.018-8.144 10.913V47H84.72v19h4.913l8.138-10.907V66h4.907V47h-4.895Z"/><path d="M84.764 47H69.896l-2.068 4.762h5.703V66h4.913V51.762h4.185L84.764 47Z"/></g><defs><clipPath id="a"><path fill="#fff" d="M10 47h93v19H10z"/></clipPath></defs></svg>