<svg width="112" height="112" viewBox="0 0 112 112" fill="none" xmlns="http://www.w3.org/2000/svg">
<rect width="112" height="112" rx="16" fill="#181716"/>
<path d="M61.9852 51.4259C61.9852 48.7407 62.0302 46.2407 62.1652 43.9259L55.2802 45.2685V45.9166L55.9552 46.0092C56.4502 46.0555 56.7652 46.2407 56.9452 46.5185C57.1252 46.8426 57.2602 47.3055 57.3502 48C57.4402 49.3426 57.5302 52.3981 57.4852 57.2129C57.4852 61.9815 57.4402 64.9907 57.3502 66.1481C59.8252 66.7037 61.7602 66.9352 63.2002 66.9352C65.9002 66.9352 68.0152 66.1481 69.5452 64.5278C71.0752 62.9537 71.8852 60.7315 71.8852 58C71.8852 55.8241 71.3002 54.0185 70.1302 52.5833C68.9602 51.1481 67.4752 50.4537 65.7202 50.4537C64.5502 50.4537 63.3352 50.7778 61.9852 51.4259ZM62.1202 65.6852C62.0302 64.2037 61.9402 59.7592 61.9402 52.4907C62.3452 52.3518 62.8852 52.2592 63.5602 52.2592C64.6402 52.2592 65.4952 52.8148 66.1252 53.9722C66.7552 55.1296 67.0702 56.5185 67.0702 58.2778C67.0702 60.4537 66.7102 62.2129 65.9902 63.6944C65.2702 65.1296 64.3702 65.8703 63.2452 65.8703C62.8852 65.7778 62.5252 65.7315 62.1202 65.6852ZM29.4502 44.3889H11.4502V45.3148L12.3952 45.4074C13.1152 45.5463 13.6102 45.8241 13.9252 46.2407C14.2402 46.7037 14.4202 47.4444 14.4652 48.4629C14.8252 53.4629 14.8252 58.1389 14.4652 62.4444C14.3752 63.4629 14.1952 64.2037 13.9252 64.6666C13.6102 65.1296 13.1152 65.4074 12.3952 65.5L11.4502 65.6389V66.5648H23.0602V65.6389L21.8452 65.5463C21.1252 65.4537 20.6302 65.1296 20.3152 64.7129C20.0002 64.25 19.8202 63.5092 19.7752 62.4907C19.6402 60.6389 19.5502 58.5092 19.5502 56.1481L21.9802 56.1944C23.2852 56.2407 24.1852 57.2592 24.6352 59.2963H25.5352V51.75H24.6352C24.1852 53.7407 23.3302 54.7592 21.9802 54.8055L19.5502 54.8518C19.5502 50.6852 19.6402 47.7222 19.7752 45.9166H23.3302C25.8502 45.9166 27.5602 47.5833 28.5502 50.9166L29.6302 50.5926L29.4502 44.3889ZM27.3352 58.6481C27.3352 61.0555 28.0102 63.0463 29.3152 64.6203C30.6202 66.1944 32.5552 66.9352 34.9852 66.9352C37.4152 66.9352 39.3952 66.1481 40.8352 64.5278C42.2752 62.9537 42.9502 60.9629 42.9502 58.5555C42.9502 56.1481 42.2752 54.1574 40.9702 52.5833C39.6652 51.0092 37.7302 50.2685 35.3002 50.2685C32.8702 50.2685 30.8902 51.0555 29.4502 52.6759C28.0102 54.25 27.3352 56.2407 27.3352 58.6481ZM37.3702 53.3703C37.9102 54.7129 38.1352 56.4722 38.1352 58.6018C38.1352 63.5092 37.1452 65.9166 35.2102 65.9166C34.2202 65.9166 33.4552 65.2222 32.9152 63.8333C32.3752 62.4444 32.1502 60.6852 32.1502 58.6018C32.1502 53.7407 33.1402 51.3333 35.0752 51.3333C36.0652 51.287 36.8302 51.9815 37.3702 53.3703ZM75.3952 64.6203C76.8802 66.1481 78.7702 66.9352 81.0202 66.9352C82.4152 66.9352 83.6302 66.6574 84.7102 66.0555C85.7902 65.5 86.6452 64.8055 87.2302 63.9722L86.7802 63.4166C85.7902 64.2037 84.6652 64.5741 83.3602 64.5741C81.5602 64.5741 80.1652 63.9722 79.2202 62.7222C78.2302 61.4722 77.7802 59.8981 77.8702 57.8611H87.5002C87.5002 55.6389 86.9602 53.8333 85.8352 52.3981C84.7102 51.0092 83.1352 50.3148 81.1102 50.3148C78.5902 50.3148 76.6552 51.1481 75.2602 52.7685C73.8652 54.3889 73.1902 56.3796 73.1902 58.7407C73.1902 61.1481 73.9102 63.0926 75.3952 64.6203ZM78.7252 53C79.2202 51.8889 79.8502 51.3333 80.7052 51.3333C82.0552 51.3333 82.7302 53.0926 82.7302 56.6574L77.9602 56.75C78.0052 55.3611 78.2302 54.1111 78.7252 53ZM99.6052 51.1481C98.3902 50.5926 96.8602 50.2685 95.0152 50.2685C93.1252 50.2685 91.6402 50.7778 90.5152 51.75C89.3902 52.7222 88.8052 53.9259 88.8052 55.3611C88.8052 56.6111 89.1652 57.5833 89.8402 58.2778C90.5152 58.9722 91.5952 59.5741 92.9902 60.0833C94.2502 60.5463 95.1502 61.0092 95.6002 61.4259C96.0502 61.8889 96.3202 62.3981 96.3202 63.0926C96.3202 63.7407 96.0952 64.3426 95.6002 64.8055C95.1502 65.3148 94.5202 65.5463 93.7102 65.5463C91.7302 65.5463 90.2452 64.0648 89.2102 61.1018L88.4452 61.3333L88.6252 65.9629C90.2452 66.6111 92.0452 66.9352 94.0252 66.9352C96.0952 66.9352 97.6702 66.4722 98.8402 65.5C100.01 64.5741 100.595 63.2315 100.595 61.5648C100.595 60.4537 100.325 59.5278 99.7402 58.8333C99.1552 58.1389 98.2102 57.537 96.8602 56.9815C95.3752 56.4259 94.3402 55.9166 93.8002 55.4537C93.2602 54.9907 92.9902 54.4352 92.9902 53.7407C92.9902 53.0463 93.1702 52.4907 93.5752 52.0278C93.9802 51.5648 94.4752 51.3796 95.1052 51.3796C96.9052 51.3796 98.2102 52.7222 99.0202 55.3611L99.7852 55.1296L99.6052 51.1481ZM56.3152 50.7315C55.6852 50.4074 55.0102 50.2685 54.2452 50.2685C53.4802 50.2685 52.7152 50.5926 51.8602 51.2407C51.0052 51.8889 50.3752 52.7685 49.8802 53.9722L49.9252 50.2685L43.0852 51.6574V52.3055L43.7602 52.3518C44.6152 52.4444 45.1102 53.1389 45.2002 54.3889C45.4702 57.2592 45.4702 60.3148 45.2002 63.5555C45.1102 64.8055 44.6152 65.4537 43.7602 65.5926L43.0852 65.6852V66.5648H52.6252V65.6852L51.4102 65.5926C50.5552 65.5 50.0602 64.8055 49.9702 63.5555C49.7002 60.8703 49.6552 58 49.8802 55.037C50.1502 54.5741 50.7352 54.2963 51.6352 54.2037C52.5352 54.1111 53.5702 54.3889 54.6502 55.037L56.3152 50.7315Z" fill="white"/>
</svg>
