<svg xmlns="http://www.w3.org/2000/svg" xml:space="preserve" id="Icons" style="enable-background:new 0 0 32 32" version="1.1" viewBox="0 0 32 32" width="28"><style>.st0{fill:none;stroke:#fff;stroke-width:2;stroke-linejoin:round;stroke-miterlimit:10}</style><path d="M5 17v-3C5 7.9 9.9 3 16 3s11 4.9 11 11v3M27 17c0 5.5-4 10.1-9.3 10.9-.9.1-1.7-.6-1.7-1.5 0-.8.6-1.4 1.4-1.4.9 0 1.6.7 1.6 1.6v.4" class="st0"/><path d="M9 13c-2.2 0-4 1.8-4 4s1.8 4 4 4v-8zM23 21c2.2 0 4-1.8 4-4s-1.8-4-4-4v8z" class="st0"/></svg>