<svg xmlns="http://www.w3.org/2000/svg" width="40" height="40" fill="none" viewBox="0 0 40 40"><g clip-path="url(#a)"><rect width="40" height="40" fill="#A50034" rx="6.667"/><path fill="#fff" fill-rule="evenodd" d="M20 4.444c.178 0 .55 0 .744.015h-.015v1.414c-.179-.015-.58-.015-.744-.015a14.003 14.003 0 0 0-9.964 4.136c-2.662 2.678-4.134 6.22-4.134 9.984 0 3.779 1.472 7.32 4.134 9.983a14.003 14.003 0 0 0 9.964 4.136c7.466 0 13.593-5.817 14.083-13.152v-.209h-9.622v-1.443h11.109v.715c0 4.15-1.62 8.064-4.55 10.995A15.514 15.514 0 0 1 20 35.556c-4.15 0-8.06-1.607-11.005-4.553-2.945-2.931-4.55-6.844-4.55-10.995 0-8.585 6.989-15.564 15.555-15.564Zm-5.934 11.859c1.234 0 2.23-.997 2.23-2.232a2.228 2.228 0 0 0-2.23-2.232c-1.22 0-2.23.997-2.23 2.232a2.238 2.238 0 0 0 2.23 2.232Zm5.19-4.449v16.307h5.176v-1.458h-3.688V11.854h-1.488Z" clip-rule="evenodd"/></g><defs><clipPath id="a"><rect width="40" height="40" fill="#fff" rx="6.667"/></clipPath></defs></svg>