<svg xmlns="http://www.w3.org/2000/svg" id="Layer_1" width="138" height="26" data-name="Layer 1" viewBox="0 0 138 26"><defs><style>.cls-1{fill:#222a30}</style></defs><path d="M76.84 14.75v-.05c2.25-.59 3.37-2.19 3.37-4.81 0-1.6-.46-2.82-1.38-3.65C77.93 5.41 76.6 5 74.84 5h-6.72c-.47 0-.85.13-1.12.41s-.4.64-.4 1.12v13.06c0 .48.12.85.36 1.12.25.27.61.41 1.07.41s.78-.13 1.02-.41c.25-.27.38-.64.38-1.12v-4.48h4.16l4.13 5.36c.29.38.73.62 1.21.64.44 0 .79-.13 1.04-.38s.38-.6.38-1.02c0-.4-.13-.75-.38-1.05l-3.14-3.91Zm-2.28-2.24h-5.13V7.6h5.13c1.84 0 2.75.82 2.75 2.46s-.92 2.45-2.76 2.45ZM45.29 4.86c-.63 0-1.08.33-1.33 1l-3.59 10.51h-.05L36.64 5.98c-.27-.78-.74-1.15-1.4-1.12-.65-.03-1.11.34-1.38 1.12L30.23 16.3h-.05L26.59 5.84c-.21-.64-.65-.96-1.33-.98-.43 0-.78.13-1.04.41-.27.25-.41.6-.43 1.02 0 .25.05.49.14.72l4.61 12.87c.29.83.81 1.24 1.59 1.24s1.35-.41 1.64-1.24l3.44-9.7h.05l3.47 9.7c.3.83.84 1.24 1.62 1.24s1.34-.41 1.64-1.24l4.54-12.8c.13-.33.19-.6.19-.81 0-.43-.13-.77-.4-1.02-.25-.25-.59-.38-1.02-.38ZM59.3 5.31c-1-.4-2.12-.6-3.37-.6-1.13 0-2.26.18-3.33.57-1.01.38-1.81.87-2.4 1.45-.55.56-.97 1.05-1.24 1.48-.89 1.33-1.33 2.92-1.33 4.77s.44 3.41 1.33 4.79a7.372 7.372 0 0 0 3.59 2.88c1 .4 2.12.6 3.37.6s2.29-.19 3.3-.57c1.03-.38 1.83-.86 2.4-1.43.56-.56.97-1.05 1.26-1.48.89-1.38 1.33-2.98 1.33-4.79s-.44-3.43-1.33-4.77c-.87-1.35-2.07-2.32-3.59-2.91Zm.5 11.77c-1 1.05-2.29 1.57-3.87 1.57s-2.88-.52-3.9-1.57c-1-1.06-1.5-2.43-1.5-4.1s.5-3.03 1.5-4.08c1.01-1.06 2.31-1.6 3.9-1.6s2.87.53 3.87 1.6c1.01 1.05 1.52 2.41 1.52 4.08s-.51 3.03-1.52 4.1ZM137.53 5.41c-.32-.35-.75-.53-1.31-.55-.79 0-1.41.38-1.85 1.14l-5.11 8.32-5.08-8.34c-.44-.75-1.07-1.12-1.88-1.12-.59.02-1.04.21-1.35.57-.32.35-.48.82-.48 1.41v12.77c0 .48.12.85.36 1.12.25.25.59.38 1.02.38s.78-.13 1.02-.38c.25-.27.38-.64.38-1.12V9.77h.05l4.68 7.48c.32.51.75.77 1.31.79.59-.03 1.03-.31 1.33-.83l4.51-7.36h.05v9.75c0 .48.13.85.38 1.12.25.27.59.41 1.02.41s.79-.13 1.05-.41c.25-.27.38-.64.38-1.12V6.77c0-.57-.16-1.02-.47-1.36ZM90.04 12.01l5.58-4.62c.38-.3.55-.68.52-1.14 0-.41-.13-.75-.38-1-.24-.25-.57-.38-1-.38-.38.03-.7.17-.97.41l-8.34 7.01v-5.9c0-.48-.13-.85-.38-1.12-.24-.27-.58-.41-1.02-.41s-.82.13-1.07.41c-.24.27-.36.64-.36 1.12v13.2c0 .48.12.85.36 1.12.25.27.61.41 1.07.41s.78-.13 1.02-.41c.25-.27.38-.64.38-1.12v-3.81l2.45-2.03 5.87 6.77c.33.4.72.6 1.16.6s.78-.13 1.02-.38c.25-.25.38-.61.38-1.07 0-.4-.15-.76-.45-1.07l-5.84-6.58ZM116.39 4.86c-.43 0-.77.13-1.02.41-.24.25-.36.62-.36 1.1v7.67c0 3.1-1.38 4.65-4.13 4.65s-4.16-1.55-4.16-4.65V6.39c0-.48-.13-.85-.38-1.12-.24-.27-.58-.41-1.02-.41s-.79.13-1.05.41c-.25.27-.38.64-.38 1.12v7.67c.01 2.37.62 4.16 1.81 5.39 1.19 1.22 2.91 1.84 5.18 1.84s3.96-.61 5.13-1.84c1.19-1.22 1.78-3.02 1.78-5.39v-7.7c0-.48-.13-.84-.38-1.1-.24-.27-.58-.41-1.02-.41ZM99.81 4.86c-.46 0-.81.13-1.07.41-.24.27-.36.64-.36 1.12v13.2c0 .48.12.85.36 1.12.25.27.61.41 1.07.41s.78-.13 1.02-.41c.25-.27.38-.64.38-1.12V6.39c0-.48-.13-.85-.38-1.12-.24-.27-.58-.41-1.02-.41ZM13.19 6.98c-.3.19-.52.47-.74.73-1.86 2.2-3.48 3.97-3.48 3.97 1.6.7 3.36.49 3.36.49s-1.3 2.05-3.31 4.04c-1.23 1.21-2.06 3.04-2.01 5.18C7.08 24.11 8.4 26 8.4 26c1.28-2.77 3.4-5.23 6.34-8.14 1.98-1.96 3.44-3.94 3.44-5.87 0-1.82-.94-3.19-1.75-4.3-.83-1.14-2.14-1.39-3.23-.71ZM5.02 13.76s.05-1.36 2.77-4.02c1.61-1.57 2.81-3.4 2.68-5.51C10.31 1.8 9.14 0 9.14 0 7.86 2.77 6.27 4.7 3.25 7.76 1.02 10.02 0 12.37 0 13.89c0 1.64.3 2.93 1.12 4.04.83 1.14 2.14 1.39 3.22.71.3-.19.55-.44.74-.73 1.42-2.2 2.98-3.92 2.98-3.92-1.6-.7-3.05-.23-3.05-.23Z" class="cls-1"/></svg>