<svg xmlns="http://www.w3.org/2000/svg" xml:space="preserve" id="Layer_1" style="enable-background:new 0 0 30 30" version="1.1" viewBox="0 0 30 30"><style>.st0{fill:#fd6a7e}.st2{fill:#8797ee}.st3{fill:#41a6f9}.st4{fill:#37e0ff}.st5{fill:#2fd9b9}.st6{fill:#f498bd}.st7{fill:#ffdf1d}.st8{fill:#c6c9cc}</style><path d="M26 5H4c-.6 0-1 .4-1 1v12c0 .6.4 1 1 1h22c.6 0 1-.4 1-1V6c0-.6-.4-1-1-1zM5.5 14c-.2 0-.4 0-.5.1V9.9c.1.1.3.1.5.1C6.9 10 8 8.9 8 7.5c0-.2 0-.4-.1-.5H22v.5c0 1.4 1.1 2.5 2.5 2.5.2 0 .4 0 .5-.1V14c-.1 0-.3-.1-.5-.1-1.4 0-2.5 1.1-2.5 2.5 0 .2 0 .4.1.5H7.9c.1 0 .1-.2.1-.4C8 15.1 6.9 14 5.5 14zm6.5-2c0-1.7 1.3-3 3-3s3 1.3 3 3-1.3 3-3 3-3-1.3-3-3zM5 22v-1h20v1c0 .6-.4 1-1 1H6c-.6 0-1-.4-1-1zm2.4 4v-1h15v1c0 .6-.4 1-1 1h-13c-.6 0-1-.4-1-1z" style="fill:#17b978"/></svg>