<svg xmlns="http://www.w3.org/2000/svg" width="70" height="70" viewBox="0 0 18.521 18.521"><g style="display:inline"><path d="M1.654 18.52a2.733 2.733 0 0 1-.915-.42c-.249-.195-.545-.661-.665-1.048-.077-.249-.078-.403-.078-7.774 0-7.249.002-7.53.075-7.808A1.941 1.941 0 0 1 1.227.152c.181-.071.459-.146.618-.167.397-.052 14.587-.05 14.944 0 .832.121 1.506.706 1.71 1.485.074.277.076.56.076 7.808 0 7.371-.001 7.525-.078 7.774-.12.383-.418.856-.66 1.043-.231.18-.626.359-.934.425-.262.056-15.003.056-15.25 0zm7.549-8.283c.267-.127.514-.4.586-.652.083-.284.068-.712-.033-.935a1.076 1.076 0 0 0-.65-.584c-.743-.259-1.434.071-1.618.77-.178.679.179 1.318.838 1.501.213.06.645.01.877-.1zm-.911-.543c-.314-.276-.268-.955.075-1.112a.704.704 0 0 1 .564.03c.161.099.272.376.246.614-.044.388-.236.588-.566.588a.397.397 0 0 1-.32-.12zm6.23.563c.435-.192.666-.566.67-1.082.003-.497-.236-.898-.652-1.094-.142-.066-.256-.084-.54-.084-.312 0-.39.015-.587.112-.417.204-.609.541-.605 1.066.004.464.146.752.494 1 .288.205.855.243 1.22.082zm-.786-.503c-.224-.122-.334-.572-.216-.883.086-.223.25-.335.494-.335.413 0 .642.369.522.84-.074.287-.25.439-.507.437a.766.766 0 0 1-.293-.059zM4.24 9.495l.01-.776.137-.092a.546.546 0 0 1 .307-.091c.282 0 .296.044.296.96 0 .432.008.792.017.801.009.01.161.01.34.004l.322-.013.001-.766c0-.422.014-.786.03-.809.07-.1.239-.177.388-.177.319.001.34.064.34.993v.758l.284.013c.156.008.29.006.3-.003.008-.01.016-.432.016-.939 0-.8-.01-.94-.07-1.06-.102-.198-.252-.292-.503-.313-.265-.022-.455.037-.683.21l-.173.133-.089-.12a.632.632 0 0 0-.223-.175c-.276-.116-.73-.037-.947.165l-.11.101v-.283h-.599v2.274l.27.012c.149.006.283.002.3-.01.015-.01.033-.37.039-.797zm6.624.047c0-.794.003-.81.198-.94.111-.074.443-.09.562-.026.122.066.158.298.159 1.028v.69h.604l-.012-.93c-.015-1.068-.033-1.134-.353-1.3-.306-.16-.798-.083-1.068.164l-.09.082v-.294h-.6v2.278h.6z" style="display:inline;fill:#000;stroke-width:.0299676"/></g></svg>