<svg xmlns="http://www.w3.org/2000/svg" width="120" height="110" fill="none"><g clip-path="url(#a)"><path fill="#F4F5FC" d="M48.066 80.293 87.876 98.7c2.77 1.28 6.057.06 7.33-2.72l23.622-51.525c1.274-2.78.059-6.081-2.71-7.36l-39.81-18.415c-2.769-1.28-6.056-.06-7.33 2.72L45.357 72.924c-1.274 2.789-.06 6.09 2.71 7.37Z"/><path fill="#C1C5D2" d="M90.186 99.859a5.957 5.957 0 0 1-1.851-.29.652.652 0 0 1 .39-1.245c.892.281 1.86.298 2.77.05a.651.651 0 0 1 .348 1.255 6.067 6.067 0 0 1-1.657.23Zm-4.56-1.552a.602.602 0 0 1-.273-.06l-2.887-1.34a.667.667 0 0 1-.323-.87.662.662 0 0 1 .866-.323l2.888 1.339a.668.668 0 0 1 .323.87.66.66 0 0 1-.595.384Zm8.705-.316a.653.653 0 0 1-.492-1.083 4.96 4.96 0 0 0 .781-1.203l.654-1.416c.153-.324.535-.469.867-.324.322.154.467.538.322.87l-.654 1.416a6.206 6.206 0 0 1-.985 1.518.677.677 0 0 1-.493.222ZM79.85 95.637a.603.603 0 0 1-.272-.06l-2.888-1.339a.668.668 0 0 1-.323-.87c.153-.324.535-.469.866-.324l2.888 1.34c.323.153.468.537.323.87a.67.67 0 0 1-.594.383Zm-5.785-2.678a.6.6 0 0 1-.272-.06l-2.887-1.339c-.323-.153-.468-.537-.323-.87.153-.324.535-.469.866-.324l2.888 1.34c.323.153.467.536.323.869a.645.645 0 0 1-.595.384Zm23.129-.657a.602.602 0 0 1-.272-.06c-.323-.153-.467-.537-.323-.87l1.334-2.9a.662.662 0 0 1 .866-.324c.323.154.467.538.323.87l-1.334 2.9a.654.654 0 0 1-.594.384ZM68.29 90.29a.601.601 0 0 1-.272-.06l-2.888-1.338c-.323-.154-.467-.538-.323-.87.153-.325.535-.47.866-.325l2.888 1.34a.667.667 0 0 1 .323.87.646.646 0 0 1-.594.383Zm-5.776-2.67a.601.601 0 0 1-.272-.06l-2.888-1.338a.667.667 0 0 1-.323-.87c.153-.324.535-.47.867-.324l2.887 1.339c.323.153.468.537.323.87a.654.654 0 0 1-.594.384Zm37.338-1.117a.6.6 0 0 1-.271-.06c-.323-.153-.468-.537-.323-.87l1.333-2.9a.663.663 0 0 1 .867-.323.667.667 0 0 1 .322.87l-1.333 2.9a.646.646 0 0 1-.595.383ZM56.738 84.95a.602.602 0 0 1-.272-.06l-2.888-1.339c-.323-.153-.467-.537-.323-.87a.662.662 0 0 1 .867-.324l2.888 1.34c.323.153.467.537.323.87a.663.663 0 0 1-.595.383Zm-5.784-2.67a.603.603 0 0 1-.272-.06l-2.888-1.338c-.008 0-.008-.009-.017-.009a.65.65 0 1 1 .552-1.177l.009.009 2.887 1.339a.667.667 0 0 1 .323.87.674.674 0 0 1-.594.366Zm51.557-1.578a.6.6 0 0 1-.272-.06c-.323-.153-.467-.536-.323-.87l1.334-2.9a.662.662 0 0 1 .866-.323c.323.153.467.537.323.87l-1.334 2.9a.659.659 0 0 1-.594.383ZM45.705 78.86a.665.665 0 0 1-.552-.307 6.266 6.266 0 0 1-.952-3.31v-.076a.66.66 0 0 1 .654-.648h.009a.661.661 0 0 1 .645.665v.06c0 .93.264 1.834.748 2.618a.662.662 0 0 1-.204.904.735.735 0 0 1-.348.094Zm59.464-3.957a.6.6 0 0 1-.271-.06c-.323-.154-.467-.537-.323-.87l1.333-2.9c.153-.324.536-.469.867-.324a.668.668 0 0 1 .323.87l-1.334 2.9a.66.66 0 0 1-.595.384Zm-59.447-2.116a.602.602 0 0 1-.272-.06c-.323-.153-.467-.537-.323-.87l1.334-2.9c.152-.323.535-.468.866-.323.323.153.467.537.323.87l-1.334 2.9a.646.646 0 0 1-.594.383Zm62.106-3.693a.605.605 0 0 1-.272-.06c-.323-.153-.467-.537-.323-.87l1.334-2.9a.662.662 0 0 1 .866-.323.668.668 0 0 1 .323.87l-1.333 2.9a.647.647 0 0 1-.595.383ZM48.38 66.988a.602.602 0 0 1-.272-.06.667.667 0 0 1-.322-.87l1.333-2.9a.662.662 0 0 1 .866-.324c.323.153.468.537.323.87l-1.333 2.9a.646.646 0 0 1-.595.384Zm62.107-3.693a.602.602 0 0 1-.272-.06.668.668 0 0 1-.323-.87l1.334-2.9a.662.662 0 0 1 .866-.324.668.668 0 0 1 .323.87l-1.334 2.9a.659.659 0 0 1-.594.384Zm-59.448-2.107a.602.602 0 0 1-.272-.06.667.667 0 0 1-.323-.87l1.334-2.9c.153-.324.535-.469.866-.324.323.154.467.538.323.87l-1.334 2.9a.66.66 0 0 1-.594.384Zm62.115-3.693a.602.602 0 0 1-.272-.06.668.668 0 0 1-.323-.87l1.334-2.9c.152-.324.535-.469.866-.324.323.154.467.537.323.87l-1.334 2.9a.68.68 0 0 1-.594.384ZM53.697 55.38a.602.602 0 0 1-.272-.06.668.668 0 0 1-.322-.87l1.333-2.9c.153-.324.535-.47.867-.324.322.153.467.537.322.87l-1.333 2.9a.646.646 0 0 1-.595.384Zm62.115-3.694a.605.605 0 0 1-.272-.06c-.322-.153-.467-.537-.322-.87l1.333-2.9a.662.662 0 0 1 .866-.323.667.667 0 0 1 .323.87l-1.333 2.9a.655.655 0 0 1-.595.384ZM56.356 49.58a.602.602 0 0 1-.272-.06.668.668 0 0 1-.323-.87l1.334-2.9c.153-.324.535-.469.866-.324.323.154.467.537.323.87l-1.334 2.9a.646.646 0 0 1-.594.384Zm62.115-3.693a.602.602 0 0 1-.272-.06.668.668 0 0 1-.323-.87l.365-.785a4.889 4.889 0 0 0 .451-1.987c0-.358.297-.648.654-.648h.008c.357 0 .646.298.646.657a6.144 6.144 0 0 1-.57 2.516l-.365.784a.648.648 0 0 1-.594.393ZM59.023 43.78a.602.602 0 0 1-.272-.06c-.323-.153-.467-.537-.323-.87l1.334-2.9a.662.662 0 0 1 .866-.324.667.667 0 0 1 .323.87l-1.334 2.9a.679.679 0 0 1-.594.384Zm59.465-3.966a.663.663 0 0 1-.552-.307 4.89 4.89 0 0 0-2.081-1.834.656.656 0 0 1-.315-.87.652.652 0 0 1 .867-.315 6.151 6.151 0 0 1 2.633 2.32.654.654 0 0 1-.552 1.006ZM61.681 37.98a.603.603 0 0 1-.271-.06c-.323-.153-.468-.537-.323-.87l1.333-2.9a.662.662 0 0 1 .867-.323.668.668 0 0 1 .322.87l-1.333 2.9a.67.67 0 0 1-.595.383Zm51.558-1.578a.602.602 0 0 1-.272-.06l-2.888-1.338c-.323-.154-.467-.538-.323-.87a.662.662 0 0 1 .866-.325l2.888 1.34c.323.153.468.537.323.87a.654.654 0 0 1-.594.383Zm-5.785-2.67a.605.605 0 0 1-.272-.059l-2.887-1.34a.667.667 0 0 1-.323-.87c.153-.323.535-.468.866-.323l2.888 1.339a.668.668 0 0 1 .323.87.646.646 0 0 1-.595.384Zm-43.114-1.56a.601.601 0 0 1-.272-.06c-.323-.153-.467-.537-.323-.87l1.334-2.9a.662.662 0 0 1 .866-.324.667.667 0 0 1 .323.87l-1.334 2.9a.654.654 0 0 1-.594.384Zm37.339-1.109a.602.602 0 0 1-.272-.06l-2.888-1.339c-.323-.153-.467-.537-.323-.87a.662.662 0 0 1 .866-.324l2.888 1.34a.668.668 0 0 1 .323.87.645.645 0 0 1-.594.383Zm-5.776-2.67a.6.6 0 0 1-.272-.06l-2.888-1.338a.668.668 0 0 1-.323-.87.662.662 0 0 1 .867-.324l2.888 1.339a.667.667 0 0 1 .322.87.66.66 0 0 1-.594.383Zm-28.904-2.021a.602.602 0 0 1-.272-.06c-.323-.153-.468-.537-.323-.87l1.333-2.9c.153-.324.535-.469.867-.324a.667.667 0 0 1 .323.87l-1.334 2.9a.645.645 0 0 1-.594.384Zm23.128-.648a.601.601 0 0 1-.272-.06l-2.888-1.339a.668.668 0 0 1-.323-.87c.153-.324.536-.469.867-.324l2.888 1.339a.667.667 0 0 1 .323.87.67.67 0 0 1-.595.384Zm-5.784-2.67a.601.601 0 0 1-.272-.06l-2.888-1.339a.667.667 0 0 1-.323-.87.662.662 0 0 1 .867-.324l2.888 1.34a.668.668 0 0 1 .322.87.66.66 0 0 1-.594.383ZM69.86 20.692a.653.653 0 0 1-.433-.162.644.644 0 0 1-.051-.922 6.17 6.17 0 0 1 2.973-1.859.651.651 0 0 1 .348 1.254 4.917 4.917 0 0 0-2.353 1.467.646.646 0 0 1-.484.222Zm8.706-.307a.602.602 0 0 1-.272-.06l-2.26-1.04a4.63 4.63 0 0 0-.568-.222.652.652 0 0 1 .39-1.245c.247.076.485.17.722.28l2.26 1.041a.667.667 0 0 1 .323.87.666.666 0 0 1-.595.376Z"/><path fill="#F4F5FC" d="M71.934 75.474 32.114 93.88c-2.768 1.28-6.055.06-7.33-2.72L1.173 39.625c-1.274-2.78-.06-6.08 2.71-7.36l39.81-18.398c2.769-1.279 6.056-.06 7.33 2.721l23.621 51.525c1.274 2.78.06 6.08-2.71 7.36Z"/><path fill="#C1C5D2" d="M29.813 95.04c-.56 0-1.113-.077-1.656-.23a.641.641 0 0 1-.45-.802.642.642 0 0 1 .798-.452 4.786 4.786 0 0 0 2.77-.051.652.652 0 0 1 .39 1.245 5.958 5.958 0 0 1-1.852.29Zm4.561-1.552a.655.655 0 0 1-.272-1.254l2.888-1.34a.65.65 0 0 1 .867.325.655.655 0 0 1-.323.87l-2.888 1.339a.602.602 0 0 1-.272.06Zm-8.706-.316a.646.646 0 0 1-.484-.222c-.4-.452-.73-.963-.985-1.518l-.654-1.416a.655.655 0 1 1 1.189-.546l.654 1.416c.204.444.467.845.781 1.203a.652.652 0 0 1-.5 1.083Zm14.482-2.354a.655.655 0 0 1-.272-1.254l2.888-1.339a.65.65 0 0 1 .867.324.655.655 0 0 1-.323.87l-2.888 1.34a.603.603 0 0 1-.272.06Zm5.784-2.67a.655.655 0 0 1-.272-1.254l2.888-1.338a.65.65 0 0 1 .867.324.655.655 0 0 1-.323.87l-2.888 1.339a.655.655 0 0 1-.272.06Zm-23.128-.656a.66.66 0 0 1-.595-.384l-1.333-2.9a.655.655 0 1 1 1.189-.546l1.333 2.9a.655.655 0 0 1-.594.93Zm28.904-2.013a.655.655 0 0 1-.272-1.254l2.888-1.339a.65.65 0 0 1 .867.324.655.655 0 0 1-.323.87l-2.888 1.34a.742.742 0 0 1-.272.059Zm5.776-2.67a.655.655 0 0 1-.272-1.254l2.888-1.339a.65.65 0 0 1 .866.325.655.655 0 0 1-.323.87l-2.887 1.338a.739.739 0 0 1-.272.06Zm-37.339-1.126a.66.66 0 0 1-.594-.383l-1.334-2.9a.655.655 0 1 1 1.19-.546l1.333 2.9a.655.655 0 0 1-.595.93Zm43.115-1.552a.655.655 0 0 1-.272-1.254l2.888-1.339a.65.65 0 0 1 .866.324.655.655 0 0 1-.323.87l-2.888 1.34a.602.602 0 0 1-.271.06Zm5.784-2.67a.655.655 0 0 1-.272-1.254l2.896-1.338a.654.654 0 0 1 .552 1.185l-2.896 1.34a.613.613 0 0 1-.28.067Zm-51.557-1.577a.66.66 0 0 1-.595-.384l-1.333-2.9a.655.655 0 1 1 1.189-.546l1.333 2.9a.655.655 0 0 1-.594.93Zm56.806-1.834a.66.66 0 0 1-.348-.102.652.652 0 0 1-.204-.905 4.91 4.91 0 0 0 .747-2.618v-.06a.654.654 0 0 1 .637-.665h.009c.357 0 .645.29.654.64v.085a6.266 6.266 0 0 1-.951 3.31.61.61 0 0 1-.544.315ZM14.83 70.084a.66.66 0 0 1-.594-.384l-1.334-2.9a.655.655 0 1 1 1.19-.546l1.333 2.9a.655.655 0 0 1-.595.93Zm59.448-2.107a.66.66 0 0 1-.595-.384l-1.333-2.9a.656.656 0 0 1 .323-.87.65.65 0 0 1 .866.324l1.334 2.9a.655.655 0 0 1-.595.93Zm-62.106-3.693a.66.66 0 0 1-.595-.384L10.243 61a.655.655 0 0 1 .323-.87.65.65 0 0 1 .867.324l1.333 2.9a.655.655 0 0 1-.323.87.825.825 0 0 1-.271.06Zm59.448-2.115a.66.66 0 0 1-.595-.384l-1.334-2.9a.655.655 0 1 1 1.19-.546l1.333 2.9a.655.655 0 0 1-.594.93ZM9.513 58.476a.66.66 0 0 1-.595-.384l-1.333-2.9a.655.655 0 1 1 1.19-.546l1.333 2.9a.655.655 0 0 1-.595.93Zm59.448-2.107a.66.66 0 0 1-.595-.384l-1.333-2.9a.655.655 0 1 1 1.189-.546l1.334 2.9a.655.655 0 0 1-.595.93ZM6.846 52.676a.66.66 0 0 1-.595-.384l-1.333-2.9a.655.655 0 1 1 1.189-.546l1.334 2.9a.655.655 0 0 1-.595.93Zm59.456-2.107a.66.66 0 0 1-.594-.384l-1.334-2.9a.655.655 0 1 1 1.19-.545l1.333 2.9a.655.655 0 0 1-.595.93ZM4.187 46.876a.66.66 0 0 1-.594-.384l-1.334-2.9a.655.655 0 1 1 1.19-.545l1.333 2.9a.655.655 0 0 1-.595.93Zm59.457-2.107a.66.66 0 0 1-.595-.383l-1.333-2.9a.655.655 0 1 1 1.189-.546l1.333 2.9a.655.655 0 0 1-.322.87.824.824 0 0 1-.272.06ZM1.529 41.068a.66.66 0 0 1-.595-.384l-.365-.785A6.18 6.18 0 0 1 0 37.383c0-.358.28-.657.646-.657.356 0 .654.282.654.649.008.69.16 1.356.45 1.987l.365.785a.655.655 0 0 1-.323.87.66.66 0 0 1-.263.05Zm59.448-2.107a.66.66 0 0 1-.595-.384l-1.333-2.9a.655.655 0 1 1 1.189-.545l1.333 2.9a.655.655 0 0 1-.594.93ZM1.512 35.004a.66.66 0 0 1-.348-.103.662.662 0 0 1-.204-.904 6.151 6.151 0 0 1 2.633-2.32.654.654 0 0 1 .552 1.186 4.88 4.88 0 0 0-2.081 1.834.643.643 0 0 1-.552.307Zm56.806-1.843a.66.66 0 0 1-.594-.383l-1.334-2.9a.655.655 0 1 1 1.19-.546l1.333 2.9a.655.655 0 0 1-.595.93Zm-51.557-1.57a.655.655 0 0 1-.272-1.254L9.377 29a.65.65 0 0 1 .866.324.655.655 0 0 1-.322.87l-2.888 1.34a.741.741 0 0 1-.272.059Zm5.784-2.669a.655.655 0 0 1-.272-1.254l2.888-1.339a.65.65 0 0 1 .867.325.655.655 0 0 1-.323.87l-2.888 1.339a.824.824 0 0 1-.272.06Zm43.115-1.56a.66.66 0 0 1-.595-.384l-1.333-2.9a.655.655 0 1 1 1.189-.546l1.333 2.9a.655.655 0 0 1-.594.93ZM18.32 26.244a.655.655 0 0 1-.272-1.254l2.888-1.339a.65.65 0 0 1 .866.324.655.655 0 0 1-.322.87l-2.888 1.34a.627.627 0 0 1-.272.06Zm5.776-2.67a.655.655 0 0 1-.272-1.254l2.888-1.338a.65.65 0 0 1 .866.324.655.655 0 0 1-.323.87l-2.887 1.339a.6.6 0 0 1-.272.06ZM53 21.555a.66.66 0 0 1-.594-.385l-1.334-2.9a.655.655 0 1 1 1.19-.545l1.333 2.9a.655.655 0 0 1-.595.93Zm-23.128-.65a.655.655 0 0 1-.272-1.254l2.888-1.338a.65.65 0 0 1 .866.324.655.655 0 0 1-.323.87l-2.888 1.34a.601.601 0 0 1-.271.059Zm5.784-2.669a.655.655 0 0 1-.272-1.254l2.888-1.339a.65.65 0 0 1 .866.325.655.655 0 0 1-.323.87l-2.887 1.339a.653.653 0 0 1-.272.06Zm14.482-2.362a.646.646 0 0 1-.484-.222 4.879 4.879 0 0 0-2.353-1.467.641.641 0 0 1-.45-.802.638.638 0 0 1 .798-.452 6.17 6.17 0 0 1 2.973 1.86.66.66 0 0 1-.051.92.653.653 0 0 1-.433.163Zm-8.706-.307a.655.655 0 0 1-.272-1.254l2.26-1.04c.237-.111.475-.205.721-.282a.652.652 0 0 1 .39 1.245 4.62 4.62 0 0 0-.568.222l-2.26 1.04a.517.517 0 0 1-.271.069Z"/><path fill="#F4F5FC" d="M82.738 68.48H38.91c-3.049 0-5.53-2.482-5.53-5.552V6.209c0-3.062 2.472-5.552 5.53-5.552h43.828c3.05 0 5.53 2.482 5.53 5.552v56.727a5.534 5.534 0 0 1-5.53 5.544Z"/><path fill="#C1C5D2" d="M82.755 69.129H79.56a.656.656 0 0 1-.654-.657.65.65 0 0 1 .654-.657h3.194a.656.656 0 0 1 0 1.314Zm-6.379 0H73.2a.656.656 0 0 1-.654-.657.65.65 0 0 1 .654-.657h3.177c.357 0 .654.29.654.657a.65.65 0 0 1-.654.657Zm-6.362 0h-3.176a.656.656 0 0 1-.654-.657.65.65 0 0 1 .654-.657h3.176c.357 0 .654.29.654.657a.65.65 0 0 1-.654.657Zm-6.353 0h-3.177a.656.656 0 0 1-.654-.657.65.65 0 0 1 .654-.657h3.177a.656.656 0 0 1 0 1.314Zm-6.362 0h-3.177a.656.656 0 0 1-.654-.657.65.65 0 0 1 .654-.657H57.3a.656.656 0 0 1 0 1.314Zm-6.362 0h-3.176a.656.656 0 0 1-.655-.657.65.65 0 0 1 .654-.657h3.177a.656.656 0 0 1 0 1.314Zm-6.362 0H41.4a.656.656 0 0 1-.654-.657.65.65 0 0 1 .654-.657h3.176a.656.656 0 0 1 0 1.314Zm-6.361-.043c-.026 0-.051 0-.085-.009a6.169 6.169 0 0 1-3.211-1.415.66.66 0 0 1-.076-.922.654.654 0 0 1 .917-.076 4.841 4.841 0 0 0 2.531 1.117.644.644 0 0 1 .56.725.638.638 0 0 1-.636.58Zm47.548-.853a.642.642 0 0 1-.544-.299.659.659 0 0 1 .187-.904 4.919 4.919 0 0 0 1.792-2.115.651.651 0 1 1 1.19.529 6.214 6.214 0 0 1-2.277 2.678.583.583 0 0 1-.348.11Zm-52.144-3.045a.645.645 0 0 1-.62-.46 6.111 6.111 0 0 1-.263-1.8v-1.561c0-.358.289-.657.654-.657.357 0 .654.29.654.657v1.56c0 .487.068.965.204 1.417a.654.654 0 0 1-.433.81.525.525 0 0 1-.196.034Zm54.65-2.482a.656.656 0 0 1-.655-.657v-3.19c0-.358.29-.656.654-.656a.65.65 0 0 1 .654.656v3.19a.661.661 0 0 1-.654.657Zm-54.887-3.88a.656.656 0 0 1-.654-.657v-3.19c0-.358.288-.657.654-.657.356 0 .654.29.654.657v3.19a.65.65 0 0 1-.654.656Zm54.886-2.508a.656.656 0 0 1-.654-.657v-3.19c0-.358.29-.657.654-.657a.65.65 0 0 1 .654.657v3.19a.661.661 0 0 1-.654.657Zm-54.886-3.881a.656.656 0 0 1-.654-.657v-3.19c0-.358.288-.656.654-.656.356 0 .654.29.654.656v3.19a.65.65 0 0 1-.654.657Zm54.886-2.508a.656.656 0 0 1-.654-.656v-3.19c0-.358.29-.657.654-.657a.65.65 0 0 1 .654.657v3.19a.661.661 0 0 1-.654.656Zm-54.886-3.88a.656.656 0 0 1-.654-.657v-3.19c0-.358.288-.657.654-.657.356 0 .654.29.654.657v3.19a.65.65 0 0 1-.654.657Zm54.886-2.508a.656.656 0 0 1-.654-.657v-3.19c0-.358.29-.656.654-.656a.65.65 0 0 1 .654.657v3.19a.661.661 0 0 1-.654.656ZM33.381 39.67a.656.656 0 0 1-.654-.657v-3.19c0-.358.288-.657.654-.657.356 0 .654.29.654.657v3.19a.656.656 0 0 1-.654.657Zm54.886-2.516a.656.656 0 0 1-.654-.657v-3.19c0-.358.29-.656.654-.656a.65.65 0 0 1 .654.656v3.19a.661.661 0 0 1-.654.657ZM33.381 33.28a.656.656 0 0 1-.654-.657v-3.19c0-.358.288-.657.654-.657.356 0 .654.29.654.657v3.19a.656.656 0 0 1-.654.657Zm54.886-2.516a.656.656 0 0 1-.654-.657v-3.182c0-.358.29-.656.654-.656a.65.65 0 0 1 .654.656v3.19a.66.66 0 0 1-.654.649Zm-54.886-3.873a.656.656 0 0 1-.654-.656v-3.19c0-.358.288-.657.654-.657.356 0 .654.29.654.657v3.19a.656.656 0 0 1-.654.656Zm54.886-2.507a.656.656 0 0 1-.654-.657v-3.19c0-.358.29-.657.654-.657a.65.65 0 0 1 .654.657v3.19a.667.667 0 0 1-.654.657Zm-54.886-3.881a.656.656 0 0 1-.654-.657v-3.19c0-.358.288-.656.654-.656.356 0 .654.29.654.656v3.19a.65.65 0 0 1-.654.657Zm54.886-2.508a.656.656 0 0 1-.654-.656v-3.19c0-.358.29-.657.654-.657a.65.65 0 0 1 .654.657v3.19a.667.667 0 0 1-.654.656Zm-54.886-3.88a.656.656 0 0 1-.654-.657v-3.19c0-.358.288-.657.654-.657.356 0 .654.29.654.657v3.19a.65.65 0 0 1-.654.657Zm54.886-2.508a.656.656 0 0 1-.654-.657v-3.19c0-.358.29-.656.654-.656a.65.65 0 0 1 .654.656v3.19a.661.661 0 0 1-.654.657Zm-54.886-3.88a.656.656 0 0 1-.654-.657V6.2c0-.879.178-1.732.535-2.525a.651.651 0 1 1 1.19.529 4.86 4.86 0 0 0-.417 1.996v.87a.65.65 0 0 1-.654.656Zm54.648-2.483a.645.645 0 0 1-.62-.46 4.846 4.846 0 0 0-1.528-2.32.66.66 0 0 1-.077-.921.654.654 0 0 1 .918-.077 6.196 6.196 0 0 1 1.928 2.934.655.655 0 0 1-.434.81.483.483 0 0 1-.186.034ZM35.895 2.21a.632.632 0 0 1-.544-.298.659.659 0 0 1 .187-.905A6.196 6.196 0 0 1 38.902 0a.66.66 0 0 1 .654.648.654.654 0 0 1-.646.657c-.943 0-1.86.273-2.65.793a.654.654 0 0 1-.365.111Zm47.53-.853c-.025 0-.05 0-.084-.008a4.898 4.898 0 0 0-.612-.035h-2.488a.656.656 0 0 1-.654-.656A.65.65 0 0 1 80.24 0h2.488c.255 0 .519.017.765.051a.652.652 0 0 1 .569.725.644.644 0 0 1-.637.58Zm-6.352-.043h-3.177a.656.656 0 0 1-.654-.656.65.65 0 0 1 .654-.657h3.177a.656.656 0 0 1 0 1.313Zm-6.362 0h-3.177a.656.656 0 0 1-.654-.656.65.65 0 0 1 .654-.657h3.177a.656.656 0 0 1 0 1.313Zm-6.362 0h-3.177a.656.656 0 0 1-.654-.656.65.65 0 0 1 .654-.657h3.177a.656.656 0 0 1 0 1.313Zm-6.362 0H54.81a.656.656 0 0 1-.654-.656A.65.65 0 0 1 54.81 0h3.177a.656.656 0 0 1 0 1.313Zm-6.362 0H48.45a.656.656 0 0 1-.654-.656.65.65 0 0 1 .654-.657h3.176a.656.656 0 0 1 0 1.313Zm-6.362 0h-3.176a.656.656 0 0 1-.654-.656.65.65 0 0 1 .654-.657h3.176a.656.656 0 0 1 0 1.313ZM72.4 36.803a.634.634 0 0 1-.458-.188L48.746 13.314a.65.65 0 0 1 .917-.921L72.86 35.686a.65.65 0 0 1 0 .921.629.629 0 0 1-.46.196Z"/><path fill="#C1C5D2" d="M49.205 36.803a.65.65 0 0 1-.459-1.109l23.196-23.293a.65.65 0 0 1 .917.921L49.664 36.607a.628.628 0 0 1-.458.196ZM102.366 79.61l-3.202 2.696-6.09-6.985c.034-.026 3.151-2.619 3.21-2.678l6.082 6.968Z"/><path fill="#C1C5D2" d="M110.894 100.644 96.107 82.946a1.488 1.488 0 0 1 .178-2.081l5.164-4.359a1.474 1.474 0 0 1 2.073.18l14.787 17.697a3.46 3.46 0 0 1-.424 4.862l-2.149 1.808a3.41 3.41 0 0 1-4.842-.409ZM98.477 38.918c-8.936-10.687-24.802-12.085-35.454-3.113-10.642 8.973-12.035 24.905-3.1 35.6 8.4 10.048 22.925 11.882 33.483 4.615.102-.068.212-.145.314-.222.102-.076.204-.145.306-.222.459-.332.909-.69 1.35-1.057.442-.375.867-.75 1.274-1.151.094-.086.187-.18.272-.265.094-.085.179-.179.272-.273 8.961-9.177 9.683-23.864 1.282-33.912Zm-32.047.956c8.391-7.071 20.954-5.97 27.995 2.456 6.506 7.787 6.065 19.14-.654 26.398-.085.094-.17.187-.263.281-.085.094-.179.188-.264.273-.399.4-.823.785-1.265 1.16-.442.367-.892.716-1.35 1.05-.103.076-.213.144-.315.212l-.314.214a19.679 19.679 0 0 1-12.52 3.113c-5.292-.47-10.082-2.969-13.488-7.054-7.05-8.418-5.954-21.033 2.438-28.103Z"/><path fill="#C1C5D2" d="M94.722 42.083c-7.186-8.606-19.96-9.724-28.53-2.508s-9.683 20.043-2.498 28.65c6.65 7.966 18.084 9.518 26.543 3.983.11-.069.213-.145.323-.214.102-.068.212-.145.314-.222.459-.324.918-.673 1.36-1.049a23.52 23.52 0 0 0 1.537-1.433c.085-.093.178-.187.263-.28 6.88-7.387 7.339-18.961.688-26.927Zm-.951 26.653a7.8 7.8 0 0 1-.264.282 8.024 8.024 0 0 1-.263.272c-.4.401-.824.785-1.265 1.16-.442.367-.892.717-1.351 1.05-.102.076-.212.145-.314.213l-.314.213a19.679 19.679 0 0 1-12.52 3.113c-5.292-.469-10.082-2.968-13.488-7.053-7.042-8.427-5.946-21.042 2.446-28.112 8.392-7.071 20.954-5.97 27.995 2.456 6.498 7.787 6.056 19.14-.662 26.406Z"/><path fill="#F4F5FC" d="M93.771 68.736c-.085.094-.17.188-.263.282-.085.093-.179.187-.263.272a20.685 20.685 0 0 1-2.617 2.21c-.102.076-.212.144-.314.213l-.314.213a19.679 19.679 0 0 1-12.52 3.113c-5.292-.469-10.082-2.968-13.488-7.053-7.041-8.427-5.946-21.042 2.446-28.112 8.392-7.071 20.954-5.97 27.996 2.456 6.497 7.787 6.056 19.14-.663 26.406ZM114.411 94.255a.648.648 0 0 1-.501-.23l-12.044-13.97a.665.665 0 0 1 .068-.939.658.658 0 0 1 .934.068l12.044 13.971a.664.664 0 0 1-.501 1.1Z"/><path fill="#F4F5FC" d="M60.985 41.298a.489.489 0 0 1-.382-.785 23.71 23.71 0 0 1 12.316-8.239c5.02-1.39 10.227-1.1 15.077.845a.485.485 0 0 1-.357.904c-9.3-3.736-20.096-.828-26.271 7.087a.466.466 0 0 1-.383.188ZM57.715 47.013a.488.488 0 0 1-.45-.665c.51-1.272 1.121-2.5 1.826-3.651a.493.493 0 0 1 .671-.162c.23.145.297.443.161.674a22.857 22.857 0 0 0-1.75 3.505.524.524 0 0 1-.458.299Z"/><path fill="#DFE1ED" d="M60 110c20.593 0 37.287-.916 37.287-2.047 0-1.131-16.694-2.047-37.287-2.047-20.594 0-37.288.916-37.288 2.047C22.712 109.084 39.406 110 60 110Z"/></g><defs><clipPath id="a"><path fill="#fff" d="M0 0h120v110H0z"/></clipPath></defs></svg>