<svg xmlns="http://www.w3.org/2000/svg" width="240" height="240" fill="none" viewBox="0 0 240 240"><g clip-path="url(#a)"><path fill="#CADDFF" d="M3.43 194.344c7.04 16.985 23.48 25.061 33.97 30.206 41.386 20.29 104.184 17.991 149.364-18.854 10.576-8.622 62.654-53.831 50.439-115.134C226.368 36.387 172.336 4.888 126.869.634 89.19-2.872 40.016 10.751 22.685 43.774c-10.92 20.778 2.242 27.389-6.639 74.465-7.702 40.754-21.239 55.325-12.617 76.105Z"/><path fill="#fff" d="M187.511 215.152H29.152a1.338 1.338 0 0 1-1.322-1.322V1.554c0-.719.604-1.322 1.322-1.322H187.54c.718 0 1.322.603 1.322 1.322v212.247c-.029.747-.604 1.351-1.351 1.351Z"/><g fill="#0F182A"><path d="M187.511 215.583H29.152a1.742 1.742 0 0 1-1.753-1.753V94.356c0-.23.201-.43.43-.43.23 0 .432.2.432.43V213.83c0 .488.402.891.891.891H187.54a.896.896 0 0 0 .891-.891V69.64c0-.23.201-.431.431-.431.23 0 .431.2.431.43V213.83c-.029.948-.805 1.753-1.782 1.753ZM27.83 52.28a.442.442 0 0 1-.431-.43V1.553c0-.977.776-1.753 1.753-1.753H187.54c.977 0 1.753.776 1.753 1.753V16.47c0 .23-.201.431-.431.431a.442.442 0 0 1-.431-.43V1.553a.896.896 0 0 0-.891-.891H29.152a.895.895 0 0 0-.891.89V51.85c0 .23-.201.432-.431.432Z"/></g><path fill="#5479F7" d="M114.08 24.799v-.029c1.667-.431 2.471-1.61 2.471-3.535 0-1.178-.345-2.07-1.006-2.673-.661-.603-1.638-.92-2.931-.92h-4.943c-.345 0-.633.087-.834.288-.201.201-.287.46-.287.833v9.6c0 .345.086.632.258.833.173.201.46.287.776.287.345 0 .575-.086.748-.287.172-.201.287-.46.287-.833v-3.305h3.046l3.047 3.937c.201.287.546.46.891.46.316 0 .575-.086.776-.288.172-.172.287-.43.287-.747 0-.287-.086-.546-.287-.776L114.08 24.8Zm-1.667-1.667h-3.765v-3.593h3.765c1.35 0 2.011.604 2.011 1.811 0 1.207-.661 1.782-2.011 1.782Zm-21.527-5.604c-.46 0-.804.23-.977.747l-2.644 7.731h-.029l-2.701-7.674c-.202-.575-.546-.833-1.035-.833-.489-.029-.805.259-1.006.833l-2.673 7.588h-.029l-2.644-7.703c-.143-.46-.488-.718-.977-.718-.316 0-.575.086-.776.287-.201.173-.287.431-.316.747 0 .173.029.374.115.518l3.391 9.455c.202.604.604.92 1.179.92.575 0 1.006-.287 1.207-.92L83.5 21.38h.029l2.558 7.127c.23.604.603.92 1.178.92s.977-.287 1.207-.92l3.334-9.398c.086-.23.144-.43.144-.603 0-.316-.087-.575-.288-.747-.201-.144-.43-.23-.776-.23Zm10.318.316c-.747-.288-1.552-.431-2.472-.431-.833 0-1.667.143-2.443.43-.747.288-1.322.633-1.753 1.064-.402.402-.718.776-.92 1.092-.66.977-.977 2.156-.977 3.507 0 1.35.317 2.5.978 3.535a5.352 5.352 0 0 0 2.644 2.126c.747.288 1.552.431 2.471.431.92 0 1.696-.143 2.414-.43.748-.288 1.351-.633 1.754-1.064.402-.402.718-.776.919-1.092.661-1.006.977-2.184.977-3.535s-.316-2.53-.977-3.506a5.439 5.439 0 0 0-2.615-2.127Zm.374 8.65c-.748.776-1.696 1.15-2.846 1.15-1.15 0-2.126-.373-2.874-1.15-.747-.775-1.092-1.781-1.092-3.017s.374-2.213 1.092-2.99c.748-.775 1.696-1.177 2.874-1.177 1.179 0 2.098.402 2.846 1.178.747.776 1.12 1.782 1.12 2.989 0 1.207-.402 2.242-1.12 3.018Zm57.135-8.564c-.23-.259-.546-.402-.977-.402-.575 0-1.035.287-1.351.833l-3.765 6.122-3.736-6.15c-.316-.547-.776-.834-1.379-.834-.432.029-.776.144-1.006.431-.23.259-.345.604-.345 1.035v9.398c0 .345.086.632.258.833.173.173.432.287.748.287s.574-.086.747-.287c.172-.201.287-.46.287-.833V21.12h.029l3.449 5.49c.23.373.546.574.977.574.431-.028.747-.23.977-.603l3.305-5.403h.029v7.156c0 .345.086.632.288.833.172.202.431.288.747.288s.575-.086.776-.288c.172-.2.287-.46.287-.833v-9.427c0-.402-.115-.747-.345-.977Zm-34.919 4.828 4.11-3.391c.287-.23.402-.489.373-.834 0-.287-.086-.546-.287-.747a1.041 1.041 0 0 0-.747-.287c-.288.029-.518.115-.719.287l-6.093 5.202v-4.34c0-.344-.086-.632-.287-.833-.173-.201-.431-.287-.747-.287-.317 0-.604.086-.776.287-.173.201-.259.46-.259.833v9.715c0 .345.086.632.259.833.172.201.459.287.776.287.316 0 .574-.086.747-.287.172-.201.287-.46.287-.833v-2.788l1.811-1.495 4.311 4.972c.23.288.517.431.862.431s.575-.086.747-.287c.173-.172.288-.46.288-.776 0-.287-.115-.546-.345-.776l-4.311-4.886Zm19.371-5.23c-.316 0-.575.086-.747.287-.173.172-.259.46-.259.805v5.633c0 2.27-1.006 3.42-3.047 3.42-2.011 0-3.046-1.15-3.046-3.42v-5.605c0-.344-.086-.632-.287-.833-.173-.201-.432-.287-.748-.287s-.575.086-.776.287c-.172.201-.287.46-.287.833v5.634c0 1.753.46 3.046 1.322 3.966.862.89 2.127 1.35 3.794 1.35 1.667 0 2.902-.46 3.765-1.35.862-.891 1.322-2.213 1.322-3.966V18.62c0-.345-.087-.604-.288-.805-.143-.201-.402-.316-.718-.287Zm-12.186 0c-.345 0-.604.086-.776.287-.173.201-.259.46-.259.833v9.715c0 .345.086.632.259.833.172.201.46.287.776.287s.575-.086.747-.287c.173-.201.288-.46.288-.833v-9.715c0-.344-.087-.632-.288-.833-.172-.201-.431-.287-.747-.287ZM67.29 19.08c-.23.143-.373.345-.546.546-1.38 1.61-2.558 2.931-2.558 2.931 1.179.518 2.472.374 2.472.374s-.948 1.494-2.443 2.96a5.11 5.11 0 0 0-1.466 3.794c.058 2.012 1.035 3.391 1.035 3.391.949-2.04 2.5-3.851 4.656-5.978 1.466-1.437 2.53-2.903 2.53-4.31 0-1.352-.69-2.358-1.294-3.162-.604-.863-1.552-1.064-2.386-.546Zm-5.978 4.972s.03-1.006 2.041-2.96c1.178-1.15 2.07-2.501 1.983-4.053-.115-1.782-.977-3.104-.977-3.104-.948 2.04-2.098 3.449-4.34 5.69-1.638 1.668-2.385 3.392-2.385 4.513 0 1.207.23 2.155.833 2.96.604.834 1.58 1.035 2.357.517.23-.143.402-.316.546-.546 1.035-1.61 2.184-2.874 2.184-2.874-1.207-.488-2.27-.143-2.242-.143Z"/><g fill="#CADDFF"><path d="M166.502 125.999H50.017a3.563 3.563 0 1 1 0-7.127h116.485a3.563 3.563 0 0 1 3.564 3.563 3.545 3.545 0 0 1-3.564 3.564ZM59.214 108.784h-9.197a3.563 3.563 0 1 1 0-7.128h9.197a3.563 3.563 0 0 1 3.564 3.564 3.582 3.582 0 0 1-3.564 3.564ZM164.921 108.784H77.005a3.563 3.563 0 1 1 0-7.128h87.916a3.564 3.564 0 1 1 0 7.128ZM143.424 91.54H50.018a3.563 3.563 0 1 1 0-7.128h93.406a3.563 3.563 0 1 1 0 7.128ZM166.502 74.324H50.018a3.563 3.563 0 1 1 0-7.128h116.484a3.564 3.564 0 1 1 0 7.128ZM133.278 52.424H83.27a3.563 3.563 0 1 1 0-7.128h50.008a3.563 3.563 0 0 1 3.564 3.564 3.582 3.582 0 0 1-3.564 3.564ZM82.61 199.057H49.442a3.202 3.202 0 0 1-3.19-3.191 3.201 3.201 0 0 1 3.19-3.19h33.195a3.201 3.201 0 0 1 3.19 3.19c-.029 1.754-1.437 3.191-3.219 3.191ZM83.213 184.17h-33.77a3.201 3.201 0 0 1-3.19-3.19 3.201 3.201 0 0 1 3.19-3.19h33.77a3.201 3.201 0 0 1 3.19 3.19 3.201 3.201 0 0 1-3.19 3.19Z"/></g><path fill="#99B9FF" d="M65.738 183.509c-6.983 0-13.536-4.283-16.123-11.18-3.334-8.881 1.178-18.825 10.088-22.159 4.31-1.61 8.967-1.466 13.163.46a17.02 17.02 0 0 1 8.996 9.628c3.334 8.88-1.179 18.825-10.088 22.158a17.057 17.057 0 0 1-6.036 1.093Zm0-33.54c-1.925 0-3.88.345-5.748 1.034-8.45 3.162-12.732 12.589-9.57 21.038 2.443 6.553 8.708 10.605 15.318 10.605 1.897 0 3.823-.345 5.72-1.034 4.08-1.524 7.328-4.57 9.14-8.536 1.81-3.966 1.953-8.421.43-12.502-1.523-4.081-4.57-7.329-8.536-9.14a16.343 16.343 0 0 0-6.754-1.465Z"/><path fill="#99B9FF" d="M65.738 179.083c-5.173 0-10.059-3.162-11.956-8.277-2.471-6.582.891-13.968 7.473-16.44 3.19-1.207 6.668-1.063 9.771.345 3.105 1.408 5.461 3.937 6.668 7.128 2.472 6.581-.89 13.967-7.472 16.439-1.495.517-2.99.805-4.484.805Zm0-24.688c-1.408 0-2.816.259-4.167.776-6.15 2.299-9.283 9.168-6.955 15.318 2.3 6.151 9.168 9.284 15.318 6.956 6.15-2.3 9.284-9.169 6.956-15.319a11.89 11.89 0 0 0-6.208-6.668c-1.61-.689-3.277-1.063-4.944-1.063Z"/><path fill="#fff" d="m84.506 152.925-41.768 15.647 4.174 11.142 41.768-15.647-4.174-11.142Z"/><path fill="#99B9FF" d="M46.913 180.146a.432.432 0 0 1-.402-.288l-4.167-11.151a.588.588 0 0 1 0-.316c.057-.115.143-.172.23-.23l41.76-15.663a.583.583 0 0 1 .315 0 .58.58 0 0 1 .23.23l4.225 11.18c.086.229-.029.459-.258.546l-41.76 15.663c-.058 0-.115.029-.173.029Zm-3.62-11.324 3.88 10.347 40.954-15.348-3.88-10.346-40.955 15.347Z"/><path fill="#0F182A" d="M73.613 171.237c-.115 0-.258-.029-.373-.058-.49-.172-.805-.603-.805-1.092v-7.013a.639.639 0 0 0-.517-.661c-.26-.057-.604 0-.777.345l-2.241 4.283a1.14 1.14 0 0 1-1.265.603c-.517-.115-.89-.517-.92-1.035-.028-.201-.172-.258-.23-.258a.269.269 0 0 0-.316.115l-2.414 3.563c-.258.403-.747.575-1.207.489a1.133 1.133 0 0 1-.89-.92l-1.294-6.84c-.058-.373-.345-.517-.604-.546a.698.698 0 0 0-.718.402l-2.846 6.352c-.086.23-.344.316-.574.23-.23-.086-.316-.345-.23-.575l2.845-6.351c.288-.633.92-.978 1.61-.92.69.086 1.207.575 1.35 1.264l1.265 6.783c.029.173.172.23.23.23.057 0 .201.029.316-.115l2.414-3.564c.288-.402.776-.603 1.265-.459.488.114.833.517.862 1.034a.298.298 0 0 0 .23.259c.057 0 .23.029.316-.144l2.242-4.282a1.547 1.547 0 0 1 1.753-.776 1.507 1.507 0 0 1 1.178 1.494v7.013c0 .201.144.259.201.287.058.029.23.058.345-.115l7.76-10.317c.144-.202.403-.23.604-.087.2.144.23.403.086.604l-7.76 10.318c-.201.287-.517.46-.89.46Z"/><path fill="#fff" d="M236.456 98.035h-7.99c-.977 0-1.868.575-2.299 1.494l-2.099 4.599-2.586-4.771a2.529 2.529 0 0 0-2.213-1.322h-7.358c-1.379 0-2.529-1.15-2.529-2.558V79.698c0-1.408 1.121-2.557 2.529-2.557h24.545c1.379 0 2.529 1.15 2.529 2.557v15.779c0 1.437-1.121 2.558-2.529 2.558Z"/><path fill="#0F182A" d="M224.097 104.559c-.143 0-.316-.086-.373-.23l-2.587-4.77a2.06 2.06 0 0 0-1.839-1.093h-7.358a3.058 3.058 0 0 1-2.098-.862 3.058 3.058 0 0 1-.862-2.098V79.727c0-1.638 1.322-2.989 2.96-2.989h24.544c1.639 0 2.961 1.351 2.961 2.99v15.778c0 .804-.317 1.552-.863 2.098-.546.575-1.293.862-2.098.862h-7.989c-.805 0-1.552.489-1.897 1.236L224.5 104.3c-.087.144-.23.259-.403.259ZM211.94 77.572c-1.149 0-2.098.948-2.098 2.126v15.779c0 .575.23 1.092.604 1.494.402.403.919.633 1.465.633h7.358c1.063 0 2.069.603 2.587 1.552l2.184 3.995 1.724-3.823a2.929 2.929 0 0 1 2.673-1.724h7.99c.546 0 1.092-.23 1.466-.633.402-.402.603-.92.603-1.494V79.698c0-1.178-.948-2.126-2.098-2.126H211.94Z"/><g fill="#0F182A"><path d="M215.475 83.866a.442.442 0 0 1-.431-.431c0-.23.201-.431.431-.431l18.049-.058c.23 0 .431.201.431.431 0 .23-.201.431-.431.431l-18.049.058ZM215.475 88.062a.442.442 0 0 1-.431-.431c0-.23.201-.431.431-.431l13.077-.03c.23 0 .431.202.431.432 0 .23-.201.431-.431.431l-13.077.029ZM215.475 92.344a.442.442 0 0 1-.431-.43c0-.23.201-.432.431-.432l18.135-.057c.23 0 .431.201.431.43 0 .23-.201.432-.431.432l-18.135.057Z"/></g><path fill="#fff" d="M228.258 58.65c4.347-4.066 4.574-10.886.507-15.232-4.067-4.347-10.887-4.574-15.233-.507s-4.573 10.887-.507 15.233c4.067 4.347 10.887 4.573 15.233.507Z"/><path fill="#0F182A" d="M220.878 61.995c-.977 0-2.012-.144-2.989-.403-2.874-.804-5.288-2.672-6.754-5.288-1.465-2.615-1.839-5.633-1.034-8.507.804-2.874 2.672-5.288 5.288-6.754 2.615-1.466 5.633-1.84 8.507-1.035 2.874.805 5.288 2.673 6.754 5.289 1.466 2.615 1.839 5.633 1.035 8.507-1.351 4.943-5.892 8.19-10.807 8.19Zm.029-21.555c-4.541 0-8.708 3.017-9.973 7.587a10.317 10.317 0 0 0 .949 7.875c1.35 2.414 3.563 4.138 6.236 4.886 5.49 1.523 11.209-1.696 12.732-7.214.747-2.673.402-5.46-.948-7.875-1.351-2.414-3.564-4.139-6.237-4.886a10.279 10.279 0 0 0-2.759-.373Z"/><path fill="#5479F7" d="m218.378 57.281.373-1.552c-1.092-.287-2.098-.776-2.644-1.264l.949-1.81c.603.516 1.494 1.063 2.558 1.292.948.202 1.667-.028 1.81-.69.144-.632-.287-1.12-1.408-1.781-1.609-.949-2.615-2.012-2.242-3.621.345-1.438 1.638-2.357 3.478-2.357l.373-1.552 1.61.345-.345 1.437c1.092.287 1.782.66 2.27 1.034l-.919 1.754c-.374-.26-1.064-.805-2.242-1.035-1.063-.23-1.523.172-1.638.632-.115.546.373 1.006 1.638 1.81 1.782 1.093 2.357 2.156 2.012 3.622-.345 1.466-1.696 2.5-3.65 2.443l-.403 1.667-1.58-.374Z"/><path fill="#fff" d="M204.781 43.991c6.055-4.856 7.066-13.652 2.259-19.645-4.806-5.993-13.612-6.914-19.667-2.058-6.055 4.857-7.067 13.652-2.26 19.646 4.807 5.992 13.613 6.914 19.668 2.057Z"/><path fill="#0F182A" d="M195.932 47.539c-3.794 0-7.387-1.466-10.059-4.139a14.218 14.218 0 0 1-4.197-10.116c0-7.933 6.496-14.457 14.457-14.543 3.851-.029 7.501 1.437 10.231 4.139a14.217 14.217 0 0 1 4.196 10.116c0 7.933-6.495 14.457-14.456 14.543h-.172Zm.316-27.936h-.144c-7.472.087-13.594 6.208-13.594 13.68 0 3.622 1.408 6.985 3.937 9.514a13.376 13.376 0 0 0 9.456 3.88h.144c7.472-.087 13.594-6.208 13.594-13.68a13.345 13.345 0 0 0-13.393-13.394Z"/><path fill="#fff" d="m202.915 39.29-13.565.143a1.288 1.288 0 0 1-1.293-1.293V28.8c0-.72.575-1.294 1.293-1.323l13.565-.143c.719 0 1.294.574 1.294 1.293v9.34c0 .748-.575 1.322-1.294 1.322Z"/><path fill="#0F182A" d="M189.321 39.865a1.721 1.721 0 0 1-1.724-1.696v-9.34c0-.949.776-1.725 1.724-1.754l13.566-.143c.46 0 .891.172 1.236.488.316.316.517.747.517 1.207v9.34c0 .95-.776 1.725-1.724 1.754l-13.595.144Zm13.623-12.071-13.594.144c-.488 0-.862.402-.891.89v9.341c0 .23.086.431.259.604a.825.825 0 0 0 .603.258l13.566-.143c.488 0 .862-.403.862-.891v-9.34a.825.825 0 0 0-.259-.605c-.115-.172-.316-.258-.546-.258Z"/><path fill="#0F182A" d="M196.219 34.347a.545.545 0 0 1-.23-.058l-5.231-3.334c-.201-.115-.258-.402-.143-.603.115-.201.402-.259.603-.144l5.001 3.19 4.972-3.305c.201-.144.46-.086.604.115.143.201.086.46-.115.604l-5.202 3.448a.467.467 0 0 1-.259.087Z"/><path fill="#fff" d="M24.237 89.873c9.413 0 17.043-7.605 17.043-16.986 0-9.38-7.63-16.985-17.043-16.985-9.412 0-17.043 7.605-17.043 16.985 0 9.381 7.63 16.986 17.043 16.986Z"/><path fill="#0F182A" d="M24.237 90.304c-8.22 0-15.577-5.834-17.158-14.198a17.25 17.25 0 0 1 2.73-13.02 17.37 17.37 0 0 1 11.21-7.3c9.455-1.781 18.623 4.456 20.405 13.882a17.25 17.25 0 0 1-2.73 13.02 17.37 17.37 0 0 1-11.21 7.3 18.007 18.007 0 0 1-3.247.316Zm0-33.971c-1.006 0-2.04.086-3.075.287-4.368.834-8.162 3.277-10.663 6.956a16.317 16.317 0 0 0-2.586 12.387c1.695 8.967 10.404 14.887 19.4 13.191 4.368-.833 8.162-3.276 10.662-6.955 2.5-3.65 3.42-8.047 2.587-12.387-1.523-7.932-8.507-13.48-16.325-13.48Z"/><path fill="#0F182A" d="M30.359 80.705a.462.462 0 0 1-.316-.144l-5.777-6.495a3.032 3.032 0 0 1-.776-2.156l.201-6.38c0-.23.201-.431.431-.431.23 0 .431.2.431.43l-.23 6.41c-.028.575.173 1.12.575 1.552l5.777 6.495a.417.417 0 0 1-.029.604.369.369 0 0 1-.287.115Z"/><g fill="#99B9FF"><path d="M25.1 59.207c.114.546-.26 1.034-.777 1.15-.546.086-1.063-.26-1.15-.777-.114-.546.26-1.034.777-1.15.517-.114 1.035.23 1.15.777ZM15.098 62.425c.46.317.575.92.258 1.351-.316.46-.92.546-1.379.259-.46-.316-.575-.92-.259-1.35.288-.46.92-.576 1.38-.26ZM10.298 71.68c.546-.086 1.064.259 1.15.776.115.517-.259 1.035-.776 1.15-.546.086-1.064-.259-1.15-.776-.115-.517.259-1.035.776-1.15ZM13.546 81.595a.98.98 0 0 1 1.38-.258c.46.316.574.92.258 1.35a.98.98 0 0 1-1.38.259c-.46-.287-.574-.89-.258-1.35ZM22.915 86.337c-.115-.546.259-1.035.776-1.15.546-.086 1.064.26 1.15.776.115.547-.259 1.035-.776 1.15a.947.947 0 0 1-1.15-.776ZM32.917 83.118c-.46-.316-.575-.92-.259-1.35.316-.46.92-.546 1.38-.259.46.316.575.92.258 1.35-.316.46-.948.576-1.38.26ZM37.688 73.864c-.546.086-1.064-.259-1.15-.776-.115-.517.259-1.034.776-1.15.546-.086 1.063.26 1.15.776.115.518-.23 1.035-.776 1.15ZM34.44 63.95a.98.98 0 0 1-1.38.258c-.46-.316-.574-.92-.258-1.351a.98.98 0 0 1 1.38-.259c.46.288.574.891.258 1.351Z"/></g><path fill="#fff" d="M12.051 140.111c6.096 0 11.037-5.006 11.037-11.18 0-6.175-4.941-11.18-11.037-11.18-6.095 0-11.036 5.005-11.036 11.18 0 6.174 4.941 11.18 11.036 11.18Z"/><path fill="#0F182A" d="M12.023 140.542c-2.644 0-5.174-.92-7.243-2.615-2.385-1.983-3.851-4.771-4.138-7.904-.604-6.38 4.052-12.042 10.346-12.646 3.018-.287 5.978.633 8.335 2.587 2.385 1.983 3.85 4.771 4.138 7.904.604 6.38-4.052 12.042-10.346 12.645-.345 0-.719.029-1.092.029Zm.057-22.36c-.345 0-.66.029-1.006.058-5.834.546-10.116 5.805-9.57 11.697.258 2.874 1.638 5.46 3.85 7.3a10.46 10.46 0 0 0 7.703 2.385c5.835-.546 10.117-5.805 9.57-11.697-.258-2.874-1.637-5.461-3.85-7.3-1.926-1.581-4.254-2.443-6.697-2.443Z"/><path fill="#5479F7" d="m17.167 133.702-1.58-1.983a.858.858 0 0 0-.604-.288h-.259c-.23 0-.46.058-.69.144-.632.259-1.638.259-2.931-2.041-1.293-2.299-.805-3.161-.287-3.592.23-.173.402-.402.574-.661l.058-.086a.826.826 0 0 0 .057-.69l-.89-2.357a.502.502 0 0 0-.518-.287l-.575.115a2.169 2.169 0 0 0-1.264.718c-1.38 1.638-1.15 4.886.69 8.105 1.839 3.248 4.54 5.087 6.61 4.685.488-.087.92-.345 1.236-.748l.402-.459a.59.59 0 0 0-.029-.575Z"/><path fill="#fff" d="m203.261 231.189-7.588-1.494c1.466-1.897 1.868-4.053 1.523-7.961l4.743-.259 1.322 9.714Z"/><path fill="#0F182A" d="m203.778 231.735-8.881-1.753.431-.546c1.409-1.782 1.782-3.794 1.437-7.645l-.028-.431 5.575-.317 1.466 10.692Zm-7.357-2.328 6.351 1.236-1.207-8.709-3.88.23c.23 3.392-.115 5.49-1.264 7.243Z"/><path fill="#5479F7" d="M203.548 227.165c.374 1.149 1.178 4.368 1.552 6.323.23 1.235-.517 2.414-1.696 2.787-3.333 1.064-11.409 1.351-18.135 1.926-.46.029-1.322-.144-1.724-1.236-1.437-3.765 5.748-5.202 12.646-9.455 0 0 .431.316 1.063.632 1.063.489 2.73.345 3.708-.316l1.58-1.035c.345-.23.862-.057 1.006.374Z"/><path fill="#0F182A" d="M185.154 238.661c-.689 0-1.58-.402-2.011-1.523-1.15-2.96 2.299-4.599 6.61-6.697 1.925-.919 4.081-1.954 6.208-3.276l.258-.144.23.173s.403.316.977.574c.92.432 2.415.288 3.306-.258l1.58-1.035c.288-.201.661-.23.977-.115.317.115.575.374.69.719.374 1.178 1.207 4.426 1.552 6.38a2.876 2.876 0 0 1-1.983 3.276c-2.529.805-7.559 1.15-12.904 1.524-1.782.115-3.593.258-5.317.402h-.173Zm11.008-10.634c-2.098 1.265-4.196 2.271-6.064 3.162-4.484 2.155-6.984 3.477-6.179 5.604.373 1.006 1.149.977 1.293.977 1.724-.144 3.564-.287 5.317-.402 5.058-.345 10.26-.719 12.703-1.495a2.058 2.058 0 0 0 1.408-2.299c-.345-1.868-1.149-5.116-1.523-6.265-.029-.115-.115-.144-.144-.144-.028-.029-.115-.029-.201.029l-1.581 1.034c-1.12.719-2.96.891-4.138.345a8.577 8.577 0 0 1-.891-.546Z"/><path fill="#fff" d="M205.33 234.379c0 .028 0 .057.029.057.23 1.236-.747 1.753-1.868 2.328-3.334 1.724-17.388 1.494-17.388 1.494s-1.868.144-2.414-.948c-.087-.172-.173-.259-.202-.46-.028-.23-.057-1.006-.057-1.006 7.013.748 11.582.403 17.876-1.092.776-.172 3.104-.948 3.794-1.351-.029 0 .058.288.23.978Z"/><path fill="#0F182A" d="M187.942 238.69h-1.868c-.23 0-2.155.086-2.816-1.179-.029-.028-.029-.057-.058-.086-.057-.115-.172-.258-.201-.517-.029-.23-.058-.977-.058-1.035 0-.115.058-.258.144-.345.086-.086.201-.115.345-.115 6.811.719 11.295.46 17.733-1.063.747-.172 3.046-.92 3.679-1.293.114-.058.258-.087.373-.029.115.057.23.144.259.287 0 0 .086.288.258 1.006 0 .058.029.086.029.086.288 1.552-.977 2.213-2.098 2.788-2.673 1.351-11.755 1.495-15.721 1.495Zm-1.868-.862c.144 0 13.997.229 17.187-1.437 1.264-.661 1.782-1.035 1.638-1.869v-.057c-.057-.173-.086-.345-.115-.46-.977.431-2.73.977-3.42 1.15-6.409 1.523-10.893 1.81-17.532 1.149 0 .201.029.403.029.46 0 .058.029.086.086.173.029.057.058.086.087.143.431.805 1.983.719 2.011.719l.029.029ZM195.587 231.16a.47.47 0 0 1-.259-.086l-2.098-1.466c-.201-.144-.23-.402-.115-.604.144-.201.403-.229.604-.114l2.098 1.465c.201.144.23.403.115.604a.374.374 0 0 1-.345.201ZM192.914 232.396a.326.326 0 0 1-.23-.087l-1.839-1.264c-.201-.144-.259-.402-.115-.604.144-.201.402-.258.604-.115l1.839 1.265c.201.144.259.402.115.604a.494.494 0 0 1-.374.201Z"/><path fill="#fff" d="m176.82 229.895-5.346 1.696-2.788-2.931c3.018-1.552 2.127-4.771 2.041-6.812l5.374-.23.719 8.277Z"/><path fill="#0F182A" d="m171.359 232.08-3.363-3.535.518-.259c2.299-1.178 2.069-3.391 1.897-5.346-.029-.373-.058-.747-.087-1.063l-.028-.431 6.236-.259.776 9.024-5.949 1.869Zm-1.983-3.306 2.213 2.328 4.742-1.494-.632-7.501-4.541.201c.029.201.029.374.057.603.201 1.84.46 4.34-1.839 5.863Z"/><path fill="#5479F7" d="M177.595 228.228c.202 1.264.547 3.621.633 5.748.057 1.322-.92 2.472-2.242 2.673-3.707.575-12.128 1.322-19.313.833-.489-.028-1.38-.373-1.639-1.609-.948-4.225 6.524-5.375 14.514-8.737l1.437 1.322a2.555 2.555 0 0 0 2.817.46l2.759-1.265a.766.766 0 0 1 1.034.575Z"/><path fill="#0F182A" d="M161.702 238.086c-1.695 0-3.391-.057-5.029-.144-.748-.057-1.725-.574-2.041-1.925-.776-3.535 3.535-5.087 9.025-7.042 1.753-.632 3.765-1.35 5.748-2.184l.258-.115 1.639 1.524a2.098 2.098 0 0 0 2.356.373l2.759-1.264c.316-.144.69-.144 1.035.028.316.173.546.489.603.834.202 1.236.575 3.65.633 5.805a3.057 3.057 0 0 1-2.587 3.133c-3.018.431-8.679.977-14.399.977Zm7.76-10.433c-1.925.805-3.822 1.495-5.547 2.098-5.259 1.897-9.082 3.248-8.478 6.036.259 1.15 1.092 1.265 1.236 1.265 7.127.459 15.405-.23 19.227-.834a2.208 2.208 0 0 0 1.868-2.242c-.086-2.126-.431-4.483-.632-5.69-.029-.115-.115-.201-.144-.201a.267.267 0 0 0-.259 0l-2.759 1.264c-1.092.517-2.385.288-3.305-.517l-1.207-1.179Z"/><path fill="#fff" d="M178.199 233.66v.316c.058 1.322-.92 2.471-2.242 2.673-3.707.574-12.128 1.322-19.313.833-.489-.029-1.38-.373-1.638-1.609-.087-.374-.058-1.064-.058-1.064h.517a148.24 148.24 0 0 0 21.728-1.063l1.006-.086Z"/><path fill="#0F182A" d="M161.702 238.086c-1.695 0-3.391-.057-5.029-.144-.748-.057-1.725-.574-2.041-1.925-.086-.431-.057-1.092-.057-1.179 0-.23.201-.402.431-.402h.517a147.59 147.59 0 0 0 21.67-1.063l.977-.115c.115-.029.23.028.345.086a.458.458 0 0 1 .144.316v.316a3.056 3.056 0 0 1-2.587 3.133c-2.989.431-8.65.977-14.37.977Zm-6.294-2.817c0 .202.029.403.058.518.258 1.149 1.092 1.264 1.235 1.264 7.128.46 15.405-.23 19.228-.833 1.063-.173 1.839-1.035 1.868-2.098l-.518.057a149.346 149.346 0 0 1-21.785 1.064l-.086.028ZM167.766 232.309a.432.432 0 0 1-.316-.115l-2.644-2.615a.418.418 0 0 1 0-.604.418.418 0 0 1 .604 0l2.644 2.615a.418.418 0 0 1 0 .604.444.444 0 0 1-.288.115ZM164.749 233.171a.46.46 0 0 1-.316-.143l-2.357-2.731c-.144-.172-.144-.46.057-.603.173-.144.46-.144.604.057l2.357 2.731c.143.172.143.459-.058.603a.48.48 0 0 1-.287.086Z"/><path fill="#5479F7" d="M185.356 167.098c-.805 2.385-3.909 18.394-4.771 24.688-.776 5.719-2.443 26.786-2.673 30.867-.029.345-.316.632-.661.632h-7.731a.657.657 0 0 1-.661-.603c-.432-4.254-4.053-28.051-3.65-39.576.431-12.559 6.064-27.504 7.156-31.614 1.092-4.11 2.414-13.853 2.414-13.853l26.039 4.053s3.276 21.095 4.684 33.856c.633 5.604.719 23.854-.373 33.597-.69 6.323-1.351 10.346-1.61 12.531a2.022 2.022 0 0 1-2.011 1.782h-5.72a.651.651 0 0 1-.661-.661c-.029-2.616-1.149-10.95-2.845-19.515-1.954-9.973-4.11-25.55-5.202-31.844-.345-2.07-.661-4.455-.92-6.726l-.804 2.386Z"/><path fill="#CADDFF" d="M185.988 166.897a.437.437 0 0 1-.432-.374c-.172-1.638-.344-3.161-.431-4.167a6.625 6.625 0 0 0-2.701-4.771c-.201-.144-.23-.403-.086-.604.143-.201.402-.23.603-.086 1.725 1.293 2.845 3.248 3.047 5.374.086 1.006.229 2.501.431 4.139a.448.448 0 0 1-.374.489h-.057ZM201.737 154.251c-3.822-.086-5.547-3.736-6.121-5.317-.087-.23.028-.46.258-.546.23-.086.46.029.546.259.518 1.408 2.041 4.656 5.317 4.742.23 0 .431.201.431.431a.423.423 0 0 1-.431.431ZM173.198 153.705a.436.436 0 0 1-.431-.374.445.445 0 0 1 .374-.488c3.535-.403 3.42-4.426 3.42-4.599 0-.23.172-.431.402-.431h.029c.23 0 .431.172.431.402.058 1.725-.747 5.087-4.196 5.49h-.029Z"/><path fill="#fff" d="m189.868 89.183-.604-12.215-8.823 4.599.172 7.73c.086 1.725 1.552 2.674 1.552 2.674 1.84 1.322 4.369 1.034 6.208-.259l.431-.287c.719-.546 1.121-1.38 1.064-2.242Z"/><path fill="#0F182A" d="M184.982 93.235a5.24 5.24 0 0 1-3.047-.948c-.057-.029-1.638-1.063-1.724-2.989l-.173-7.731a.46.46 0 0 1 .23-.402l8.824-4.599a.489.489 0 0 1 .402 0 .573.573 0 0 1 .23.345l.603 12.215a2.952 2.952 0 0 1-1.235 2.586l-.432.288c-1.149.833-2.442 1.235-3.678 1.235Zm-4.11-11.41.172 7.444c.058 1.466 1.351 2.3 1.351 2.3 1.581 1.12 3.909 1.034 5.719-.26l.432-.287c.603-.43.919-1.12.89-1.839l-.574-11.525-7.99 4.168Z"/><path fill="#0F182A" d="M176.216 63.115c2.357-.172-.575 2.3 8.134-.345 3.477-1.063 1.753 3.018 2.672 2.73 3.334-1.005 3.219-.976 4.858-.545 1.092.258 1.81 2.242 1.609 3.736-.259 1.954-1.868 2.472-3.248 6.61-.977 2.903-.718 4.656-1.868 5.116-1.178.431-2.069-1.12-3.391-.747-1.724.488-1.351 3.449-2.989 4.684-1.035.776-3.478 1.179-7.444-.69a1.475 1.475 0 0 1-.805-1.695c.23-.862.518-1.983.891-3.018 1.782-4.914 3.535-6.035 2.874-7.3-1.005-1.925-4.684-.776-5.317-2.356-.632-1.667.776-5.95 4.024-6.18Z"/><path fill="#fff" d="m184.579 71.45-.661 1.265a14.893 14.893 0 0 0-.805 1.84c-.431 1.178-1.235 3.19-1.695 4.34-1.437 3.65-5.978-.288-5.978-.288l-.316-1.006-.604-.23c-.115-.058-.23-.115-.316-.201a.692.692 0 0 1-.029-.834c.891-1.322 2.73-4.34 3.391-7.013 0 0 3.852-1.034 7.013 2.127Z"/><path fill="#0F182A" d="M185.01 71.393c-.143.345-.287.69-.46 1.035l-.459.92c-.144.287-.259.574-.374.833-.115.287-.201.575-.316.89-.431 1.208-.92 2.386-1.38 3.564l-.172.432c-.058.172-.144.316-.23.488a2.666 2.666 0 0 1-.747.862c-.316.23-.69.403-1.092.431a3.464 3.464 0 0 1-1.093-.028c-.689-.144-1.322-.431-1.896-.747-.575-.345-1.121-.69-1.639-1.15-.057-.058-.115-.115-.115-.201-.115-.345-.201-.661-.316-1.006l.259.259a3.261 3.261 0 0 1-.546-.288c-.086-.057-.23-.144-.345-.23-.115-.115-.201-.23-.23-.373a.944.944 0 0 1 .029-.834c.029-.029.029-.057.057-.086l.029-.058.086-.115.173-.258c.431-.69.833-1.38 1.207-2.098.373-.719.718-1.437 1.006-2.184.287-.748.546-1.495.718-2.242a.4.4 0 0 1 .316-.316c.374-.087.69-.144 1.035-.173.345-.029.661-.029 1.006-.029a7.753 7.753 0 0 1 1.983.345 8.52 8.52 0 0 1 2.673 1.408c.144.115.258.23.373.317l.058.028.057.058.144.144c.058.172.115.287.201.402Zm-.862.115H184.004l-.057-.057c-.115-.087-.23-.202-.345-.288-.23-.201-.489-.345-.747-.517a6.954 6.954 0 0 0-1.638-.719 7.486 7.486 0 0 0-1.782-.316 4.621 4.621 0 0 0-.891 0c-.288.029-.604.058-.862.115l.316-.316c-.431 1.638-1.179 3.133-1.983 4.54a31.867 31.867 0 0 1-1.294 2.099l-.172.259-.086.114-.029.058-.029.029a.314.314 0 0 0 0 .316c.058.115.144.144.288.172.201.058.402.087.574.173a.562.562 0 0 1 .259.258c.115.317.23.662.345 1.006l-.115-.2c.46.373.977.746 1.494 1.034.518.287 1.093.546 1.639.632.546.115 1.092.058 1.465-.259.202-.143.345-.344.489-.574.057-.115.115-.23.172-.374l.173-.431c.46-1.178.948-2.357 1.379-3.535.115-.288.23-.604.345-.891.115-.316.259-.604.403-.891.086-.144.143-.287.23-.431.057-.115.114-.23.201-.345.086-.201.23-.431.402-.661Z"/><path fill="#fff" d="M183.66 75.847s1.581-3.046 2.816-2.011c1.236 1.005-.603 4.31-2.816 2.011Z"/><g fill="#0F182A"><path d="M177.653 76.681c-.402 0-.747-.144-1.034-.402-.46-.46-.69-1.236-.633-2.386.058-.948.316-1.494.862-1.753a1.529 1.529 0 0 1 1.179-.029c.316.115.546.345.661.633.575 1.437.345 2.644-.029 3.305-.23.373-.517.603-.805.632-.086-.029-.143 0-.201 0Zm-.144-3.822c-.086 0-.172.028-.287.057-.259.115-.345.603-.345 1.006-.057 1.15.201 1.58.345 1.724.115.115.316.173.546.144.201-.086.776-1.178.144-2.759-.029-.029-.086-.115-.173-.144-.086 0-.143-.028-.23-.028Z"/><path d="M185.097 73.72h-.058l-7.415-.861a.43.43 0 0 1-.373-.49.446.446 0 0 1 .488-.373l7.415.863a.43.43 0 0 1 .374.488.435.435 0 0 1-.431.374ZM174.406 75.934c-.058 0-.115 0-.173-.029-.23-.115-.431-.402-.575-.862-.115-.345-.46-1.58.173-2.673.172-.316.46-.517.804-.604.776-.172 1.667.489 1.754.546.201.144.23.403.086.604-.144.201-.403.23-.604.086-.201-.143-.747-.46-1.063-.402-.058 0-.144.057-.23.172-.489.891-.115 2.127.086 2.357a.452.452 0 0 1 .173.546c-.115.172-.259.259-.431.259Z"/></g><path fill="#0F182A" d="M172.681 102.749s-2.443 9.886-4.771 12.674c-2.328 2.788-6.984 6.064-12.473 6.524 0 0-3.104-.201-1.15 5.403.316.92 1.121 1.552 2.098 1.667 4.196.431 15.951.719 20.492-8.449 5.576-11.295-4.196-17.819-4.196-17.819Z"/><path fill="#0F182A" d="M190.672 85.13s1.322 3.737 3.909 5.921c2.587 2.185 6.495 2.3 8.766 7.731 3.966 9.427 2.816 29.718-.891 39.978-.747 2.07-.316 6.869-.316 6.869l-30.436-.402s3.334-17.359.977-29.085c-.977-4.857-3.133-12.905 2.328-20.09 1.236-1.638 2.472-3.305 3.564-5.058l1.207-1.897c.259.058.546.115.862.172 3.276.575 6.639-.574 8.938-3.017l1.092-1.121Z"/><path fill="#CADDFF" d="M173.515 126.545a.443.443 0 0 1-.432-.431c0-3.793-.287-7.127-.833-9.886-.058-.316-.144-.661-.201-1.006-.288-1.38-.604-2.96-.834-4.685a.446.446 0 0 1 .374-.488c.23-.029.46.143.489.373.201 1.696.546 3.248.804 4.627.086.345.144.69.201 1.006.575 2.817.863 6.208.863 10.059a.423.423 0 0 1-.431.431Z"/><path fill="#fff" d="M214.757 146.75s.201 1.409 1.207 2.673c1.006 1.265 2.27 4.052 1.811 6.007-.345 1.437-2.3 3.65-4.656 4.742-.345.172-.748.115-1.006-.172-.201-.23-.288-.575-.029-1.121.489-1.006 1.121-.978 1.437-1.696.374-.92.144-4.024-1.121-3.88-1.149.115 0 2.357-.345 3.248-.287.718-.977 1.034-1.667.718-1.006-.431-.891-5.346-.431-6.869.46-1.523 1.236-4.167 1.236-4.167l3.564.517Z"/><path fill="#0F182A" d="M212.745 160.718a1.24 1.24 0 0 1-.92-.403c-.201-.229-.488-.747-.115-1.609.288-.632.661-.92.949-1.15.23-.172.373-.287.488-.546.259-.603.173-2.414-.345-3.104-.172-.23-.287-.201-.344-.201-.029 0-.087 0-.087.029-.115.172 0 .805.058 1.236.115.603.201 1.236.029 1.695-.173.46-.518.834-.949 1.006-.402.173-.862.144-1.293-.028-1.437-.633-1.064-6.122-.69-7.387.46-1.523 1.236-4.167 1.236-4.167l.115-.345 4.282.604.058.316a5.8 5.8 0 0 0 1.121 2.471c1.092 1.38 2.385 4.283 1.896 6.381-.402 1.696-2.586 3.966-4.885 5.058-.23.115-.403.144-.604.144Zm-.259-7.846c.288 0 .661.115 1.006.546.719.977.805 3.132.46 3.937-.172.46-.488.69-.747.891a2.355 2.355 0 0 0-.719.834c-.201.459-.086.603-.028.661.115.115.316.143.488.057 2.271-1.063 4.11-3.161 4.426-4.455.403-1.81-.805-4.454-1.753-5.661-.776-1.006-1.092-2.041-1.236-2.558l-2.903-.403c-.23.776-.776 2.644-1.149 3.823-.518 1.695-.374 6.035.201 6.351.201.087.431.115.632.029.201-.086.374-.259.489-.517.086-.23 0-.805-.086-1.236-.115-.747-.259-1.437.115-1.897.115-.144.316-.316.689-.374.029-.028.087-.028.115-.028Z"/><path fill="#fff" d="M154.69 123.815c.459.69 1.925 2.53.201 3.679-.46.288-3.162.661-3.88 1.006-1.064.517-1.84 1.609-3.478 2.213-3.017 1.121-4.914.374-6.524-1.293-1.609-1.667 2.874-7.185 6.093-6.898 3.19.259 6.898.287 7.588 1.293Z"/><path fill="#0F182A" d="M144.889 131.661c-1.581 0-2.903-.632-4.196-1.954-.603-.632-.603-1.638-.029-2.874 1.006-2.127 3.966-4.972 6.467-4.742.632.057 1.264.086 1.897.143 3.305.23 5.374.403 6.006 1.351l.115.144c.403.575 1.179 1.696.949 2.759-.115.546-.431 1.006-.977 1.351-.288.172-.92.316-1.983.546-.748.144-1.639.345-1.926.488-.402.202-.747.46-1.15.805-.632.489-1.322 1.035-2.356 1.437-1.035.374-1.955.546-2.817.546Zm1.983-8.737c-1.925 0-4.426 2.242-5.403 4.283-.431.89-.46 1.58-.144 1.925 1.725 1.782 3.535 2.127 6.065 1.178.891-.344 1.523-.833 2.126-1.293.431-.345.834-.661 1.322-.891.403-.201 1.236-.373 2.127-.546.604-.115 1.523-.316 1.696-.431.345-.23.546-.489.603-.805.144-.718-.488-1.638-.833-2.098l-.115-.143c-.431-.633-3.161-.834-5.346-.978-.632-.057-1.293-.086-1.925-.143-.058-.058-.115-.058-.173-.058Z"/><path fill="#fff" d="M152.103 124.735c.23-.431.086-.949-.23-1.322-.776-.891-2.385-2.587-3.535-2.501-1.351.115-3.046 1.61-2.529 4.168.345 1.638 1.782.833 1.983.172.201-.69.517-1.437.862-1.149.402.402 2.558 2.241 3.449.632Z"/><path fill="#0F182A" d="M146.7 126.488h-.058c-.287 0-1.006-.172-1.236-1.293-.316-1.61.173-2.702.633-3.334.575-.776 1.437-1.265 2.27-1.351 1.236-.115 2.817 1.38 3.88 2.644.46.546.575 1.236.288 1.811-.259.488-.661.776-1.121.862-1.006.173-2.156-.632-2.817-1.207a6.66 6.66 0 0 0-.316.805c-.172.517-.805 1.063-1.523 1.063Zm1.753-5.116h-.058c-.603.058-1.235.431-1.666 1.006-.374.489-.748 1.351-.489 2.644.086.403.23.604.431.604.316 0 .661-.287.719-.46.287-.948.574-1.379.948-1.494.23-.058.431 0 .632.172.69.604 1.638 1.236 2.242 1.121.144-.029.345-.086.517-.402.144-.288 0-.604-.172-.834-1.293-1.494-2.443-2.357-3.104-2.357ZM194.409 95.075c-1.38.92-2.415 2.27-2.846 3.88-.776 2.759-.833 7.214 3.794 11.841 7.588 7.587 13.077 10.174 13.566 36.529l7.558.086s2.328-17.244-.718-25.809c-2.731-7.673-9.485-25.32-16.44-27.677-1.121-.373-3.908.518-4.914 1.15Z"/><path fill="#CADDFF" d="M196.909 112.75c-.115 0-.23-.028-.287-.115a64.685 64.685 0 0 1-1.581-1.523c-4.713-4.713-4.742-9.283-3.909-12.243a7.34 7.34 0 0 1 1.868-3.19.417.417 0 0 1 .604 0 .418.418 0 0 1 0 .603 6.41 6.41 0 0 0-1.638 2.788c-.776 2.759-.748 6.984 3.678 11.41a69.268 69.268 0 0 0 1.552 1.523.416.416 0 0 1 0 .604.352.352 0 0 1-.287.143Z"/><path fill="#fff" d="M116.465 221.963s-1.495 5.173-.115 7.674l.374 1.034-8.45-2.27.603-.862c1.093-1.524 1.782-3.248 1.984-5.03l5.604-.546Z"/><path fill="#0F182A" d="m117.413 231.275-9.858-2.645.978-1.35c1.034-1.466 1.695-3.133 1.925-4.829l.058-.345 6.552-.632-.172.604c0 .057-1.437 5.029-.144 7.328l.029.058.632 1.811Zm-8.421-3.162 7.042 1.897-.086-.201c-1.15-2.127-.403-5.892-.058-7.358l-4.627.431a11.925 11.925 0 0 1-2.012 4.886l-.259.345Z"/><path fill="#fff" d="m116.925 226.733.718 1.121a16.178 16.178 0 0 0 5.633 5.432l1.753 1.006a.512.512 0 0 1 .288.46v.086c.086 1.092-1.523 3.305-5.49 3.478-2.443.115-8.018-.489-14.284-4.168a1.024 1.024 0 0 1-.488-1.149c.374-1.638 1.437-5.49 3.248-7.214a.45.45 0 0 1 .689.057l1.61 2.127a2.152 2.152 0 0 0 3.018.403l2.414-1.869c.287-.172.718-.086.891.23Z"/><path fill="#0F182A" d="M119.339 238.804c-1.926 0-7.444-.373-13.968-4.224-.575-.316-.833-.978-.69-1.61.374-1.638 1.466-5.633 3.363-7.415a.852.852 0 0 1 .69-.23.879.879 0 0 1 .632.345l1.609 2.127c.288.374.69.603 1.15.661.46.057.891-.058 1.265-.345l2.414-1.868c.23-.172.517-.259.805-.201.287.057.546.23.689.46l.719 1.12a15.846 15.846 0 0 0 5.489 5.289l1.753 1.006c.288.172.489.459.518.804v.087c.028.574-.259 1.264-.805 1.896-.632.719-2.127 1.897-5.087 2.041-.144.057-.316.057-.546.057Zm-10.692-12.645c-1.753 1.638-2.787 5.432-3.132 6.984-.058.258.057.546.287.661 7.128 4.196 12.933 4.167 14.025 4.11 2.645-.115 3.938-1.15 4.484-1.754.46-.517.603-1.006.575-1.264v-.086c0-.058-.029-.087-.086-.115l-1.754-1.006c-2.328-1.38-4.339-3.305-5.776-5.605l-.719-1.121c-.029-.057-.086-.086-.115-.086-.029 0-.086 0-.144.029l-2.414 1.868a2.53 2.53 0 0 1-1.897.517c-.689-.086-1.293-.459-1.724-1.005l-1.61-2.127c.029 0 .029 0 0 0Z"/><path fill="#0F182A" d="M115.172 234.839h-.144a20.617 20.617 0 0 1-8.019-3.018l-1.351-.862c-.201-.115-.258-.403-.143-.604.115-.201.402-.259.603-.144l1.351.863a20.128 20.128 0 0 0 7.674 2.902c.057 0 .115-.028.115-.028.028-.029.057-.058.028-.144l-.143-.805c-.058-.373.086-.747.402-.948a.915.915 0 0 1 1.006 0l.69.431a8.378 8.378 0 0 0 6.495 1.15l.431-.115a.429.429 0 1 1 .201.833l-.431.115a9.33 9.33 0 0 1-7.185-1.265l-.69-.431s-.028-.028-.086 0c-.029.029-.029.058-.029.087l.144.804c.058.316-.057.661-.287.891-.086.201-.345.288-.632.288Z"/><path fill="#fff" d="M84.534 206.213s-4.34 3.564-4.8 6.495l-.344 1.093-5.317-7.933 1.063-.143c1.753-.662 3.507-.891 4.8-2.3l4.598 2.788Z"/><path fill="#0F182A" d="m79.505 214.778-6.18-9.255 1.668-.258c.43-.173.862-.288 1.293-.431 1.293-.403 2.414-.776 3.305-1.725l.23-.258 5.432 3.305-.46.373c-.029.029-4.225 3.507-4.656 6.237v.057l-.632 1.955Zm-4.713-8.594 4.426 6.611.057-.201c.431-2.501 3.334-5.317 4.512-6.323l-3.822-2.3c-.977.949-2.184 1.323-3.42 1.725-.431.144-.862.259-1.294.431l-.086.029-.373.028Z"/><path fill="#fff" d="m81.23 211.558-.432 1.323c-.862 2.644-1.092 5.431-.632 8.162l.345 2.098a.636.636 0 0 1-.172.546l-.087.057c-.833.805-3.65.949-6.409-2.126-1.724-1.897-4.914-6.841-6.121-14.313a1.08 1.08 0 0 1 .603-1.15c1.552-.776 5.374-2.471 7.932-2.155.288.028.489.316.403.575l-.633 2.701a2.244 2.244 0 0 0 1.667 2.702l3.076.718a.68.68 0 0 1 .46.862Z"/><path fill="#0F182A" d="M78.7 224.693h-.172c-.977-.029-2.932-.431-5.001-2.759-.805-.891-4.828-5.748-6.208-14.543a1.503 1.503 0 0 1 .834-1.609c1.551-.776 5.489-2.529 8.162-2.184a.85.85 0 0 1 .632.402c.144.201.201.489.144.719l-.632 2.701c-.115.489-.03.977.23 1.38.258.402.66.689 1.12.804l3.076.719c.287.057.546.259.69.517.143.259.172.575.085.862l-.43 1.322c-.834 2.558-1.064 5.317-.604 7.961l.345 2.099a1 1 0 0 1-.316.919l-.087.058c-.402.402-1.092.632-1.868.632Zm-3.161-20.291c-2.414 0-5.662 1.466-7.013 2.127a.619.619 0 0 0-.345.69c1.351 8.565 5.231 13.249 6.007 14.111 1.868 2.07 3.564 2.443 4.397 2.472.719.029 1.207-.172 1.409-.374l.086-.057a.31.31 0 0 0 .057-.173l-.345-2.098c-.46-2.787-.23-5.69.633-8.363l.43-1.322c.03-.086 0-.144-.028-.172-.029-.029-.058-.087-.144-.087l-3.075-.718c-.69-.173-1.293-.575-1.667-1.179-.373-.603-.488-1.322-.345-2.04l.633-2.702v-.028l-.03-.029c-.23-.058-.43-.058-.66-.058Z"/><path fill="#0F182A" d="M80.338 222.796a.467.467 0 0 1-.258-.086l-.374-.288a9.726 9.726 0 0 1-3.736-6.639l-.086-.833c0-.029-.029-.058-.058-.086-.057-.029-.086.028-.086.028l-.546.633c-.23.258-.546.402-.891.345a1.04 1.04 0 0 1-.805-.518 21.358 21.358 0 0 1-2.874-8.507l-.2-1.696a.446.446 0 0 1 .373-.488c.23-.029.46.144.488.373l.201 1.696a21.002 21.002 0 0 0 2.76 8.162c.028.058.115.087.143.087.029 0 .086 0 .144-.058l.546-.632a.95.95 0 0 1 1.006-.288.921.921 0 0 1 .66.805l.087.834c.259 2.385 1.495 4.598 3.42 6.035l.374.287c.201.144.23.403.086.604-.115.172-.23.23-.374.23ZM105.687 136.145l16.009-4.685 11.093 5.116s7.731 34.057-2.931 60.469c-6.409 15.894-10.663 23.567-12.157 26.068-.345.575-1.035.891-1.696.804l-4.8-.747c-.948-.144-1.552-1.034-1.379-1.983 1.696-8.737 5.317-34.488 8.105-47.479 0 0-.029-.029-.029 0-.747 2.271-8.737 24.314-33.138 36.098-.46.23-1.034-.029-1.322-.46l-4.397-5.719c-.287-.403-.259-.949.029-1.351 3.88-5.288 31.355-40.351 26.613-66.131Z"/><path fill="#CADDFF" d="M116.292 179.456c-.057 0-.086 0-.143-.029-.23-.086-.345-.316-.259-.546a123.017 123.017 0 0 0 1.466-4.598c1.983-6.438 3.88-12.531 7.53-14.744a.46.46 0 0 1 .603.144.459.459 0 0 1-.143.603c-3.363 2.041-5.289 8.249-7.157 14.255-.46 1.524-.977 3.104-1.466 4.628a.502.502 0 0 1-.431.287Z"/><path fill="#0F182A" d="M125.144 75.99s.891-4.195-3.19-5.747c-4.196-1.61-9.369-1.322-10.979 2.414-3.678 8.478 2.012 11.611-10.403 15.577-3.91 1.236-6.668.805-11.928 4.139-8.45 5.374-6.696 20.52 2.616 24.975 0 0 9.455 4.57 16.41-2.127l8.651-5.518.546-13.02 2.702-14.887 5.575-5.805Z"/><path fill="#fff" d="m136.669 141.174.489 3.794c.086 1.178.172 2.414.086 3.593-.144 1.753-1.092 3.362-2.529 4.368l-1.408-9.8 3.362-1.955Z"/><path fill="#0F182A" d="M134.715 153.36c-.057 0-.115 0-.172-.029-.144-.057-.23-.172-.259-.344l-1.408-9.801a.427.427 0 0 1 .201-.431l3.362-1.983a.408.408 0 0 1 .403-.029c.143.058.23.201.23.345l.488 3.794c.115 1.264.201 2.5.087 3.679-.144 1.868-1.15 3.592-2.731 4.684-.029.115-.115.115-.201.115Zm-.92-10.001 1.236 8.765a5.467 5.467 0 0 0 1.782-3.592c.086-1.121 0-2.299-.086-3.535l-.403-3.133-2.529 1.495Z"/><path fill="#fff" d="M135.951 120.539c.46-.029 3.535-.201 3.995-.173 4.627.202 6.553 2.012 8.277 4.398 1.725 2.385-.661 4.972-2.759 4.455-2.098-.518-5.604-1.84-10.691-4.915-.575-.345-1.552-.517-1.495-1.178.115-1.208.317-2.415 2.673-2.587Z"/><path fill="#0F182A" d="M146.01 129.707c-.23 0-.431-.029-.632-.086-2.012-.489-5.518-1.753-10.806-4.972-.144-.086-.316-.144-.489-.23-.546-.23-1.293-.546-1.207-1.351.115-1.322.46-2.759 3.075-2.96.431-.029 3.564-.201 4.053-.173 4.569.173 6.667 1.897 8.622 4.57.862 1.178.891 2.558.115 3.708-.661.919-1.696 1.494-2.731 1.494Zm-10.001-8.737c-2.127.172-2.185 1.15-2.271 2.184 0 .173.288.316.69.489.201.086.402.172.575.287 5.202 3.133 8.622 4.398 10.576 4.857.862.202 1.868-.23 2.414-1.063.259-.402.805-1.466-.115-2.73-1.839-2.53-3.707-4.024-7.961-4.196-.373-.029-3.42.143-3.908.172Z"/><path fill="#fff" d="M139.802 125.482c-.776.028-1.293.804-.977 1.523.029.057.057.144.115.201.718 1.322 3.219 3.593 4.857 3.88 1.638.287 2.644-3.133 1.839-4.139-1.12-1.408-4.426-1.494-5.834-1.465Z"/><path fill="#0F182A" d="M143.97 131.546c-.087 0-.173 0-.259-.028-1.839-.317-4.397-2.702-5.173-4.082-.058-.086-.087-.172-.115-.229a1.452 1.452 0 0 1 .115-1.409 1.608 1.608 0 0 1 1.264-.718c1.782-.029 4.972.115 6.179 1.609.661.834.403 2.558-.258 3.679-.46.747-1.092 1.178-1.753 1.178Zm-4.139-5.633a.616.616 0 0 0-.546.316.643.643 0 0 0-.058.604l.087.172c.661 1.236 3.017 3.392 4.541 3.65.517.087.919-.431 1.092-.747.575-.948.661-2.27.316-2.701-.661-.863-2.702-1.351-5.432-1.294Z"/><path fill="#5479F7" d="M136.756 135.369c-.949-2.443-5.748-13.049-7.128-20.119l-2.673-15.433c-.345-1.926-1.552-3.564-3.334-4.369-3.736-1.695-10.174-2.672-16.525-2.241 0 0-6.036-.087-8.335 4.914-1.61 3.506-1.782 5.231-1.207 8.536.603 3.621 1.897 5.863 3.65 9.599 2.328 4.944 2.069 7.387 1.724 9.829-.057.403-.115.834-.143 1.265-.144 1.868.057 3.765.488 5.604a3.623 3.623 0 0 1-1.092 3.535c-.316.288-.575.547-.747.719-1.064 1.15-1.983 3.391.23 6.639 5.029 7.501 20.75-7.013 25.952-7.329 1.236-.086 2.184.029 2.932.259.402.144 1.667.69 2.012 1.638.574 1.581 1.408 6.668 1.408 6.668s2.644.029 3.535-1.696c.92-1.782.373-5.116-.747-8.018Z"/><path fill="#5479F7" d="M129.456 126.861c.776-.172 3.563-.833 4.023-1.034.949-.403 1.38-.834 1.696-1.84.603-1.868.603-2.989.46-3.679a1.254 1.254 0 0 0-1.179-1.005c-2.672-.173-14.973-.863-16.439-2.3-1.667-1.667-1.667-4.196-3.909-11.41-2.241-7.213-5.432-9.225-5.432-9.225s-6.294-4.828-6.84 4.196c0 0-.287 7.731 4.34 17.187 3.046 6.294 7.875 12.732 23.28 9.11Z"/><path fill="#99B9FF" d="M123.018 128.126c-11.784 0-17.676-5.834-19.917-8.794-.144-.202-.115-.46.086-.604.201-.144.46-.115.603.086 2.645 3.478 10.634 11.151 27.965 7.473.23-.058.46.086.517.345.058.229-.086.459-.345.517-3.276.69-6.236.977-8.909.977ZM128.766 118.929h-.029c-6.811-.488-9.973-.948-10.95-1.58-2.845-1.868-3.736-3.909-5.949-11.037-2.156-6.926-5.202-8.967-5.231-8.995 0 0-.029 0-.029-.03 0 0-.948-.718-2.069-1.034a.42.42 0 0 1-.287-.546.42.42 0 0 1 .546-.287 7.469 7.469 0 0 1 2.356 1.178c.288.201 3.363 2.357 5.576 9.456 2.328 7.443 3.104 8.938 5.604 10.576 1.179.776 7.961 1.265 10.548 1.437.23.029.402.23.402.46-.086.23-.258.402-.488.402Z"/><path fill="#99B9FF" d="M116.407 110.451a.369.369 0 0 1-.287-.115.418.418 0 0 1 0-.604 4.254 4.254 0 0 0 1.178-2.931c0-.748-.201-1.466-.546-2.098a.405.405 0 0 1 .173-.575.405.405 0 0 1 .575.172 5.19 5.19 0 0 1 .661 2.529 5.098 5.098 0 0 1-1.409 3.535c-.115.029-.23.087-.345.087ZM126.035 118.44a.424.424 0 0 1-.402-.316 78.706 78.706 0 0 1-1.638-6.265c-.23-1.092-.058-2.184.488-3.075.518-.863.805-1.84.805-2.846a5.58 5.58 0 0 0-.718-2.701.405.405 0 0 1 .172-.575.405.405 0 0 1 .575.172c.546.949.833 2.041.833 3.133a6.27 6.27 0 0 1-.919 3.276 3.27 3.27 0 0 0-.374 2.443 85.724 85.724 0 0 0 1.61 6.208.456.456 0 0 1-.288.546h-.144Z"/><path fill="#fff" d="M116.436 78.635c.23.144 1.15.977 1.437.92.23-.058 3.047-.288 5.03-4.139.23-.46 1.351-.172 1.868 1.409.46 1.38 0 2.213 1.494 4.023.144.173.029.46-.172.575l-.977.805c-.201.143-.374.66-.403.92-.086.775-.201 2.442-.459 2.644-.547.402-3.162.23-3.162.23l-2.472 7.788c-.287.891.834 1.408 1.667 1.667.316.086.374.546.058.718-1.064.547-3.104 1.15-6.927.863-1.523-.115-2.845-.489-3.937-.891-.805-.316-1.495-.949-1.178-1.81.258-.69 1.264-.144 2.184-.95 2.357-2.011 4.426-5.948 5.173-10.892.115-.776-1.207-.862-1.264-2.328-.087-1.523 1.235-2.04 2.04-1.552Z"/><path fill="#0F182A" d="M115.315 97.517c-.603 0-1.236-.028-1.925-.086a14.512 14.512 0 0 1-4.053-.92c-1.207-.46-1.782-1.38-1.437-2.356.201-.604.748-.661 1.179-.719.373-.057.747-.086 1.12-.402 2.443-2.098 4.34-6.064 5.03-10.634.029-.086-.057-.172-.316-.431-.374-.316-.92-.834-.949-1.81-.028-.834.288-1.524.92-1.898a1.778 1.778 0 0 1 1.811-.028c.086.057.201.143.402.287s.632.489.805.575c.862-.144 3.046-.776 4.656-3.909.144-.287.46-.46.833-.43.575.056 1.38.574 1.811 1.896.144.46.201.862.259 1.236.115.804.201 1.465 1.178 2.615a.723.723 0 0 1 .144.546c-.029.259-.173.489-.403.661l-.948.776c-.086.086-.23.431-.259.632 0 .115-.029.26-.029.403-.143 1.638-.258 2.27-.603 2.529-.517.402-2.156.402-3.133.345l-2.357 7.472c-.028.115-.028.23.029.316.144.288.661.575 1.351.805a.804.804 0 0 1 .575.719c.029.345-.144.632-.431.805-.92.488-2.529 1.005-5.26 1.005Zm.46-18.623c-.172 0-.316.057-.488.143-.345.202-.518.604-.489 1.121.029.632.345.92.69 1.207.316.288.689.633.603 1.179-.718 4.742-2.701 8.91-5.317 11.15-.575.49-1.149.547-1.58.605-.403.057-.46.086-.46.143-.259.747.718 1.179.919 1.265 1.265.488 2.53.776 3.823.862 3.621.259 5.575-.259 6.61-.747-.92-.288-1.494-.69-1.782-1.179a1.175 1.175 0 0 1-.086-.977l2.472-7.788a.38.38 0 0 1 .431-.288c1.264.086 2.529.029 2.845-.115.144-.287.23-1.437.287-1.954.029-.144.029-.288.029-.431.029-.288.23-.949.575-1.207l.948-.776.058-.058c-1.063-1.293-1.178-2.155-1.293-2.989-.058-.373-.087-.718-.23-1.092-.201-.603-.518-1.063-.891-1.264-.115-.058-.173-.058-.23-.058-1.782 3.449-4.282 4.167-5.26 4.311h-.028c-.345.058-.719-.172-1.437-.747a4.967 4.967 0 0 1-.288-.23 1.048 1.048 0 0 0-.431-.086Z"/><g fill="#0F182A"><path d="M141.124 112.376a.46.46 0 0 1-.316-.143l-3.248-3.651c-.143-.172-.143-.459.029-.603.172-.144.46-.144.604.029l3.247 3.65c.144.172.144.46-.029.603a.369.369 0 0 1-.287.115ZM149.401 112.376a.365.365 0 0 1-.287-.115.416.416 0 0 1-.029-.603l3.248-3.65a.416.416 0 0 1 .603-.029.417.417 0 0 1 .029.604l-3.248 3.65a.46.46 0 0 1-.316.143ZM145.464 111.572a.443.443 0 0 1-.431-.432v-6.006c0-.23.201-.431.431-.431.23 0 .431.201.431.431v6.006c0 .259-.173.432-.431.432Z"/></g><path fill="#0F182A" d="M53.351 54.033a2.564 2.564 0 0 1-2.558-2.558 2.564 2.564 0 0 1 2.558-2.558 2.564 2.564 0 0 1 2.558 2.558 2.564 2.564 0 0 1-2.558 2.558Zm0-4.253c-.92 0-1.696.747-1.696 1.695a1.68 1.68 0 0 0 1.696 1.696c.92 0 1.696-.747 1.696-1.696 0-.948-.776-1.695-1.696-1.695Z"/><path fill="#CADDFF" d="M155.523 50.412c0-.977.805-1.782 1.782-1.782s1.782.805 1.782 1.782-.805 1.782-1.782 1.782a1.755 1.755 0 0 1-1.782-1.782ZM153.511 201.298a1.79 1.79 0 0 1 1.782-1.781 1.79 1.79 0 0 1 1.782 1.781 1.79 1.79 0 0 1-1.782 1.782c-1.006-.028-1.782-.804-1.782-1.782Z"/><g fill="#0F182A"><path d="M163.714 41.071a.432.432 0 0 1-.316-.115l-.661-.66a.416.416 0 0 1 0-.604.416.416 0 0 1 .603 0l.661.66a.416.416 0 0 1-.287.72ZM168.082 45.411a.431.431 0 0 1-.316-.115l-.661-.66a.417.417 0 0 1 0-.604.417.417 0 0 1 .604 0l.661.66a.417.417 0 0 1-.288.72ZM163.053 45.411a.416.416 0 0 1-.316-.718l.661-.661a.416.416 0 0 1 .603 0 .416.416 0 0 1 0 .603l-.661.661c-.057.087-.172.115-.287.115ZM167.421 41.071a.432.432 0 0 1-.316-.115.417.417 0 0 1 0-.603l.661-.661a.417.417 0 0 1 .604 0 .418.418 0 0 1 0 .603l-.661.661c-.087.058-.201.115-.288.115Z"/></g></g><defs><clipPath id="a"><path fill="#fff" d="M0 0h240v240H0z"/></clipPath></defs></svg>