<svg xmlns="http://www.w3.org/2000/svg" width="112" height="112" fill="none" viewBox="0 0 112 112"><rect width="112" height="112" fill="#C02" rx="16"/><path fill="#fff" d="m54.124 37 .342.004.379.014.625.039.451.042.478.055.498.073.515.088.265.05.537.117.276.066.553.145c.464.133.937.288 1.41.47l.566.232c3.384 1.47 6.585 4.421 6.756 10.215l.007.49v.4c0 1.048-.048 1.899-.524 2.4-.386.45-.886.738-1.642.79l-.261.01h-5.188c-1.042 0-2.17-.408-2.358-2.089l-.021-.262c-.048-1.1-.809-2.25-3.426-2.25-2.17 0-2.752 1.452-2.903 2.364l-.029.234-.016.198-.004.154v11.116l.01.164.022.204c.12.848.653 2.366 2.92 2.366 2.417 0 3.304-1.055 3.415-2.111l.01-.138c.092-1.81 1.176-2.304 2.223-2.348l.157-.003h5.378c.904 0 1.237.3 1.712.801.434.453.512 1.156.522 2.107l.003.692c0 8.9-6.805 12.101-13.754 12.101a13.915 13.915 0 0 1-9.661-3.901c-1.918-1.825-3.574-5.537-3.703-8.84l-.009-.41v-13c0-3.9 1.38-6.749 3.76-9.05C46.747 38.55 50.175 37 54.124 37Zm-18.138.8c.905.05 1.523.4 2 .9.388.455.779 1.198.845 2.194l.012.306v4c0 .65-.24 1.4-.572 1.85a2.89 2.89 0 0 1-1 .85c-.464.225-.767.28-1.03.295l-.254.005h-4.092c-.445 0-.595.378-.642.629l-.022.158-.003.063V72.2c-.044.99-.356 1.696-.765 2.19l-.14.158c-.427.495-.971.87-1.736.94l-.261.011h-5.093c-.904-.05-1.524-.451-2-.95-.432-.5-.826-1.124-.894-2.06l-.01-.291V49c0-.638-.276-.819-.575-.848l-.09-.003h-3.952l-.247-.014A2.935 2.935 0 0 1 15 48.05l-.319-.136A2.507 2.507 0 0 1 13.572 47c-.334-.437-.521-1.066-.562-1.62l-.01-.23v-4c.048-1.1.43-1.85.905-2.35.429-.45.973-.9 1.736-.986l.262-.014h20.083Zm43.882 0c.904 0 1.57.35 2.046.85.432.454.827 1.075.894 1.972l.01.278V50c0 .545.119.965.534 1.038l.133.01h3.758c.434 0 .63-.37.662-.89l.006-.16v-9.1c0-1.048.428-1.75.904-2.25.464-.443 1.005-.77 1.756-.836l.29-.012H96c.905 0 1.57.35 2.045.849.43.451.819 1.063.929 1.945l.025.306V72.1a3.124 3.124 0 0 1-.906 2.25c-.47.451-1.018.82-1.783.888l-.261.012h-5.19c-.903-.05-1.57-.4-2.045-.9a3.109 3.109 0 0 1-.894-1.972l-.01-.277v-9.602c0-.785-.203-.973-.572-.997l-.094-.003h-3.76c-.53 0-.651.13-.666.828v9.771a3.128 3.128 0 0 1-.905 2.25c-.47.452-1.019.82-1.784.889l-.262.011H74.68c-.904-.05-1.57-.399-2.046-.9a3.107 3.107 0 0 1-.893-1.971l-.01-.277v-31.2c0-1.05.428-1.751.903-2.25.465-.445 1.006-.77 1.756-.838l.29-.011h5.188Zm-25.792.75c-6.68 0-11.662 4.96-11.845 11.527l-.006.373v11.8c0 6.749 5.141 11.998 11.947 11.998 6.805 0 12.135-3.65 12.135-10.499 0-1.407-.21-2.065-.864-2.142l-.136-.007H60.88c-.762 0-1.566.13-1.737 1.315l-.024.234c-.19 2.38-1.994 3.124-3.468 3.329l-.378.044-.352.02-.322.007c-3.304 0-4.287-1.845-4.563-3.193l-.05-.291-.03-.268-.017-.24-.004-.207V50.499l.01-.224.023-.257.018-.136.05-.292c.276-1.35 1.259-3.203 4.563-3.241l.383.009.397.029c1.61.161 3.425.886 3.712 3.08l.029.28c.088 1.319.853 1.53 1.616 1.548l4.571.003c.76 0 .998-.65.998-2.15 0-6.8-5.425-10.6-12.23-10.6v.001Zm-18.089.8H15.905c-.711 0-1.34.654-1.42 1.432l-.01.169v4.399c0 .3.097.65.334.9.204.214.513.355.897.39l.197.01h4.902c.567 0 .935.462.993.924l.007.126v24.65c.043.793.628 1.5 1.325 1.59l.15.01h5.094c.754 0 1.384-.656 1.465-1.433l.009-.168V47.7c0-.37.162-.952.786-1.04l.166-.01h5.234c.476 0 .856-.15 1.095-.4.187-.207.301-.47.325-.747l.008-.153v-4.4c-.044-.793-.627-1.5-1.324-1.59l-.15-.01Zm43.88-.1H74.68c-.798 0-1.474.654-1.561 1.431l-.009.17v31.447c.044.84.67 1.506 1.41 1.592l.16.009h5.188c.8 0 1.474-.61 1.561-1.423l.009-.178.001-11.266.018-.123c.039-.225.164-.65.54-.742l.155-.018h6.425c.415 0 .603.476.676.736l.038.164V72.3c.043.793.669 1.5 1.41 1.59l.16.01H96c.799 0 1.475-.654 1.56-1.432l.01-.169.047-31.448c-.043-.793-.667-1.5-1.409-1.59l-.16-.01h-5.188c-.798 0-1.475.654-1.562 1.431l-.008.17v10.798c0 .501-.118.794-.569.843l-.145.008h-6.425c-.47 0-.672-.325-.708-.717l-.006-.134V40.85c-.044-.793-.668-1.5-1.41-1.59l-.16-.01Zm-25.743 1.1c5.043 0 10.375 2.5 10.659 8.3.043.495-.184.908-.508.987l-.11.013h-2.666c-.57 0-.952-.1-1.046-.65-.522-3.15-2.428-4.5-6.14-4.5-3.553 0-5.943 2.679-6.085 5.76l-.006.29v11.8c0 3.15 2.38 6.049 6.092 6.049 3.426 0 5.615-1.55 6.138-4.55.087-.495.403-.626.882-.646l.165-.005h2.666c.38 0 .667.452.618 1-.284 5.85-5.52 8.55-10.564 8.55-5.968 0-10.337-4.845-10.512-10.072l-.006-.326v-11.8c0-5.35 4.283-10.2 10.423-10.2Zm25.268.4c.338 0 .564.237.61.605l.008.146V52.85c0 .455.315.951.766 1.037l.14.015h8.803c.566 0 .974-.338 1.039-.855l.008-.146V41.45c0-.451.308-.657.682-.695l.127-.005h3.236c.786 0 1.211.252 1.239.718v30.03c0 .547-.198.844-.663.893l-.147.008h-3.76l-.062-.026c-.155-.069-.55-.286-.636-.707l-.016-.167v-11.75c0-.412-.4-.909-.906-.989l-.141-.01h-8.804c-.476 0-.834.454-.895.874l-.01.125V71.5c0 .525-.428.768-.641.857l-.12.043H75.68c-.747 0-1.007-.342-1.043-.788l-.005-.113V41.55c0-.41.276-.737.828-.793l.172-.008h3.76ZM35.179 41c.379 0 .572.157.644.51l.02.14v2.55c0 .444-.149.771-.484.837l-.134.013h-6.043c-.432 0-.866.413-.94.863l-.012.137v25.6c0 .4-.264.602-.489.641l-.083.007H23.9c-.209 0-.381-.228-.42-.521l-.01-.128v-25.6c0-.408-.393-.9-.751-.986l-.105-.013h-6.09c-.21 0-.381-.153-.422-.459l-.008-.141v-2.8c0-.225.193-.571.648-.638l.16-.012h18.277Z"/></svg>