<svg xmlns="http://www.w3.org/2000/svg" xml:space="preserve" id="Layer_1" x="0" y="0" style="enable-background:new 0 0 1417.3 1417.3" version="1.1" viewBox="0 0 1417.3 1417.3"><style>.st0{fill:#cbcbcb}</style><switch><g><path d="M1118.7 663.2c0-82.1-42.3-143.7-78.9-193.6-37.6-51.3-96.8-62.4-145.6-31.8-13.4 8.4-23.3 20.9-33.5 33-83.8 99-157.3 178.5-157.3 178.5 72.2 31.6 151.5 22.1 151.5 22.1S796.4 763.6 705.7 853c-55.3 54.5-93 136.7-90.6 233.2 3 122.2 62.5 207.4 62.5 207.4 58-124.6 153.3-235.4 286-366.3 89.3-88 155.1-177.2 155.1-264.1zM298.6 748.6c0 73.8 13.7 132 50.3 181.9 37.6 51.3 96.8 62.4 145.6 31.8 13.4-8.4 24.9-19.7 33.5-33 64-98.8 134.5-176.2 134.5-176.2-72.3-31.5-137.5-10.3-137.5-10.3s2.2-61.3 125-181.1c72.5-70.7 127-152.9 121-247.8-6.9-109.3-59.9-190.2-59.9-190.2-58 124.6-129.5 211.4-265.8 349.1-100.5 101.6-146.7 207.6-146.7 275.8z" class="st0"/></g></switch></svg>