<svg xmlns="http://www.w3.org/2000/svg" xml:space="preserve" style="enable-background:new 0 0 24 24" width="24" viewBox="0 0 24 24"><style>.st0{opacity:.2;fill:none;stroke:#000;stroke-width:5.000000e-02;stroke-miterlimit:10}</style><g id="_icons"><path d="M15.6 3.3c-1.4 0-2.6.5-3.6 1.5L9.8 7c-.4.4-.4 1 0 1.4s1 .4 1.4 0l2.2-2.2c1.2-1.2 3.2-1.2 4.4 0 .6.6.9 1.4.9 2.2 0 .8-.3 1.6-.9 2.2l-2.2 2.2c-.4.4-.4 1 0 1.4.2.2.5.3.7.3s.5-.1.7-.3l2.2-2.2c1-1 1.5-2.2 1.5-3.6s-.5-2.6-1.5-3.6-2.2-1.5-3.6-1.5zM8.4 11.3c.4-.4.4-1 0-1.4s-1-.4-1.4 0L4.8 12c-1 1-1.5 2.2-1.5 3.6s.5 2.6 1.5 3.6 2.2 1.5 3.6 1.5 2.6-.5 3.6-1.5l2.2-2.2c.4-.4.4-1 0-1.4s-1-.4-1.4 0l-2.2 2.2c-1.2 1.2-3.2 1.2-4.4 0-.6-.6-.9-1.4-.9-2.2 0-.8.3-1.6.9-2.2l2.2-2.1z"/><path d="M9.1 14.9c.2.2.5.3.7.3s.5-.1.7-.3l4.3-4.3c.4-.4.4-1 0-1.4s-1-.4-1.4 0l-4.3 4.3c-.4.3-.4 1 0 1.4z" fill="#0f182a"/></g></svg>