<svg xmlns="http://www.w3.org/2000/svg" width="18" height="18" fill="none" viewBox="0 0 18 18"><path stroke="#fff" stroke-linecap="round" stroke-linejoin="round" stroke-width="1.4" d="M8.545 1.32a.51.51 0 0 1 .18-.233.475.475 0 0 1 .548 0 .51.51 0 0 1 .18.232L11.31 6a.512.512 0 0 0 .166.22c.073.056.16.09.25.097l4.821.404c.436.037.613.607.28.905l-3.673 3.299a.518.518 0 0 0-.148.231.54.54 0 0 0-.01.279l1.122 4.93a.537.537 0 0 1-.017.299.513.513 0 0 1-.172.238.477.477 0 0 1-.545.022l-4.129-2.641a.476.476 0 0 0-.512 0l-4.128 2.642a.474.474 0 0 1-.545-.022.513.513 0 0 1-.172-.238.538.538 0 0 1-.017-.298l1.123-4.932a.538.538 0 0 0-.16-.51L1.172 7.625a.54.54 0 0 1-.147-.55.516.516 0 0 1 .163-.245.48.48 0 0 1 .265-.11l4.821-.404a.478.478 0 0 0 .25-.097.513.513 0 0 0 .165-.22l1.857-4.68Z"/></svg>