<svg xmlns="http://www.w3.org/2000/svg" width="20" height="20" fill="none" viewBox="0 0 20 20"><path fill="#fff" d="M11.875 17.5h-3.75a.625.625 0 1 1 0-1.25h3.75a.624.624 0 1 1 0 1.25ZM10 2.88a.625.625 0 0 1-.625-.624V.625a.625.625 0 0 1 1.25 0v1.63a.625.625 0 0 1-.625.626Zm5.476 2.27a.625.625 0 0 1-.442-1.068l1.153-1.154a.626.626 0 0 1 .885.885l-1.154 1.153a.627.627 0 0 1-.442.183Zm3.899 5.475h-1.63a.625.625 0 1 1 0-1.25h1.63a.625.625 0 1 1 0 1.25Zm-2.746 6.63a.62.62 0 0 1-.442-.184l-1.153-1.154a.627.627 0 0 1 .203-1.02.625.625 0 0 1 .681.136l1.154 1.154a.625.625 0 0 1-.443 1.067Zm-13.258 0a.625.625 0 0 1-.442-1.068l1.153-1.154a.626.626 0 0 1 .885.885L3.813 17.07a.623.623 0 0 1-.442.183Zm-1.115-6.63H.625a.625.625 0 1 1 0-1.25h1.63a.625.625 0 0 1 0 1.25Zm2.268-5.476a.62.62 0 0 1-.442-.183L2.93 3.812a.625.625 0 0 1 .884-.884l1.154 1.154a.625.625 0 0 1-.443 1.067Z"/><path fill="#fff" d="M11.042 20H8.959c-.703 0-1.459-.533-1.459-1.703v-1.47c0-.885-.376-1.696-1.007-2.171-1.821-1.371-2.664-3.626-2.2-5.885C4.749 6.557 6.54 4.76 8.75 4.297a5.867 5.867 0 0 1 4.929 1.174A5.812 5.812 0 0 1 15.833 10a5.794 5.794 0 0 1-2.229 4.582c-.701.551-1.104 1.32-1.104 2.107v1.853A1.46 1.46 0 0 1 11.042 20ZM9.989 5.418a4.556 4.556 0 0 0-4.472 3.603c-.366 1.781.296 3.558 1.727 4.636.942.71 1.505 1.895 1.505 3.17v1.47c0 .075.01.453.209.453h2.083a.209.209 0 0 0 .208-.208v-1.853c0-1.174.577-2.3 1.582-3.09A4.55 4.55 0 0 0 14.584 10a4.569 4.569 0 0 0-1.695-3.56 4.586 4.586 0 0 0-2.9-1.022Z"/></svg>