<svg xmlns="http://www.w3.org/2000/svg" width="20" height="20" fill="none" viewBox="0 0 20 20"><path stroke="#fff" stroke-linecap="round" stroke-linejoin="round" stroke-width="1.4" d="M8.528 2.836A1 1 0 0 1 9.515 2h.971a1 1 0 0 1 .987.836l.132.794c.063.377.342.68.694.827.353.146.76.126 1.07-.096l.656-.469A1 1 0 0 1 15.314 4l.687.688a1 1 0 0 1 .107 1.289l-.469.655c-.222.311-.242.717-.095 1.07.147.353.449.631.827.694l.793.133a1 1 0 0 1 .836.986v.972a1 1 0 0 1-.836.987l-.793.132c-.378.063-.68.34-.827.694-.147.353-.127.759.095 1.07l.469.656A1 1 0 0 1 16 15.314l-.688.687a1 1 0 0 1-1.288.107l-.656-.469c-.311-.222-.717-.242-1.07-.095-.352.147-.63.449-.694.826l-.132.794a1 1 0 0 1-.987.836h-.972c-.49 0-.906-.354-.987-.836l-.131-.794c-.064-.377-.342-.68-.695-.827-.353-.146-.759-.126-1.07.096l-.656.469A1 1 0 0 1 4.686 16L4 15.313a1 1 0 0 1-.107-1.289l.469-.655c.222-.311.243-.717.096-1.07-.147-.353-.449-.631-.827-.694l-.794-.133A1 1 0 0 1 2 10.486v-.972a1 1 0 0 1 .836-.987l.794-.132c.377-.063.68-.34.827-.694.147-.353.127-.759-.095-1.07l-.469-.656A1 1 0 0 1 4 4.686L4.687 4a1 1 0 0 1 1.289-.107l.655.469c.311.222.717.242 1.07.095.353-.147.631-.449.694-.826l.133-.794Z"/><path stroke="#fff" stroke-linecap="round" stroke-linejoin="round" stroke-width="1.4" d="M12.75 10a2.75 2.75 0 1 1-5.5 0 2.75 2.75 0 0 1 5.5 0Z"/></svg>