<svg xmlns="http://www.w3.org/2000/svg" width="18" height="18" fill="none" viewBox="0 0 18 18"><path stroke="#fff" stroke-linecap="round" stroke-linejoin="round" stroke-width="1.4" d="M15.875 10.792v3.541c0 .912-.656 1.697-1.56 1.817a40.387 40.387 0 0 1-10.63 0c-.904-.12-1.56-.905-1.56-1.817v-3.541m13.75 0a1.817 1.817 0 0 0 .625-1.384V6.255c0-.9-.64-1.68-1.53-1.813a40.09 40.09 0 0 0-2.845-.322m3.75 6.672c-.162.137-.35.245-.56.316A19.982 19.982 0 0 1 9 12.125c-2.207 0-4.33-.357-6.314-1.017a1.68 1.68 0 0 1-.561-.316m0 0A1.817 1.817 0 0 1 1.5 9.408V6.255c0-.9.64-1.68 1.53-1.813a40.09 40.09 0 0 1 2.845-.322m6.25 0v-.745A1.875 1.875 0 0 0 10.25 1.5h-2.5a1.875 1.875 0 0 0-1.875 1.875v.745m6.25 0c-2.08-.16-4.17-.16-6.25 0M9 9.625h.007v.007H9v-.007Z"/></svg>